<?xml version="1.0" encoding="UTF-8"?>
<!DOCTYPE svg PUBLIC "-//W3C//DTD SVG 1.1//EN" "http://www.w3.org/Graphics/SVG/1.1/DTD/svg11.dtd">
<!-- Creator: CorelDRAW -->
<svg xmlns="http://www.w3.org/2000/svg" xml:space="preserve" width="165.369mm" height="158.152mm" version="1.1" style="shape-rendering:geometricPrecision; text-rendering:geometricPrecision; image-rendering:optimizeQuality; fill-rule:evenodd; clip-rule:evenodd"
viewBox="0 0 16222.16 15514.2"
 xmlns:xlink="http://www.w3.org/1999/xlink"
 xmlns:xodm="http://www.corel.com/coreldraw/odm/2003">
 <defs>
  <style type="text/css">
   <![CDATA[
    .str1 {stroke:#6A253A;stroke-width:98.1;stroke-miterlimit:22.9256}
    .str0 {stroke:#B68F22;stroke-width:69.22;stroke-linejoin:round;stroke-miterlimit:10}
    .fil6 {fill:none}
    .fil5 {fill:#FEFEFE}
    .fil2 {fill:#EEE1C6}
    .fil4 {fill:#B68F22}
    .fil3 {fill:#6A253A}
    .fil0 {fill:#714543}
    .fil1 {fill:#EEE1C6;fill-rule:nonzero}
   ]]>
  </style>
 </defs>
 <g id="Слой_x0020_1">
  <metadata id="CorelCorpID_0Corel-Layer"/>
  <g id="_1909843140288">
   <path class="fil0" d="M14382.75 11327.42c-42.66,-43.94 -84.11,-89.01 -125.28,-134.39 -44.29,-48.81 -88.46,-97.75 -132.74,-146.61 -22.99,77.3 -59.86,149.93 -106.91,217.02 -8.56,19.89 -16.31,44.88 -23.23,70.53 27.71,1.91 55.06,2.82 77.7,1.27 79.11,-26.01 163.25,-35.24 246.43,-22.18 22.85,3.59 43.43,8.17 64.02,14.36z"/>
   <path class="fil1 str0" d="M15045.36 8083.44c61.21,55.11 121.3,111.49 181.24,168.03 110.64,104.37 222.21,207.75 332.05,312.96 75.24,72.06 149.89,144.74 222.84,219.14 47.92,48.87 95.26,97.71 139.11,150.37 69.33,83.25 130.35,173.29 176.92,271.32 53.95,113.57 88.04,234.69 89.95,361.11 1.42,93.84 -15.77,186.84 -43.05,276.32 -37.55,123.18 -111.49,216.46 -222.85,281.14 -67.19,39.01 -143.03,62.09 -219.61,73.54 -108.79,16.27 -219.94,13.15 -326.72,-14.29 -178.89,-45.98 -308.87,-176.77 -353.72,-355.94 -14.39,-57.5 -19.59,-118.56 -19.07,-177.85 0.02,-2.71 0.06,-5.26 0.13,-7.77 -71.81,10.47 -146.41,22.01 -217.11,39.8 -17.91,8.89 -35.85,17.64 -53.92,26.12 -0.86,41.73 -5.95,83.45 -15.96,124.77 -18.85,77.79 -53.55,146.45 -101.56,203.25 27.39,27.82 54.82,55.6 82.29,83.34 81.45,82.25 163.99,163.51 248.75,242.36 10.36,9.63 21.4,18.78 33.16,26.67 13.33,8.95 27.25,18.74 41.16,26.72 16.49,9.47 32.97,18.91 49.46,28.37 6.53,3.75 13.24,7.2 20.05,10.43 13.84,6.56 25.38,12.68 38.57,20.45 45.27,26.63 86.93,57.12 127.98,89.73 103.69,82.33 173.41,194.53 205.05,322.63 34.3,138.93 18.87,282.35 -51.86,408.06 -75.93,134.94 -199.93,226.07 -346.59,270.09 -119.75,35.94 -243.31,34.83 -358.51,-4.35 84.43,114.04 120.91,253.44 106,398.15 -14.6,141.7 -74.08,270.24 -169.97,375.04 -16.48,18.02 -31.8,32.58 -50.3,47.74 -37.43,33.97 -74.74,58.65 -121.24,80.35 -100.95,47.1 -212.37,57.94 -322.19,54.05 -35.19,-1.25 -70.19,-3.87 -105.04,-7.56 32.34,98.59 36.86,204.5 13.72,309.31 -26.52,120.12 -82.62,228.72 -165.23,319.22 -96.05,113.78 -231.03,177.99 -378.16,184.09 -37.83,129.8 -121.4,234.89 -231.71,310.1 -33.08,22.55 -66.78,42.82 -103.09,59.95 -4.87,2.3 -9.73,4.53 -14.61,6.71 -63.45,47.86 -123.64,106.15 -178.29,161.61 -94.67,96.07 -188.57,192.88 -281.65,290.49 -44.95,47.16 -91.12,80.11 -150.32,107.29 -101.07,46.41 -212.18,58.8 -321.22,37.46 -44.27,-8.66 -88.28,-22.62 -129.1,-41.73 -6.33,-2.96 -12.56,-6.02 -18.69,-9.17 -5.59,9.72 -11.29,19.4 -17.09,29.05 -124.03,206.26 -288.52,387.86 -509.27,492.3 -184.29,87.2 -386.14,79.71 -567.65,-9.34 -161.93,-79.46 -284.2,-208.39 -359.88,-371.55 -4.31,-9.29 -8.61,-18.59 -12.91,-27.9 -2.13,1.72 -4.26,3.43 -6.39,5.14 -17.68,15.51 -35.36,30.99 -53.06,46.46l28.25 199.8c1.94,13.74 3.12,25.52 3.95,39.38 7.81,130.65 -25.87,258.8 -102.5,365.77 -73.96,103.23 -177.55,170.42 -292.35,218.71 -41.74,17.55 -79.35,27.82 -124.22,33.9 -107.48,14.59 -212.61,-5.44 -307.22,-54.14 -119.39,104.3 -270.28,156.43 -428.63,172.43 -126.12,12.74 -250.03,-15.67 -355.91,-84.09 -81.78,73.48 -183.77,121.41 -299.73,133.11 -150.26,15.15 -298.97,-25.45 -413.13,-131.75 -102.84,-95.76 -154.53,-223.21 -168.14,-359.43 -0.51,-5.05 -0.87,-9.36 -1.23,-14.41 -6.17,-87.89 11,-173.86 31.63,-258.64 23.52,-96.72 52.68,-191.75 83.02,-286.52 38.46,-120.16 78.18,-240.18 112.47,-361.61l4.76 -19.31c-162.5,4.14 -324.94,2.61 -487.01,-4.53 60.85,145.26 75.54,302.74 44.82,461.73 -64.56,334.07 -257.41,594.7 -554.34,759.32 -280.12,155.3 -587.37,193.47 -899.86,131.86 -146.46,-28.88 -284.56,-81.92 -408.93,-161.41 -27.05,26.26 -54.48,52.13 -82.07,77.82 -104.52,97.38 -227.22,182.92 -371.22,207.01 -105.19,17.61 -200.37,3.78 -296.2,-43.03 -98.81,-48.25 -183.22,-117.31 -241.54,-212.35 -64.88,-105.72 -87.6,-230.32 -66.58,-352.18 2.52,-14.62 5.47,-28.5 8.96,-41.98 -55.28,-26.96 -110.93,-53.15 -166.88,-78.66 -130.01,-59.3 -263.36,-111.39 -397.7,-159.97 -154.43,-55.83 -309.1,-110.99 -464.04,-165.38 -14.83,-5.21 -27.27,-10.23 -41.56,-16.76 -61.34,-28.07 -120.8,-58.84 -174.05,-100.86 -142.99,-112.8 -209.31,-283.12 -181.07,-459.87 -223.22,-11.46 -442.52,-66.9 -628.22,-197.58 -143.84,-101.22 -232.59,-247.64 -262.82,-415.59 -142.16,-20.81 -269.98,-91.98 -367.5,-204.9 -107.76,-124.77 -150.94,-284.59 -127.85,-446.65 2.84,-19.83 6.61,-39.3 11.31,-58.39 -24.17,-5.41 -47.62,-12.02 -69.99,-20.08 -95.24,-34.33 -168.06,-88.59 -228.2,-170.03 -55.75,-75.49 -89.44,-160.91 -100.52,-248.96 -26.68,0.26 -53.4,-0.81 -80.14,-3.6 -125.86,-13.14 -248.56,-45.62 -358.44,-110.18 -83.66,-49.16 -154.6,-114.16 -218.02,-186.97 -109.67,-125.94 -146.84,-284 -104.8,-445.62 9.75,-37.48 23.8,-74.12 41.01,-108.82 7.94,-15.99 16.4,-31.65 25.39,-46.96 -196.86,-109.77 -370.74,-257.49 -480.57,-458.13 -89.05,-162.67 -101.19,-343.73 -44.71,-516.14 -5.69,-3.28 -11.35,-6.65 -16.97,-10.12 -159.58,-98.66 -255.9,-256.35 -307.63,-432.18 -36.12,-122.76 -30.8,-250.92 18.06,-368.77 -88.7,-67.11 -155.66,-159.37 -188.9,-272.33 -41.93,-142.49 -30.49,-294.6 49.59,-425.01 74.07,-120.63 190.1,-196.99 322.24,-236.62 4.78,-1.44 8.88,-2.6 13.69,-3.89 87.72,-23.56 172.79,-22.38 261.87,-17.7 98.83,5.18 197.02,16.27 295.16,28.6 105.13,13.19 210.34,27.3 315.78,38.11 -570.64,-2630.9 415.52,-5469.89 2737.39,-7146.62 3126.89,-2258.1 7492.88,-1553.69 9750.96,1573.19 1119,1549.54 1510.51,3403.36 1240.22,5154.16z"/>
   <g>
    <path class="fil2" d="M13407.51 3216.43c2099.64,2907.47 1444.76,6966.53 -1462.7,9066.16 -2907.48,2099.64 -6966.54,1444.75 -9066.17,-1462.71 -2099.63,-2907.47 -1444.75,-6966.53 1462.71,-9066.16 2907.47,-2099.63 6966.54,-1444.75 9066.16,1462.71z"/>
    <path class="fil3" d="M2780.92 10406.09c-7.62,1.88 -15.05,3.9 -21.15,5.49 -47.32,12.27 -95.62,-12.25 -114.09,-57.93 -9.3,-22.99 -18.65,-45.97 -28.09,-68.9 -8.09,-19.63 -17.75,-38.79 -27.93,-57.39 -40.19,-73.44 -96.14,-129.64 -169.3,-169.43 -47.68,-25.94 -99.48,-44.63 -151.79,-58.47 -16.35,-4.33 -30.7,-12.49 -42.22,-23.4 -15.04,5.28 -31.58,6.83 -48.39,3.97 -78.51,-13.3 -158.77,-18.84 -238.32,-19.94 -147.77,-2.03 -296.76,16.75 -436.52,66.67 -116.34,41.55 -242.44,111.71 -350.33,171.96 -58.86,32.86 -101.84,78.09 -127.17,141.18 -19.88,49.51 -22.71,95.93 3.23,143.32 68.8,125.67 194.4,216.02 318.03,280.85 180.21,94.5 373.54,138.98 576.52,140.59 250.81,2 485.53,-64.45 704.88,-186.93 44.05,-24.58 91.28,-124.39 110.28,-168.49 10.71,-24.86 43.02,-106.39 42.37,-143.16zm-388.72 295.47c-190.97,106.63 -399.76,149.42 -617.33,141.1 -225.23,-8.62 -446.12,-79.24 -561.05,-289.2 -36.48,-66.66 -37.64,-139.95 -8.37,-209.52 28.47,-67.68 78.94,-118.28 142.24,-153.62 146.11,-81.59 328.67,-121.61 492.74,-144.52 220.13,-30.72 492.21,-20.27 613.53,201.36 42.05,76.83 74.34,165.39 65.92,254.54 -8.2,86.96 -51.73,157.43 -127.68,199.84zm-131.39 -889.51c3.97,-1.39 8.08,-2.56 12.32,-3.45 2.1,-0.45 4.2,-1.02 6.26,-1.64 12.18,-3.65 15.92,-7.07 19.19,-19.43 9.71,-36.8 -22.5,-154.8 -33.11,-190.84 -40,-136.04 -85.57,-270.48 -134.81,-403.37 -37.97,-102.45 -79.97,-212.34 -130.86,-309.03 -10.74,-20.4 -25.38,-34.23 -46.08,-44.21 -11.68,-5.63 -28.86,-12.24 -42.05,-8.28 -6.77,2.03 -26.38,8.77 -29.66,16.56 -4.92,11.65 0.51,27.78 4.97,38.58 13.25,32.08 9.54,66.01 -10.31,94.39 -19.87,28.39 -50.3,43.25 -84.67,41.34l-452.59 -25.16c-1.1,-0.06 -2.03,-0.13 -3.13,-0.23 -131.78,-11.65 -265.06,-29.54 -396.35,-46.02 -85.89,-10.78 -173.31,-20.92 -259.77,-25.46 -24.82,-1.3 -85.34,-4.76 -108.94,1.58 -10.3,3.09 -38.91,13.24 -45.19,23.47 -3.33,5.42 1.45,24.76 2.97,29.92 5.81,19.75 28.66,29.52 44.82,35.1 38.83,12.07 105.74,17.53 147.96,22.3 96.78,10.91 193.97,23.04 290.91,32.05 101.29,9.41 202.79,16.52 303.15,22.35 101.06,3.35 203.28,7.34 305.47,11.73 101.12,4.35 202.29,11.41 302.86,22.8 39.61,4.48 70.93,30.96 82.27,69.51 4.35,14.37 11.02,30.13 16.51,44.17 13.63,34.88 27.69,69.62 41.82,104.31 14.61,35.88 29.16,71.83 43.26,107.93 7.47,19.12 15.81,39.56 21.6,59.24 9.37,31.87 3.2,63.55 -17.45,89.44 -20.64,25.9 -49.98,38.76 -82.8,36.32 -263,-19.59 -525.93,-40.22 -788.95,-59.63 -122.7,-9.04 -246.32,-17.47 -369.32,-20.91 -36.57,-1.02 -118.23,-5.05 -152.4,2.66 -8.92,2.7 -12.92,7.59 -17.2,16.81 -6.97,15.04 -6.34,29.12 -1.68,44.92 16.1,54.75 44.46,122.17 95,153.41 27.49,16.99 53.58,19.04 83.29,10.19 5.72,-2.87 17,-14.04 22.2,-19.4 26.54,-27.37 58.22,-55.89 95.26,-67 32.89,-9.87 77,-11.69 111.29,-13.16 61.29,-2.63 123.11,-2.61 184.46,-2.14 148.67,1.16 297.32,4.73 445.89,10.2 135,4.96 269.96,11.07 404.94,16.6 36.12,1.48 66.37,21.13 82.72,53.71 6.66,13.29 17.72,32.73 29.54,42.19 2.22,1.79 4.36,3.65 6.39,5.58zm635.86 2847.01c-3.89,-64.56 37.98,-120.19 85.21,-161.8 77.04,-67.88 172.27,-123.83 262.87,-170.97 105.39,-54.84 210.73,-109.75 316.03,-164.75 77.15,-40.31 161.3,-89.01 227,-146.89 28.09,-24.75 66.54,-62.54 81.48,-97.85 7.94,-18.77 4.27,-31.29 -6.4,-45.51 -53.2,-18.54 -233.99,-8.96 -282.58,-5.91 -181.32,11.36 -366.02,34.72 -546.35,56.94 -75.5,9.31 -151.7,18.46 -227.55,24.38 -50.15,3.9 -111.45,12.15 -152.18,-23.65 -24.85,-16.6 -39.79,-41.88 -42.62,-72.33 -3.02,-32.44 8.53,-61.68 32.84,-83.1 3.04,-2.69 6.09,-5.38 9.13,-8.06 1.17,-1.02 2.19,-1.87 3.38,-2.84 108.53,-87.18 217.39,-173.94 326.66,-260.15 69.88,-55.15 142.77,-111.38 209.58,-170.25 28.77,-25.36 95.37,-85.8 111.03,-121.41 11.02,-25.05 -6.78,-48.26 -22.72,-66.72 -16.58,-19.19 -41.07,-28.15 -65.22,-32.8 -35.41,-6.82 -69.38,-0.78 -102.41,12.98 -87.23,36.34 -174.25,73.3 -261.24,110.2 -129.39,54.89 -260.76,104.95 -393.74,150.29 -130.24,44.41 -265.73,78.76 -402.48,94.5 -118.77,13.66 -260.01,14 -365.92,-49.84 -1.09,-0.66 -2.01,-1.24 -3.07,-1.93 -29.72,-19.47 -59.54,-38.8 -89.2,-58.39 -6.27,-4.15 -20.47,-12.9 -31.17,-17.09 -29.52,27.56 -55.82,59.33 -73.86,95.7 -1.53,3.08 -4.47,9.54 -5.73,14.36 27.32,31.37 60.89,65.21 96.62,86.21 46.93,27.58 107.49,39.66 160.88,45.23 45.48,4.75 114.96,-7.8 159.72,-16.18 103.94,-19.45 208.16,-46.88 310.02,-75.32 169.39,-47.3 337.9,-98.88 505.72,-151.58 46.34,-14.56 95.43,7.05 116.41,51.26 20.99,44.2 6.94,96.39 -33.31,123.78 -72.81,49.54 -144.21,110.98 -210.7,168.79 -82.84,72.02 -165.52,144.23 -247.89,216.8 -23.58,20.79 -65.13,59.32 -78.92,88.27 -8.76,18.37 -7.04,29.27 3.24,43.19 44.41,16.01 182.49,12.96 222.76,11.6 155.2,-5.29 314.69,-23.95 468.79,-42.88 114.36,-14.05 228.72,-28.22 343.07,-42.34 45.77,-5.65 88.09,20.87 103.39,64.79 15.31,43.92 -1.22,91.37 -40.39,115.92 -92.8,58.18 -189.92,111.56 -286.54,162.94 -69.23,36.81 -138.4,75.08 -204.92,116.71 -40.87,25.57 -84.7,54.26 -120.98,86.23 -8.52,7.51 -17.05,15.03 -25.58,22.54 -7.34,6.47 -14.41,13.34 -20.9,20.68 -2.82,3.18 -5.38,5.74 -8.56,8.53 -25.34,22.33 -47.28,49.88 -52.21,84.39 -3.11,21.85 -1.11,39.94 13.47,56.82 26.07,30.18 54.34,43.71 94.08,41.04 40.76,-2.74 75.08,-21.3 105.55,-48.14 8.5,-7.48 26.41,-23.73 36.42,-36.38zm1843.73 -266.93c-6.02,5.09 -11.8,10.21 -16.6,14.36 -37.08,32.11 -91.12,31.64 -127.66,-1.11 -18.4,-16.49 -36.84,-32.94 -55.34,-49.31 -15.83,-14 -32.88,-26.89 -50.14,-39.03 -68.17,-47.98 -142.91,-73.46 -225.96,-76.55 -158.43,-5.9 -333.21,58.91 -474.1,126.53 -133.77,64.2 -258.75,147.13 -362.56,254.44 -86.24,89.15 -168.72,208.35 -239.2,310.5 -38.44,55.74 -57.25,115.48 -52.4,183.38 3.82,53.4 21.46,96.14 65.55,127.16 116.65,82.09 268.83,107.17 408.1,110.21 201.95,4.42 396.96,-42.34 578.76,-130.87 225.92,-110.04 407.49,-274.31 550.77,-482 28.78,-41.71 27.55,-152.3 25.32,-200.35 -1.25,-27.09 -7.89,-114.64 -24.54,-147.35zm-219.66 438.42c-124.76,180.83 -293.41,312.32 -492.27,401.85 -205.88,92.68 -434.92,127.78 -629.81,-9.36 -62,-43.63 -94.95,-108.65 -99.1,-184.29 -4.02,-73.32 19.2,-141.39 60.49,-201.24 95.46,-138.35 241.79,-255.66 379,-349.36 183.79,-125.52 433.19,-237.37 638.51,-92.86 71.33,50.2 138.99,115.27 170.4,199.02 30.64,81.69 22.4,164.32 -27.22,236.23zm926.91 2117.51c-0.73,4.21 -0.88,8.73 1.28,12.25 6.71,10.93 25.67,21.79 38.75,28.17 30.83,-5.16 98.36,-63.98 117.84,-82.14 36.89,-34.36 73.67,-69.17 108.6,-104.28 35.14,-36.67 103,-108.33 124.27,-155.89 3.25,-7.27 19.86,-50.22 14.05,-58.17 -11.66,-14.49 -57.7,-36.83 -74.45,-44.46 -27.27,-12.44 -45.75,-34.28 -53.68,-63.43 -7.93,-29.14 -3.07,-57.46 14.09,-82.22 80.58,-116.32 175.39,-230.28 265.46,-339.27 104.47,-126.41 209.25,-252.55 314.32,-378.44 41.24,-49.42 82.44,-99.1 122.34,-149.63 14.01,-17.74 34.12,-41.65 46.53,-61.68 6.92,-16.17 18.18,-45.6 18.89,-63.17 -0.32,-0.15 -0.63,-0.29 -0.91,-0.42 -39.24,-17.89 -67.14,-6.74 -98.77,21.09 -18.14,17.36 -37.83,42.53 -54.17,61.91 -42.69,50.68 -84.69,102.04 -126.57,153.41 -68.68,84.26 -138.24,167.78 -208.41,250.77 -67.43,79.74 -134.73,159.78 -202.84,238.92 -72.79,84.56 -146.19,168.56 -219.57,252.59 -28.65,32.82 -73.33,42.53 -112.81,24.52l-437.57 -199.55c-28.91,-13.18 -48.13,-37.14 -54.91,-68.42 -6.78,-31.29 0.77,-61.17 21.58,-85.34 32.03,-37.21 66.53,-73.43 100.12,-109.22 63.91,-68.1 128.39,-135.69 192.94,-203.17 119.77,-125.19 238.64,-251.27 356.2,-378.57 40.72,-44.1 81.43,-88.62 120.44,-134.28 13.51,-15.83 35.74,-40.48 46.63,-58.63 6.31,-14.41 19.24,-46.68 21.29,-65.39 -33.76,-15.35 -64.63,-9.4 -97.12,7.12 -73.64,37.46 -190.54,176.47 -243.15,239.99 -1.36,1.65 -2.56,3.01 -4.03,4.57 -216.7,230.79 -433.37,461.59 -650.07,692.38 -28.97,30.85 -72.08,39.41 -110.45,21.91 -59.47,-27.12 -122.16,-49.89 -183.94,-70.97 -59.81,-20.4 -119.62,-40.81 -179.3,-61.57 -24.76,-8.61 -54.48,-17.66 -78.24,-28.49 -30.07,-13.71 -49.79,-39.26 -55.62,-72.06 -5.84,-32.8 3.85,-63.67 27.31,-87.11 43.08,-43.02 86.37,-85.81 129.39,-128.91 57.36,-57.48 111.87,-118.17 165.72,-179 88.7,-100.18 179.27,-198.63 269.2,-297.69 69.26,-76.31 138.61,-154.18 203.02,-234.74 23.36,-29.21 65.9,-81.19 81.13,-115.25 1.57,-3.49 -2.07,-12.84 -3.26,-15.75 -1.56,-3.8 -4.59,-10.75 -7.54,-15.39 -54.54,-15.16 -161.96,84.18 -195.62,117.45 -119.18,136.35 -237.47,273.47 -357.54,409.03 -94.95,107.18 -189.99,214.28 -284.78,321.61 -42.98,48.67 -87.37,97.59 -128.87,147.52 -26.23,31.58 -52.49,63.6 -77.07,96.52 -8.65,11.6 -23.33,30.51 -29.42,43.51 -1.47,3.28 -4.28,10.13 -5.5,15.41 16.69,13.16 54.69,30.93 74.31,39.91 156.35,54.9 312.45,110.57 468.31,166.91 146.64,53.01 292.52,110.21 434.49,174.97 109.41,49.9 217.77,102.24 324.59,157.55 85.52,44.28 171.17,89.89 253.97,139.16 25.78,15.33 41.82,39.06 46.59,68.89 4.77,29.82 -3.07,57.45 -22.76,80.18 -36.08,41.69 -71.31,84.13 -106.5,126.58 -14.61,17.61 -47.2,55.92 -58.16,77.9zm1604.61 -1598.1c-19.08,6.97 -54.3,40.39 -66.21,52.46 -53.14,53.89 -101.35,120.39 -143.32,181.68 -111.57,173.5 -223.56,348.4 -335.16,523.56 -1.06,1.67 -2,3.06 -3.16,4.66 -47.25,65.55 -94.51,131.1 -141.25,195.9 -25.95,37.43 -70.86,105.93 -79.84,152.42 -0.65,3.35 -1.7,9.3 -1.52,13.13 9.94,33.27 2.61,66.97 -20.35,93.15 -23.45,26.75 -56.6,38.09 -90.37,31.33 -3.77,0.39 -13.58,5.67 -17.5,7.98 -1.88,1.11 -4.67,2.81 -7.19,4.6 -1.57,48.68 52.61,97.78 85.17,124.06 86.19,69.61 186.24,111.43 294.14,132.7 198.9,39.22 388.86,19.26 567.18,-79.61 169.44,-93.94 273.47,-231.36 310.58,-423.42 15.56,-80.5 4.46,-154.11 -38.75,-223.78 -35.83,-57.78 -82.48,-101.89 -150.07,-115.21 -50,-9.86 -103.49,-15.75 -154.1,-21.91 -71.34,-8.68 -142.73,-19.13 -213.26,-33.04 -33.61,-6.63 -59.39,-28.36 -71.86,-60.57 -12.46,-32.21 -8.11,-65.83 12.13,-93.72 41.58,-57.29 83.64,-114.63 123.79,-172.95 43.28,-62.85 86.59,-127.11 125.38,-192.92 11.62,-19.73 38.19,-64.08 43.61,-85.69 0.05,-0.22 0.1,-0.5 0.16,-0.82 -8.19,-7.13 -17.83,-11.37 -28.24,-14zm-614.43 1112.08c11.38,-14.82 22.54,-32.06 32.9,-47.12 0.58,-0.83 1.06,-1.53 1.66,-2.33 70.29,-96.04 122.54,-213.5 163.19,-325.09 16.6,-45.54 62.6,-71.69 109.75,-62.4 32.9,6.48 65.75,14.2 98.38,21.96 28.6,6.8 57.5,13.76 86.34,19.44 10.61,2.09 21.4,3.7 32.11,5.22 12.98,1.85 26.02,3.35 39.08,4.43 19.7,1.63 39.32,4.65 58.7,8.47 83.14,16.38 151.83,61.09 191.5,137.64 38.46,74.23 40.43,158.8 24.83,239.51 -2.66,13.66 -6.83,27.44 -11.03,40.69 -2.66,8.39 -5.07,17 -6.74,25.65 -1,5.16 -2.18,9.49 -3.94,14.43 -32.8,92.05 -101.86,157.45 -186.82,201.28 -121.2,62.54 -258.63,65.14 -389.83,39.28 -60.45,-11.92 -128.43,-26.38 -185.67,-49.61 -48.97,-19.87 -93.87,-49.16 -134.57,-82.86 -28.53,-23.62 -40.94,-58.75 -33.63,-95.27 7.3,-36.53 32.22,-64.05 67.6,-74.64 10.31,-3.08 34.58,-11.08 46.18,-18.68zm3111.89 -882.82c-68.47,257.21 -137.94,514.17 -206.24,771.43 -31.85,120.01 -63.27,241.07 -89.74,362.44 -7.87,36.08 -27.14,116.33 -26.06,151.68 0.94,9.37 4.97,14.25 13.14,20.23 13.25,9.7 27.2,11.72 43.37,10.09 56.27,-5.69 127.14,-21.15 167.03,-65.42 21.69,-24.06 28.58,-49.58 25.55,-80.69 -1.72,-6.22 -10.46,-19.5 -14.7,-25.68 -21.62,-31.48 -43.41,-68.27 -47.25,-107.09 -3.39,-34.48 3.1,-78.57 8.12,-112.87 8.97,-61.3 20.59,-122.61 32.59,-183.37 29.06,-147.26 60.47,-294.07 93.7,-440.42 30.2,-133 61.5,-265.73 92.25,-398.59 8.23,-35.56 33.03,-61.89 67.78,-71.96 10.47,-3.03 43.35,-14.32 49.66,-24.6 3.17,-5.17 2.65,-15.86 2.1,-21.44 -1.27,-12.76 -3.9,-17.12 -15.3,-22.67 -33.98,-16.56 -154.76,-6.78 -191.81,-3.04 -139.82,14.14 -279.12,34.07 -417.61,57.96 -106.75,18.41 -221.5,39.43 -325.09,71.74 -21.85,6.82 -38.06,18.75 -51.65,37.39 -7.67,10.54 -17.32,26.33 -15.96,40.16 0.72,7.08 3.58,27.83 10.54,32.55 10.38,7.05 27.13,4.71 38.44,2.32 33.69,-7.12 65.98,2.93 89.86,27.98 23.88,25.03 32.61,58.01 24.29,91.74l-109.52 444.23c-0.27,1.08 -0.51,1.99 -0.8,3.06 -36.09,128.54 -78.54,257.4 -119.25,384.55 -26.62,83.18 -52.9,167.99 -73.56,252.9 -5.93,24.38 -20.66,83.77 -18.93,108.36 1.08,10.8 5.58,41.08 14.35,49.24 4.64,4.33 24.35,3.22 29.64,2.69 20.29,-2.05 34.09,-22.91 42.55,-37.88 19.03,-36.25 36.92,-101.62 49.48,-142.59 28.8,-93.95 58.86,-188.07 85.83,-282.55 28.18,-98.71 54.17,-198.06 78.7,-296.52 22.25,-99.63 45.33,-200.27 68.81,-300.83 23.23,-99.49 49.11,-198.52 79.09,-296.15 11.8,-38.46 43.46,-64.57 83.11,-68.56 14.78,-1.61 31.36,-5.27 46.05,-8.07 36.47,-6.96 72.88,-14.39 109.24,-21.89 37.65,-7.75 75.35,-15.44 113.1,-22.63 20,-3.82 41.47,-8.26 61.7,-10.3 32.74,-3.3 62.39,8.8 83.68,34.14 21.3,25.35 28.29,56.85 19.75,88.95zm412.6 -272.72c-9.05,163.61 -16.14,327.31 -22.24,491.05 -5.18,138.81 -8.2,280.26 -0.65,419.02 5.23,95.94 8.22,192.26 10.73,288.31 2.07,79.44 4.14,158.89 5.94,238.34 5.2,11.83 12.88,20.69 24.79,28.09 6.59,4.1 14.57,8.54 22.52,7.47 25.68,-10.8 68.91,-31.5 83.76,-52.22 10.65,-14.87 12.69,-32.97 11.62,-50.84l-58.07 -410.7c-4.84,-34.25 7.01,-65.99 33.06,-88.45 73.23,-63.19 146.19,-126.7 218.89,-190.51 1.27,-1.11 2.35,-2.02 3.67,-3.06 140.15,-111.34 267.34,-247.08 344.38,-411.21 23.77,-50.65 43.27,-104.56 53.19,-159.84 3.03,-16.88 10.16,-32 20.2,-44.46 -8.01,-13.54 -12.9,-29.21 -13.66,-46.05 -1.18,-26.65 -5.39,-52.97 -12.91,-78.57 -25,-84.95 -94.83,-135.07 -172.25,-168.45 -59.1,-25.49 -138.15,-49.97 -202.36,-30.7 -88.04,26.42 -177.47,95.44 -245.28,156.01 -22.36,19.98 -85.49,76.51 -105.34,106.78zm490.14 -105.08c61.79,33.81 96.9,95.26 116.35,161.36 26.02,88.44 -9.88,184.1 -51.42,261.52 -39.54,73.67 -90.66,143.6 -143.03,208.44 -0.42,0.52 -0.79,0.97 -1.23,1.48 -32.2,38.29 -67.33,73.95 -104.97,106.78 -36.4,31.75 -73.93,62.17 -112.4,91.32 -28.92,21.91 -64.67,26.01 -97.7,11.18 -33.04,-14.81 -54,-44.34 -57.3,-80.7 -4.07,-44.98 -5.99,-90.15 -5.87,-135.32 0.18,-62.73 4.23,-126.48 8.51,-189.05 4.04,-59.33 8.37,-124.32 19.85,-182.65 24.43,-124.01 92.43,-222.87 215.6,-259.81 68.98,-20.7 147.66,-30.62 213.62,5.46zm420.4 177.59c9.38,15.82 14.44,34.48 13.67,54.24 -4.9,127.54 6.4,256.22 40.53,379.37 33.27,120.03 94.16,251.79 146.45,364.55 28.55,61.52 70.35,107.84 130.98,137.59 47.68,23.4 93.16,29.34 141.81,6.32 128.74,-60.91 226.4,-181.45 298.71,-301.7 105.41,-175.29 162.27,-367.14 177.44,-571.57 18.68,-251.65 -31.67,-494.59 -137.54,-722.84 -21.34,-46.02 -116.77,-100.29 -159.07,-122.4 -23.84,-12.46 -102.21,-50.46 -138.58,-52.27 1.33,7.81 2.84,15.42 3.99,21.68 8.97,48.5 -18.47,95.52 -64.81,111.09 -23.36,7.85 -46.69,15.73 -69.99,23.73 -19.93,6.84 -39.5,15.28 -58.54,24.3 -75.24,35.59 -134.49,88.2 -178.69,159.27 -77.82,125.08 -110.53,291.65 -125.08,436.57 -1.99,19.8 -9.65,37.67 -21.26,52.07zm780.27 -417.24c92.58,199.58 120.88,412.87 98.12,631.56 -23.57,226.41 -108.11,444.27 -323.21,546.05 -68.29,32.31 -140.77,28.58 -207.54,-5.57 -64.94,-33.22 -111.56,-87.45 -142.25,-153.61 -70.82,-152.7 -98.16,-339.35 -109.81,-506.22 -15.64,-223.89 12.88,-497.38 239.96,-604.82 78.71,-37.24 168.35,-63.85 255.87,-49.4 85.35,14.09 152.05,62.64 188.88,142.02zm939.41 -1163.23c-13.13,6.63 -26.75,14.83 -34.49,19.69 -51.1,34.82 -102.2,69.66 -153.3,104.49 -171.87,117.16 -348.31,255.8 -482.8,416.28 -37.87,45.17 -79.72,99.22 -105.24,152.78 -3.04,6.38 -9.54,21.47 -13.49,35.15 3.94,-2.3 7.41,-4.53 9.56,-6 29.4,-20.05 64.42,-22.63 96.4,-7.12 31.97,15.51 51.86,44.74 54.75,80.45 4.4,54.57 11.8,108.9 22.58,162.58 10.42,51.93 23.65,103.29 39.83,153.71 44.25,137.9 86.42,276.83 129.39,415.17 36.77,118.42 73.66,236.87 111.6,354.91 12.68,39.47 26.2,87.61 41.78,127.44 4.63,2.17 12.18,3.97 15.3,4.58 8.71,1.71 15.39,1.34 22.36,-1.85 94.94,-99.58 190.72,-198.33 287.28,-296.31 86.65,-87.93 181.88,-176.45 283.88,-245.97 9.08,-6.19 17.68,-10.2 28.22,-13.17 6.82,-1.92 14.48,-5.5 20.88,-8.51 12.35,-5.84 24.76,-13.89 36.05,-21.59 14.36,-9.79 32.11,-24.6 37.18,-42.24 7.44,-25.84 -13.73,-62.51 -27.16,-82.61 -4.99,-7.47 -21.83,-30.23 -31.48,-33.9 -24.96,5.46 -85.13,45.61 -106.05,59.87 -19.58,13.35 -43.32,36.46 -60.98,52.58 -46.37,42.34 -91.83,85.9 -137.04,129.49 -46.58,44.91 -93.05,90.01 -138.71,135.86 -23.55,23.64 -48.54,48.3 -70.29,73.64 -24.16,28.15 -59.25,39.71 -95.19,31.35 -35.95,-8.36 -62.51,-34.26 -72.03,-70.24l-94.14 -355.39c-10.01,-37.75 1.84,-75.55 31.52,-100.61 85.52,-72.23 175.16,-148.95 252.97,-229.68 33.54,-34.8 176.51,-189.57 166.21,-264.56 -13.6,7.98 -26.84,16.72 -39.08,25.06 -24.22,16.51 -48.21,36.95 -70.56,55.93 -41.09,34.9 -81.26,71.1 -121.06,107.48 -38.76,35.42 -77.61,70.83 -117,105.52 -19.8,17.45 -42.42,38.33 -64.16,53.14 -26.14,17.82 -56.22,21.81 -86.04,11.41 -29.81,-10.4 -51.05,-32.29 -60.73,-62.62 -39.43,-123.54 -78.13,-247.32 -116.11,-371.33 -11.26,-36.83 -1.33,-74.48 26.58,-100.76 45.5,-42.81 90.98,-85.64 136.47,-128.46 0.47,-0.44 0.87,-0.82 1.36,-1.26 73.07,-66.23 150.01,-129.97 231.45,-185.49 58.43,-39.83 152.11,-106.31 193.02,-165.16 18.63,-26.79 26.32,-49.28 20.5,-73.74zm1019.95 -811.48c24.14,-33.24 46.29,-74.08 48.33,-116.07 0.61,-12.57 -1.44,-24.09 -6.45,-35.62 -17.72,-40.79 -6.86,-86.79 27.19,-115.11 8.57,-7.14 15.31,-15.88 20.8,-25.62 35.27,-62.71 64.28,-144.23 88.69,-211.96 24.64,-68.37 54.07,-148.72 68.02,-220.14 7.24,-37.1 32.74,-65.06 68.78,-75.38 36.01,-10.33 72.25,-0.07 97.71,27.65l201.81 219.72c132.84,139.85 263.13,285.41 393.34,428.93 49.89,55 100.72,110.24 153.63,162.3 16.62,16.35 50.66,50.84 70.56,62.26 24.91,14.28 48.88,14.69 76.13,6.51 23.5,-7.05 47.56,-18.48 60.13,-40.84 8.78,-15.6 7.32,-33.04 3.14,-49.94 -5.61,-22.74 -15.55,-41.56 -33.89,-56.13 -22.44,-17.82 -46.87,-36.49 -71.71,-51.11 -18.3,-8.68 -36.3,-18.03 -53.87,-28.11 -16.53,-9.48 -33.06,-18.96 -49.58,-28.44 -23.93,-13.73 -47.46,-29.5 -70.38,-44.89 -33.25,-22.32 -64.5,-47.48 -93.87,-74.79 -89.62,-83.37 -177.07,-169.36 -263.22,-256.38 -118.62,-119.79 -236.5,-240.35 -354.13,-361.13 -30.89,-31.72 -36.97,-78.55 -15.21,-117.24l89.83 -159.7c32.55,-57.88 88.4,-90.15 151.3,-104.1 4.82,-1.06 12.57,-2.85 19.31,-5.04 5.88,-24.25 -0.64,-58.02 -5.83,-78.38 -8.09,-31.66 -22.28,-65.72 -51.74,-82.63 -28.03,-16.08 -66.12,-32.68 -98.42,-19.75 -40.73,16.3 -72.59,61.32 -92.85,97.28 -11.78,23.92 -22.75,55.71 -32.79,81.78 -26.2,68.01 -51.58,136.4 -76.8,204.79 -58.78,159.4 -116.62,319.54 -176.86,478.36 -19.85,52.32 -38.99,105.03 -56.42,158.23 -0.34,1.03 -0.65,1.9 -1.01,2.92 -9.82,27.09 -18.01,55.76 -26.05,83.44 -3.15,10.86 -5.41,23.3 -3.84,34.64 5.54,39.64 -11.8,76.67 -45.65,97.49 -8.98,5.52 -17.37,13.17 -24.65,20.74 -35.18,37.72 -83.8,232.2 -95.95,283.43 -37.54,158.19 -66.15,321.38 -93.36,481.66 -12.61,74.28 -25.08,148.58 -37.58,222.88 -6.65,39.48 -10.64,97.72 -39.47,127.59 -22.61,23.43 -52.32,33.46 -84.34,28.48 -32.01,-4.97 -57.36,-23.58 -71.93,-52.8 -45.21,-90.59 -89.77,-181.53 -134.29,-272.47 -23.47,-47.95 -76.16,-155.91 -113.94,-193.04 -3.65,-3.6 -10.62,-3.93 -15.3,-4.03 -1.89,-0.04 -5.13,-0.04 -7.69,0.29 -25.6,33 -6.29,119.6 2.59,152.78 20.54,76.78 53.55,155.14 86.03,227.46 50.52,112.5 107.31,222.93 165.47,331.56 31.86,59.51 60.62,123.33 89.15,184.57 55.44,119.01 109.9,238.53 164.33,358.01 14.6,32.06 47.51,107.96 68.38,133.34 15.85,15.51 33.64,24.14 57.16,24.98 13.71,0.49 22.24,-1.24 30.71,-12.22 2.31,-3 4.41,-5.44 7.03,-8.16 27.04,-28.05 44.17,-60.4 52.6,-98.6 5.87,-26.55 4.18,-49.17 -11.48,-71.62 -0.46,-0.68 -0.9,-1.31 -1.31,-1.94 -1.16,-1.37 -2.47,-2.77 -3.8,-4.12 -18.68,-14.38 -37.12,-29.11 -55.11,-44.35 -16.39,-13.88 -32.54,-28.18 -47.86,-43.25 -28,-27.52 -50.59,-59.57 -66.46,-95.64 -0.51,-1.18 -0.94,-2.18 -1.41,-3.37 -19.43,-49.04 -37.38,-98.66 -53.75,-148.82 -14.53,-44.59 -28.03,-89.67 -41.75,-134.52 -6.94,-22.7 -5.95,-44.39 3.02,-66.35 9.23,-22.6 21.16,-50.03 27.49,-73.57 5.83,-21.73 10.29,-44.5 14.68,-66.57 5.4,-27.13 19.86,-48.49 42.96,-63.38 23.1,-14.89 48.37,-19.17 75,-12.69 108.73,26.44 217.46,52.89 326.24,79.13 41.27,9.96 84.26,21.5 125.78,29.82 82.46,16.52 171.27,32.08 255.41,35.06 19.67,0.7 77.33,1.02 97.43,-8.36 5.46,-5.11 11.2,-9.99 17.03,-14.67 24.64,-26.94 40.14,-57.21 43.97,-94.25 2.75,-26.75 -1.87,-47.16 -21.13,-66.09 -14.52,-14.27 -39.09,-36.74 -57.89,-44.15 -5.43,-0.85 -20.05,4.43 -25.25,6.59 -1.25,0.51 -2.31,0.92 -3.57,1.39 -93.11,34.24 -274.42,16.37 -372.14,6.46 -0.77,-0.08 -1.4,-0.15 -2.16,-0.25 -109.7,-13.64 -219.35,-27.77 -328.93,-42.39 -26.73,-3.57 -48.47,-16.35 -64.73,-38.07 -16.26,-21.72 -22.53,-46.32 -18.66,-73.28 16.62,-115.59 40.43,-230.51 67.5,-344.03 21.48,-90.07 60.55,-252.61 117.81,-327zm998.68 -1934.52c-87.45,10.35 -188.01,25.54 -270.82,56.3 -15.86,5.89 -70.8,29.13 -78.56,45.99 -8.49,27.12 -10.45,53 4.55,78.11 17.59,29.45 46.26,45.63 77.99,55.78 42.09,13.44 83.11,15.04 124.41,-1.42 44.6,-17.78 89.55,-40.65 132.48,-62.24 5.67,-2.85 10.73,-4.84 16.81,-6.57 106.78,-30.56 222.54,-49.11 332.29,-65 59.17,-8.56 118.36,-17.25 177.4,-26.71 23.95,-3.85 51.79,-7.45 75.22,-13.36 36.67,-9.26 72.94,2.47 97.47,31.53 43.65,51.72 87.53,103.24 131.53,154.66 2.51,2.92 4.51,5.54 6.67,8.73 44.13,65.12 57.26,146.93 57.9,224.36 0,0.67 0,1.24 -0.01,1.9 -0.42,39.69 -1.62,79.36 -3.6,119 -0.11,12.31 0.5,38.82 4.41,54.45 43.02,11.06 88.32,10.79 132.08,4.25 9.69,-1.45 34.84,-6.22 45.84,-12.61 12.07,-39.58 22.42,-84.7 21.8,-125.86 -0.82,-54.46 -19.45,-109.46 -42.56,-158.1 -28.68,-60.39 -68.2,-116.76 -110.79,-167.9 -34.73,-41.71 -74.46,-82.13 -112.42,-120.85 -69.33,-70.7 -140.41,-139.85 -211.89,-208.32 -108.95,-104.35 -219.6,-206.87 -329.34,-310.38 -85.47,-80.63 -172.16,-161.94 -261.53,-238.15 -24.62,-20.99 -92.44,-79.07 -127.01,-96.1 -3.53,1.83 -7.46,4.47 -9.69,6.05 -11.45,8.05 -21,17.5 -26.3,30.31 3.82,20.29 32.02,61.5 42.27,75.46 45.1,61.43 103.18,119.85 158.28,172.27 112.39,96.99 224.58,194.22 336.57,291.69 29.94,26.05 41.07,65.27 29.35,103.4 -11.72,38.12 -42.9,64.08 -82.2,68.42 -112.38,12.42 -225.92,21.42 -338.61,30.9z"/>
    <path class="fil4" d="M10768.17 12523.14c326.72,-155.9 644.03,-342.69 945.6,-560.47 2730.76,-1972.02 3345.85,-5784.43 1373.82,-8515.2 -1972.03,-2730.79 -5784.43,-3345.86 -8515.2,-1373.82 -2730.78,1972.03 -3345.84,5784.43 -1373.82,8515.2 485.97,672.96 1092.58,1220.14 1765.11,1631.14 510.9,312.23 1317.82,983.7 1306.18,172.53 -3.57,-249.27 -14.09,-446.13 -33.38,-573.44 -64.91,-428.27 -332.84,-696.72 -511.53,-1082.47 -481.63,-1039.76 -37.01,-1152.76 -944,-2358.04 -661.65,-861.14 -2548.24,-2246.9 -2016.61,-2642.03 296.94,-139.4 676.88,223.58 1101.09,543.54 333.12,251.27 1431.14,1181.77 1849.8,963.48 204.41,-185.15 -709.82,-2364.06 -822.73,-2648.79 -149.11,-375.99 -326.27,-761.66 -445.75,-1054.31 -344.26,-843.26 268.52,-779.71 665.53,-293.66 337.54,413.27 635.17,1083.85 763.29,1327.33 154.72,294.02 886.08,2014.27 1182.13,1860.25 94.84,-77.77 113.17,-44.53 3.58,-524.14 -44.08,-192.95 -71.15,-365.15 -114.51,-557.77 -116.71,-518.66 -385.89,-1387.74 -542.56,-2111.63 -275.26,-1271.8 64.44,-2157.15 761.75,-723.05 189.79,390.35 289.45,997.67 429.82,1439.03 46.61,146.59 89.72,298.04 131.04,449.85 101.8,373.91 192.85,749.88 299.21,1059.94 385.64,1124.19 689.62,788.76 790.65,-183.63 80.5,-774.77 58.28,-1837.97 104.57,-2543.99 74.41,-1134.64 637.39,-1418.72 807.43,-396.09 68.17,410.01 -30.27,1427.71 -8.64,1824.89 37.78,693.83 27.55,977.64 95.7,1582.47 37.54,333.14 262.17,692.16 -137.33,1095.04 -156.91,158.22 -457.8,143.25 -783.87,192.32 -484.22,72.86 -1037.5,152.41 -1366.61,60.62l-521.93 -204.65c-427.76,4.7 -199.11,457.28 201.66,581.56 313.4,97.17 480.34,142.93 777.94,266.97 708.54,295.32 967.91,-74.27 1415.05,-266.2 213.98,-91.8 291.23,-36.41 154.56,84.59 -142.29,126.01 -350.16,224.27 -361.03,326.61 -19.51,183.54 68.8,166.42 195.17,154.63 147.76,-13.79 436.84,-87.4 616.86,-87.64 146.65,-0.17 387.67,65.72 72.52,173.11 -66.24,22.57 -138.23,23.58 -286.72,49.06 -52.83,9.06 -567.62,112.28 -258.77,172.65 178.73,34.92 286.65,23.95 497.51,22.75 388.29,-2.24 629.85,141.59 128.6,185.81l-510.44 45.02c-213.05,18.79 -152.67,90.88 7.01,154.11 131.86,52.2 313.96,51.75 475.59,117.63 405.99,165.47 66.32,184.46 -170.08,143.71 -432.55,-74.55 -1027.56,-267.51 -923.88,79.31 29.94,100.14 184.01,231.36 228.93,345.69 108.75,276.75 72.21,454.71 -330.11,-146l-490.76 -480.22c-311.42,-369.88 -523.56,-412.28 -891.02,-161.12 -231.29,158.11 -524.17,432.55 -942.1,814.9 -121.59,111.24 -348.5,287.71 -489.92,499.47 -281.61,421.73 -88.91,549.47 324.92,292.43 99.8,-61.97 204.59,-140.35 317.25,-224.55 151.78,-113.45 317.9,-237.54 505.51,-346.52 456.2,-264.95 746.15,-373.19 326.6,221.38 -180.37,255.59 -433.63,533.64 -628.46,811.27 -517.79,737.83 -193.26,1133.18 239.62,558.98 88.85,-117.85 191.77,-271.61 335.22,-451.05 139.32,-174.27 337.65,-454.93 541.76,-648.78 334.83,-317.98 348.65,-204 196.11,160.74 -237.73,568.46 -781.4,1304.72 -574.43,1607.17 314.23,204.94 563.42,-448.6 710.18,-736.27 164.27,-322.06 286.76,-614.52 444.79,-772.77 232.13,-232.43 314.69,-136.36 338.82,129.77 23.73,261.68 -8.11,561.08 -5.19,839.34 8.39,798.29 405.67,523.15 476.05,-31.21 47.16,-371.41 26.62,-877.02 184.33,-1305.04 87.24,-236.79 339.75,-461.21 498.32,-667.14 593.96,-771.31 -136.71,-148.61 1202.57,-1101.52 581.12,-413.47 967.2,-1016.68 1600.9,-965.37 535.13,43.33 990.76,488.41 312.62,839.96 -471.9,244.61 -812.54,92.88 -1711.55,1649.49 -681.06,1179.26 -1578.82,1539.15 -1935.27,2115.6 -57.26,92.61 -102.57,231.74 -137.72,408.26 -193.31,971.13 443.03,474.13 1082.63,168.97z"/>
    <g>
     <path class="fil4" d="M7741.91 11915.25c143.85,85.03 266.67,-65.87 342.3,-175.43 117.69,-170.49 195.26,-363.62 288.95,-547.29 75.98,-148.94 146.59,-301.07 225.14,-448.58 61.73,-115.93 135.35,-243.15 228.63,-336.56 69.26,-69.35 198.22,-188.02 305.28,-130.66 90.14,48.31 108.88,200 117.1,290.65 25.24,278.36 -7.94,563.64 -4.99,843.25 1.18,112.71 10.58,285.56 62.7,388.17 17.3,34.07 43.92,72.74 86.79,57.71 55.19,-19.36 105.73,-99.22 131.06,-148.12 52.61,-101.59 83.44,-221.62 97.79,-334.64 26.37,-207.75 31.61,-420.54 50.52,-629.53 20.94,-231.49 55.77,-467.32 136.44,-686.3 92.84,-251.96 342.52,-468.46 505.48,-680.11 86.05,-111.74 177.59,-233.54 246.09,-357.32 24.58,-44.43 43.46,-93.13 79.64,-129.84 22.08,-22.41 49.21,-42.16 74.75,-60.42 47.31,-33.81 95.92,-66.26 144.03,-98.93 224.67,-152.57 447.21,-307.59 668.5,-465.05 279.02,-198.52 511.76,-444.72 778.77,-655.51 253.8,-200.34 521.52,-345.74 854.53,-318.79 227.17,18.39 526.11,121.87 649.42,328.12 58.31,97.53 65.7,205.32 15.91,308.57 -64.01,132.73 -207.26,229.94 -334.11,295.69 -112.19,58.16 -227.71,97.79 -344.6,144.09 -125.43,49.68 -235.2,104.84 -344.67,184.73 -161.61,117.96 -302.11,271.6 -426.12,427.61 -215.1,270.6 -403.61,575.1 -576.25,874.04 -156.18,270.41 -337.91,521.76 -545.41,755.06 -172.45,193.9 -358.94,370.61 -554.16,541.19 -161.92,141.49 -329.78,277.56 -487.99,423 -128.68,118.29 -256.12,248.25 -348.46,397.61 -67.51,109.17 -106.48,267.22 -131.33,392.03 -22.55,113.28 -60.93,338.45 -6.55,447.56 35.59,71.4 108.23,71.14 178.22,57.79 121.57,-23.2 264.23,-94.88 374.49,-150.78 156.13,-79.17 309.17,-164.01 467.25,-239.44 328.52,-156.74 642.9,-342.85 938,-555.96 2708.65,-1956.05 3318.83,-5738.06 1362.76,-8446.72 -1956.06,-2708.67 -5738.05,-3318.85 -8446.72,-1362.76 -2708.66,1956.06 -3318.83,5738.06 -1362.76,8446.72 469.86,650.64 1066.31,1199.62 1750.91,1618 142.85,87.29 281,183.06 422.11,273.27 130.93,83.72 275.09,172.87 419.55,230.57 287.97,115.02 394.34,21.02 389.91,-288.75 -1.58,-110.1 -4.46,-220.43 -10.72,-330.37 -4.47,-78.5 -10.33,-158.65 -22.12,-236.42 -62.18,-410.31 -338.44,-704.16 -507.53,-1069.2 -97.28,-210.03 -174.64,-422.05 -225.76,-647.93 -36.2,-159.89 -56.41,-321.17 -88.42,-481.46 -35.4,-177.26 -87.02,-335.59 -165.04,-499.04 -121.33,-254.2 -289.48,-496.82 -459.34,-720.57 -90.5,-119.24 -191.5,-232.54 -293.72,-341.81 -119.7,-127.94 -243.65,-252.15 -368.49,-375.06 -262.52,-258.51 -531.1,-511.53 -787.8,-775.82 -114.87,-118.28 -228.16,-239.44 -333.86,-366.03 -85.98,-102.96 -171.48,-214.07 -237.84,-330.86 -94.53,-166.4 -168.13,-385.42 14.91,-521.46l1.97 -1.46 4.22 -2.53 2.23 -1.04c186,-87.32 387.99,3.36 549.27,102.07 101.78,62.3 198.77,134.76 293.31,207.48 103.24,79.4 204.9,160.8 308.89,239.23 124.72,94.08 246.53,192.6 370.89,287.39 168.52,128.45 340.6,253.76 518.91,368.32 185.53,119.2 668.29,416.43 900.36,307.11 13.44,-21.2 10.51,-93.14 9.14,-111.93 -6.89,-94.81 -30.03,-196.2 -53.06,-288.31 -69.78,-278.91 -167.18,-559.9 -264.51,-830.4 -102.9,-286.01 -212.45,-569.85 -324.85,-852.25 -67.52,-169.66 -137.67,-338.35 -204.95,-508.01 -140.76,-354.95 -301.4,-700.74 -445.57,-1053.85 -58.18,-142.51 -122.86,-339.49 -100.21,-495.57 16.12,-111.09 78.11,-196.13 191.71,-216.57 108.8,-19.59 230.48,26.67 323.72,79.5 127.02,71.96 241.66,176.72 333.7,289.41 179.71,220.02 332.23,484.36 465.52,735.36 61.29,115.42 120,232.12 177.91,349.26 41.34,83.63 81.86,168.36 125.29,250.89 29.64,56.32 56.81,114.99 84.01,172.54 41.83,88.51 83.3,177.18 125.25,265.64 105.22,221.88 212.9,443.08 328.65,659.68 102.06,190.96 218.31,399.98 351.62,570.7 29.7,38.03 158.69,198.06 223.12,172.58 14.59,-11.4 34.21,-25.06 45.07,-37.53 8.53,-9.8 9.89,-21.39 10.45,-34.09 1.76,-39.27 -7.9,-89.77 -15.08,-128.29 -16.89,-90.69 -38.06,-181.43 -58.6,-271.36 -42.32,-185.18 -72.86,-372.65 -114.55,-557.93 -73.53,-326.78 -167.72,-653.4 -255.77,-976.73 -102.43,-376.12 -204.41,-754.25 -286.88,-1135.29 -60.29,-278.56 -101.07,-576.9 -96.26,-862.39 2.8,-165.78 23.51,-411.19 119.9,-551.94 98.52,-143.87 238.9,-127.3 364.47,-28.53 189.77,149.25 362.04,474.8 465.7,687.98 106.51,219.07 175.88,474.01 236.82,709.55 63.36,244.87 119.01,495.13 195.63,736.07 47.54,149.49 90.43,300.48 131.62,451.83 95.62,351.22 180.25,712.84 298.27,1056.91 61.12,178.18 150.24,417.26 264.75,568.64 33.8,44.69 104.21,128.51 169.89,97.36 73.82,-35.01 127.89,-180.34 151.02,-251.81 59.63,-184.32 89.84,-394.72 109.81,-586.98 44.4,-427.36 55.05,-864.31 64.86,-1293.83 9.48,-415 12.4,-834.2 39.55,-1248.29 15.15,-230.98 52.88,-482.02 136.84,-698.87 48.4,-125.01 132.34,-286.43 258.15,-348.87 122.05,-60.57 233.54,-5.41 312.57,95.54 112.12,143.2 167.97,375.5 197.19,551.29 21.87,131.5 24.46,276.85 25.03,410.08 0.76,172.27 -4.79,344.93 -11.27,517.06 -6.44,170.79 -14.4,341.53 -19.95,512.34 -4.18,128.58 -8.85,262.35 -1.85,390.78 14.97,275.06 23.88,549.95 36.48,825.04 11.59,253.11 30.6,502.76 58.99,754.61 9.45,83.87 30.59,167.28 49.6,249.42 20.97,90.58 40.26,181.44 45.85,274.5 14.77,246.12 -74.6,437.6 -246.69,611.14 -93.62,94.42 -228.08,130.15 -355.41,150.96 -150.72,24.64 -304.54,32.53 -455.99,55.32 -247.01,37.17 -495.99,74.28 -745.19,92.48 -201.57,14.71 -446.03,21.52 -641.89,-33.11l-1.21 -0.33 -2.36 -0.79 -514.01 -201.54c-119.21,3.31 -210.87,45.44 -155.77,177.87 60.56,145.54 235.23,262.49 380.77,307.61 131.96,40.92 264.63,80.29 395.78,123.7 131.07,43.38 259.06,91.73 386.5,144.85 257.66,107.4 502.99,150.14 769.27,49.03 102.32,-38.86 197.77,-93.51 292.19,-148.29 103.29,-59.95 205.37,-119.52 315.37,-166.74 63.1,-27.07 187.78,-74.1 253.47,-34.43 38.4,23.19 45.81,66.05 29.32,105.74 -14.95,35.98 -47.6,69.6 -76.37,95.08 -73.03,64.68 -155.05,116.57 -232.96,174.76 -29.38,21.94 -107.6,80.69 -111.81,120.32 -2.12,19.96 -9.07,89.33 15.52,101.26 24.81,12.04 98.58,1.95 126.32,-0.64 95.78,-8.95 197.2,-31.44 292.3,-48.36 105.42,-18.77 222.04,-39.37 329.07,-39.49 69.38,-0.09 183.99,14.16 239.23,56.26 43.83,33.41 49.46,85.37 11.81,126.59 -36.67,40.15 -112.31,68.58 -162.64,85.74 -39.4,13.42 -80.47,19.85 -121.55,25.58 -57.78,8.07 -115.14,15.51 -172.69,25.39 -43.03,7.38 -197.53,41.05 -277.23,71.97 8.11,1.88 15.26,3.35 19.57,4.2 169.41,33.11 316.79,22.82 487.82,21.84 106.53,-0.61 347.07,13.36 430.78,87.9 58.02,51.68 27.15,114.06 -35.04,143.33 -70.74,33.3 -185.36,45.67 -262.56,52.48l-510.44 45.02c-13.27,1.17 -50.2,5.21 -75.82,11.83 28.68,19.31 79.29,40.97 96.59,47.81 67,26.53 146.28,38.38 217.18,51 88.1,15.7 175.62,32.88 258.87,66.81 56.21,22.91 155.34,64.67 196.2,110.95 47.59,53.9 18.05,110.59 -43.94,130.39 -88.56,28.26 -255.25,12.32 -349.19,-3.87 -114.74,-19.78 -228.63,-45.1 -342.77,-68.08 -103.08,-20.76 -210.7,-41.86 -315.59,-49.71 -52.37,-3.91 -145.17,-7.29 -191.69,21.35 -40.05,24.65 -30.02,74.86 -18.5,113.37 14.04,46.96 69.21,112.41 100.09,150.86 45.58,56.75 100.78,122.97 127.5,190.94 23.08,58.75 46.32,127.63 53.91,190.47 6.42,53.18 -0.9,126.47 -68.72,132.38 -59.15,5.15 -124.22,-63.11 -160.48,-102.58 -87.02,-94.73 -166.73,-209.89 -238.41,-316.82l-487.98 -477.51 -1.61 -1.73 -0.77 -0.91c-98,-116.39 -238.82,-267.83 -395.87,-296.81 -152.67,-28.16 -308.94,61.88 -429.94,144.59 -138.52,94.68 -270.56,208.73 -396.3,319.65 -182.39,160.89 -360.92,326.77 -540.38,490.95 -78.18,71.52 -159.69,138.66 -236.98,211.54 -89.27,84.18 -176.92,176.65 -245.25,278.99 -46.15,69.11 -100.79,161.27 -119.16,243.23 -5.65,25.22 -12.75,72.96 10.95,92.19 26.69,21.67 85.89,11.47 115.73,4.17 85.62,-20.94 176.35,-69.87 250.74,-116.07 108.3,-67.27 211.66,-145.87 313.75,-222.18 165.79,-123.93 330.93,-245.5 510.25,-349.65 104.53,-60.71 403.43,-239.8 525.19,-217.45 90.51,16.61 87.07,105.66 62.37,175.02 -39.04,109.63 -129.41,239.78 -196.25,334.5 -196.96,279.13 -431.72,530.91 -628.38,811.16 -96.27,137.18 -190.65,301.07 -234.68,463.98 -18.84,69.76 -39.33,187.75 0.06,254.39 27.94,47.26 77.42,43.16 123.53,25.35 103.54,-40.01 206.44,-156.28 271.39,-242.44 50,-66.31 97.86,-134.42 146.59,-201.68 61.46,-84.84 124.06,-168.63 189.49,-250.47 177.21,-221.68 339.6,-457.43 546.29,-653.73 59.62,-56.62 131.24,-123.31 201.4,-166.52 45.11,-27.78 112.2,-55.63 152.16,-3.35 31.34,41.01 16.52,109.2 4.56,154.89 -20.25,77.35 -52.17,156.5 -82.99,230.21 -129.75,310.26 -309.98,601.66 -454.96,905.53 -70.65,148.08 -228.58,483.34 -129.48,646.88z"/>
     <path class="fil5" d="M7778.04 11879.23c35.24,17.79 67.37,17.27 105.66,-2.99 62.45,-33.03 120.72,-107.18 160.14,-164.29 116.41,-168.64 192.95,-360.03 285.63,-541.71 76.11,-149.2 146.85,-301.58 225.53,-449.34 64.24,-120.64 140.16,-250.97 237.23,-348.17 88.11,-88.23 230.51,-210.32 363.16,-139.22 109.57,58.72 132.68,218.11 142.77,329.45 25.42,280.23 -7.75,565.91 -4.8,847.17 1.06,100.37 7.75,221.85 38.23,318.23 5.21,16.44 26.18,72.57 44.08,82.58 30.37,-4.29 81.97,-82.51 94.73,-104.96 56.78,-99.93 89.21,-225.08 103.6,-338.38 26.29,-207.1 31.47,-419.41 50.32,-627.77 21.35,-235.99 57.02,-475.61 139.28,-698.83 96.74,-262.58 344.08,-474.18 512.65,-693.07 84.47,-109.69 174.79,-229.63 242.02,-351.15 28.05,-50.69 46.13,-98.41 87.62,-140.52 24.19,-24.54 53.18,-45.89 81.17,-65.89 47.63,-34.04 96.56,-66.72 144.99,-99.61 224.38,-152.36 446.63,-307.18 667.63,-464.43 278.01,-197.8 510.55,-443.85 776.81,-654.04 264.05,-208.45 542.7,-357.21 888.88,-329.17 244.04,19.76 555.49,130.91 687.56,351.83 66.76,111.66 74.96,236.92 17.99,355.04 -69.13,143.37 -218.41,246.77 -355.71,317.94 -113.84,59.02 -230.55,99.2 -349.11,146.14 -121.53,48.14 -227.73,101.33 -333.81,178.75 -157.94,115.26 -295.47,266.08 -416.65,418.51 -213.56,268.67 -400.77,571.26 -572.17,868.05 -157.84,273.3 -341.53,527.35 -551.24,763.14 -173.83,195.44 -361.76,373.58 -558.53,545.53 -161.61,141.21 -329.17,277.03 -487.08,422.18 -125.18,115.08 -250.1,242 -339.94,387.29 -63.96,103.44 -101.4,257.6 -124.94,375.82 -19.58,98.32 -58.12,321.07 -10.76,416.11 23.94,48.01 79.96,40.1 125.13,31.48 116.11,-22.15 256.16,-92.93 361.5,-146.35 156.48,-79.35 309.86,-164.35 468.31,-239.95 325.85,-155.47 637.69,-340.08 930.4,-551.46 2686.71,-1940.21 3291.94,-5691.53 1351.73,-8378.24 -1940.22,-2686.73 -5691.52,-3291.95 -8378.24,-1351.73 -2686.72,1940.22 -3291.94,5691.53 -1351.73,8378.24 466.05,645.37 1057.68,1189.88 1736.74,1604.87 143.13,87.47 281.56,183.41 422.95,273.81 128.14,81.92 269.95,169.87 411.32,226.34 61.2,24.45 181.61,65.69 245.23,29.8 73.99,-41.72 78.46,-201.37 77.44,-272.31 -1.57,-109.4 -4.42,-219.03 -10.64,-328.27 -4.38,-76.96 -10.08,-155.63 -21.64,-231.86 -29.17,-192.5 -104.9,-356.18 -201.08,-522.86 -102.83,-178.21 -215.52,-345.38 -302.47,-533.09 -98.74,-213.17 -177.2,-428.46 -229.1,-657.71 -36.3,-160.35 -56.58,-321.96 -88.68,-482.69 -34.61,-173.28 -84.93,-327.73 -161.2,-487.52 -119.84,-251.07 -286.38,-491.03 -454.14,-712.04 -89.48,-117.88 -189.41,-229.93 -290.48,-337.95 -119.25,-127.45 -242.73,-251.18 -367.09,-373.63 -262.78,-258.76 -531.62,-512.03 -788.57,-776.59 -115.73,-119.16 -229.83,-241.23 -336.33,-368.76 -87.9,-105.28 -175,-218.66 -242.83,-338.07 -108.02,-190.17 -177.49,-432.11 28.3,-585.06l3.94 -2.93 8.44 -5.04 4.45 -2.09c203.24,-95.41 418.51,-3.82 595.71,104.64 103.3,63.22 201.67,136.63 297.61,210.42 103.12,79.31 204.66,160.61 308.52,238.95 124.78,94.12 246.66,192.7 371.08,287.54 167.47,127.65 338.49,252.22 515.7,366.07 160.05,102.84 617.67,384.54 833.78,311.72 5.08,-33.4 -1.85,-98.23 -4.85,-121.03 -13.02,-99.21 -38.02,-200.82 -63.9,-297.4 -73.58,-274.5 -169.28,-548.74 -266.32,-815.81 -99.58,-274.05 -204.93,-546.17 -312.94,-817.02 -64.55,-161.89 -131.52,-322.94 -195.74,-484.89 -140.7,-354.79 -301.29,-700.43 -445.38,-1053.39 -62.04,-151.95 -127.46,-354.94 -103.35,-521.15 19.19,-132.2 97.03,-233.58 231.57,-257.8 121.07,-21.8 252.56,26.16 356.59,85.1 132.34,74.99 251.59,183.62 347.51,301.05 181.85,222.65 335.98,489.41 470.85,743.39 61.51,115.84 120.44,232.96 178.56,350.53 41.16,83.25 81.49,167.63 124.73,249.78 28.22,53.64 54.16,109.36 80.09,164.15 39.17,82.78 77.96,165.74 117.13,248.53 99.12,209.46 200.22,418.23 307.97,623.4 100.09,190.59 209.45,389.92 334.78,565.05 41.79,58.39 90.28,121.49 143.49,169.94 11.42,10.39 47.43,40.55 67.03,45.75 9.32,-7.01 19.28,-14.68 24.91,-20.44 9.24,-52.26 -61.24,-345.12 -72.12,-392.72 -42.32,-185.24 -72.88,-372.76 -114.58,-558.09 -73.38,-326.05 -167.39,-651.99 -255.25,-974.61 -102.66,-376.95 -204.84,-755.91 -287.49,-1137.8 -61.09,-282.27 -102.24,-584.29 -97.36,-873.58 2.99,-177.33 25.5,-428.46 128.47,-578.83 114.98,-167.89 286.98,-156 435.27,-39.37 197.11,155.03 371.76,483.54 479.48,705.08 108.07,222.27 178.38,479.77 240.2,718.71 63.13,243.98 118.55,493.46 194.89,733.49 47.74,150.15 90.82,301.81 132.21,453.82 50.2,184.41 97.77,369.53 147.9,553.95 45.55,167.59 93.07,335.62 149.44,499.92 59.14,172.41 146.65,408.47 257.47,554.97 14.5,19.17 77.15,98.09 109.77,82.63 55.84,-26.48 108,-168.95 125.36,-222.58 58.53,-180.92 88.09,-388.27 107.7,-576.95 44.26,-426.03 54.84,-861.71 64.61,-1289.89 9.5,-415.71 12.45,-835.58 39.64,-1250.38 15.49,-236.14 54.23,-491.71 140.05,-713.37 53.46,-138.11 143.56,-306.35 282.08,-375.1 143.36,-71.15 279.31,-10.43 372.99,109.24 117.98,150.7 176.17,388.32 206.97,573.48 22.32,134.23 25.1,281.92 25.69,417.91 0.76,172.95 -4.8,346.3 -11.3,519.12 -6.44,170.7 -14.4,341.37 -19.94,512.09 -4.13,127.12 -8.83,259.55 -1.91,386.52 14.99,275.21 23.9,550.23 36.5,825.46 11.55,252.03 30.47,500.59 58.73,751.36 9.22,81.84 30.09,163.67 48.65,243.85 21.62,93.37 41.26,186.7 47.03,282.63 15.62,260.17 -78.85,465.11 -260.82,648.62 -101.8,102.65 -243.68,142.17 -382.32,164.83 -150.99,24.69 -304.95,32.6 -456.61,55.42 -248.27,37.36 -498.44,74.59 -748.92,92.89 -207.9,15.18 -456.62,21.56 -658.64,-34.79l-2.39 -0.67 -4.74 -1.58 -505.41 -198.18c-35.75,2.03 -91.2,9.64 -108.77,34.02 -13.59,18.85 -1.27,57.02 6.44,75.52 54.71,131.49 218.92,238.96 350.01,279.62 132.25,41 265.22,80.47 396.67,123.97 132.23,43.77 261.38,92.55 389.96,146.14 245.68,102.4 478.94,144.92 732.99,48.45 99.67,-37.86 193.02,-91.5 284.98,-144.87 105.07,-60.97 208.75,-121.36 320.65,-169.37 81.79,-35.11 214.22,-82.05 298.17,-31.35 59.28,35.8 75.12,104.31 49.26,166.54 -18.11,43.58 -54.24,82.07 -89.15,112.99 -70.54,62.47 -149.04,113.35 -224.77,168.92 -20.9,15.34 -96.31,71.77 -103.91,95.58 -0.97,9.72 -3.03,35.16 -1.36,51.91 25.43,1.16 74.12,-4.8 90.05,-6.29 94.29,-8.8 194.61,-31.15 288.26,-47.81 108.47,-19.31 227.46,-40.11 337.6,-40.25 81.6,-0.1 203.82,16.59 269.02,66.29 66.67,50.82 75.39,136.17 18.3,198.69 -43.67,47.81 -122.97,78.61 -183.04,99.08 -42.52,14.49 -86.27,21.56 -130.6,27.74 -57.27,7.99 -114.13,15.36 -171.18,25.15 -4.16,0.72 -9.09,1.62 -14.69,2.69 76.86,1.18 153.99,-1.6 236.29,-2.07 122.45,-0.7 367.57,14.74 463.68,100.32 38.91,34.65 57.34,85.04 40.56,135.64 -14.08,42.48 -48.17,70.27 -87.33,88.7 -77.15,36.32 -194.91,49.53 -279.14,56.96l-394.09 34.76c42.18,9.74 85.86,16.64 125.89,23.77 91.71,16.34 182.1,34.34 268.78,69.68 65.6,26.73 166.82,69.95 214.46,123.91 34.61,39.2 47.28,91.5 23.21,139.7 -18.15,36.33 -51.42,57.88 -89,69.87 -97.64,31.16 -269.46,15.49 -372.44,-2.26 -182.97,-31.54 -364.12,-78.03 -547.66,-105 -64.72,-9.52 -139.33,-18.55 -204.68,-13.15 -12.11,1.01 -59,7.03 -67.23,17.83 -5.36,9.63 3.55,45.54 6.34,54.87 11.22,37.53 66.35,103.07 91.35,134.2 49.35,61.46 105.92,129.95 134.89,203.72 24.7,62.84 48.84,135.32 56.96,202.53 3.77,31.22 4.21,64.19 -4.67,94.62 -14.81,50.78 -54.95,87.83 -108.49,92.5 -79.62,6.94 -151.39,-64.41 -200.86,-118.26 -87.64,-95.41 -167.8,-210.6 -240.2,-318.48l-485.21 -474.8 -3.22 -3.47 -1.53 -1.8c-88.83,-105.5 -224.39,-253.82 -367.26,-280.17 -137.18,-25.31 -285.18,62.9 -393.36,136.86 -136.8,93.51 -267.34,206.4 -391.53,315.93 -182.17,160.69 -360.48,326.38 -539.71,490.36 -167.3,153.06 -346.78,290.23 -474.55,481.57 -39.9,59.75 -82.63,131.3 -104.74,200.07 -4.27,13.26 -14.99,53.26 -11.16,70.6 19.44,6.03 67.75,-4.84 83.33,-9.2 76.76,-21.44 156.8,-65.02 224.15,-106.85 107.06,-66.49 209.34,-144.35 310.27,-219.8 167.34,-125.08 333.96,-247.64 514.98,-352.77 100.73,-58.51 205.25,-117.67 311.53,-165.44 69.76,-31.36 169.65,-72.07 247.15,-57.85 56.41,10.35 99.6,48.35 113.67,104.43 11.31,45.09 1.32,92.42 -13.94,135.29 -40.82,114.63 -132.49,247.28 -202.37,346.33 -196.99,279.14 -431.72,530.91 -628.31,811.06 -92.82,132.25 -185.02,291.49 -227.48,448.6 -14.51,53.69 -35.79,164.67 -5.07,216.64 13.67,23.12 43.09,12.49 63.64,4.55 93.32,-36.07 191.52,-148.77 249.9,-226.21 49.8,-66.06 97.48,-133.92 146.02,-200.92 61.93,-85.48 125,-169.87 190.91,-252.33 178.58,-223.38 342.44,-460.75 550.83,-658.66 62.33,-59.2 136.11,-127.55 209.46,-172.72 68.41,-42.14 159.44,-66.51 216.85,8.63 42.9,56.15 29.58,133.91 13.04,197.1 -20.85,79.64 -53.44,160.81 -85.19,236.71 -130.16,311.24 -310.57,603.02 -455.95,907.73 -58.74,123.12 -209.91,443.43 -137.62,589.75z"/>
    </g>
    <path class="fil6 str1" d="M1945.66 8957.1c-834.25,-2666.47 130.64,-5567.66 2395.69,-7203.38 2907.47,-2099.63 6966.54,-1444.75 9066.16,1462.71 1061.77,1470.29 1460.31,3317.6 1099.15,5094.86"/>
   </g>
  </g>
 </g>
</svg>
