<?xml version="1.0" encoding="UTF-8"?>
<!DOCTYPE svg PUBLIC "-//W3C//DTD SVG 1.1//EN" "http://www.w3.org/Graphics/SVG/1.1/DTD/svg11.dtd">
<!-- Creator: CorelDRAW 2019 (64-Bit) -->
<svg xmlns="http://www.w3.org/2000/svg" xml:space="preserve" width="158.786mm" height="154.69mm" version="1.1" style="shape-rendering:geometricPrecision; text-rendering:geometricPrecision; image-rendering:optimizeQuality; fill-rule:evenodd; clip-rule:evenodd"
viewBox="0 0 15866.21 15456.85"
 xmlns:xlink="http://www.w3.org/1999/xlink"
 xmlns:xodm="http://www.corel.com/coreldraw/odm/2003">
 <defs>
  <style type="text/css">
   <![CDATA[
    .fil1 {fill:#B68F22}
    .fil4 {fill:#006842}
    .fil3 {fill:#6A253A}
    .fil0 {fill:#B68F22}
    .fil2 {fill:#B68F22;fill-rule:nonzero}
   ]]>
  </style>
 </defs>
 <g id="Слой_x0020_1">
  <metadata id="CorelCorpID_0Corel-Layer"/>
  <path class="fil0" d="M7933.1 15456.85c-4381.33,0 -7933.1,-3551.77 -7933.1,-7933.1 0,-3499.87 2266.51,-6470.17 5411.72,-7523.75 -2912.54,1059.9 -4997.91,3903.42 -4997.91,7245.45 0,4246.5 3366.49,7688.96 7519.29,7688.96 4152.79,0 7519.28,-3442.47 7519.28,-7688.96 0,-3341.99 -2085.33,-6185.51 -4997.83,-7245.43 3145.17,1053.63 5411.64,4023.89 5411.64,7523.73 0,4381.33 -3551.78,7933.1 -7933.11,7933.1z"/>
  <g id="_1359046640">
   <g>
    <path class="fil0" d="M11311.03 10101.52c-15,-10.85 22.15,-11.91 -18.64,-8.56 -3.06,30.99 -6.87,19.57 5.47,42.08 -1.25,44.54 12.98,85.26 14.77,135.02 4.71,130.6 -8.01,307.11 -21.64,436.49 -5.05,47.91 2.16,23.3 9.86,61.76 5.62,28.01 -1.24,40.13 -1.43,68.35 -0.38,56.08 11.23,71.77 1.71,142.21 -12.4,91.7 -33.15,182.51 -54.05,270.24 -46.84,196.75 -48.08,917.06 -120.71,1032.41 -24.05,38.2 -48.43,49.95 -66.95,89.91 -3.68,20.28 79.32,145.03 -83.09,159.77 -118.92,10.8 -127.71,4.2 -125.06,-49.95 8.5,-173.65 -79.67,-125.99 -30.62,-274.9 28.36,-86.08 20.11,-274.24 37.17,-379.72 53.47,-330.64 52.95,-183.51 43.87,-543.67 -1.13,-44.7 -6.93,-135.48 -3.21,-172.15l3.47 -51.96c-45.51,-14.33 -8.29,-4.74 -24.4,2.82l-29.67 3.95c-37.05,87.99 -8.72,177.37 -9.31,271.67 -1.22,195.95 -57.78,122.98 -83.59,234.47 -22.82,98.53 -23.08,197.3 -32.38,299.14l-65.48 425.2c-14.44,41.41 -31.05,74.13 -39.83,117.38 -19.57,96.34 5.86,207.81 -113.8,200.7 -116.1,-6.88 -123.5,-91.24 -96.46,-192.85 30.17,-113.4 65.34,-113.85 45.38,-237.34 -14.28,-88.35 -30.28,-161.67 -45.8,-248.26 -16.96,-94.54 -14.88,-170.56 -23.36,-268.8 -17.48,-202.56 15.47,-92.35 15.17,-267.14 -0.17,-102.64 3.09,-192.98 13.09,-295.25 5.86,-59.91 38.82,-236.43 22.74,-289.07 -23.96,-78.51 118.23,-668.01 116.01,-830.1 -51.93,42.21 -18.86,60.89 -43.13,96.82 -23.45,32.36 -34.08,8.86 -58.48,42.62 -14.79,20.47 -19.07,41.01 -27.51,68.09 -39.34,126.12 -132.36,301.18 -145.78,442.41 37.31,33.34 39.47,3.47 62.83,62.4 11.79,29.76 26.67,61.23 6.9,90.93 -10.37,15.58 -39.19,63.77 -56.36,70.94 -29.54,12.34 -8.28,0.84 -18.76,1.39 -21.28,1.11 -9.71,19.8 -38.47,19.49 -54.87,-0.6 -97,-94.69 -115.9,-131.62l-237.82 -370.04c-16.43,-24.96 -23.6,-52.02 -37.23,-76.16 -8.93,66.54 -29.58,141.06 -8.7,201.71 21.63,62.87 36.56,302.34 31.2,376.07 -7.83,107.86 -18.97,83.33 6.5,183.86l-16.89 28.27c-5.92,15.2 -4.23,9.77 -5.88,28.28 -30.87,345.6 119.46,734.95 110.65,901.62 -68.51,28.73 -46.5,-13.51 -211.12,55.52 -87.48,36.69 -112.98,9.66 -139.99,127.63 -19.48,85.14 -9.93,120.02 1.06,224.67 9.47,90.14 44.83,138.73 -20.39,206.49l-54.26 9.18c-84.37,4.09 -78.22,-38.74 -100.07,-89.68 0.31,-117.38 20.55,-116.81 -5.43,-235.2 -24.34,-110.97 50.35,-111.01 54.33,-195.44l-109.98 -45.05c4.55,91 -2.81,176.33 -0.48,265.5 3.36,128.98 47.5,48.04 24.64,243.98 -21.27,14.47 -64.29,7.3 -93.41,3.24 -52.39,-7.32 -35.95,-11.6 -75.47,-27.02l-50.82 -25.46c-24.6,-65.22 4.26,-93.5 67.07,-110.95 3.73,-115.75 -36.85,-218.73 -44.86,-329.52 -73.37,15.1 -67.71,-9.31 -74.83,-77.05l-28.72 -425.76c-5.42,-119.78 -13.63,-468.66 -51.92,-553.94l-71.93 -29.4c-16.64,-119.72 104.92,-340.58 84.97,-493.6 -5.05,-38.73 -10.83,-15.53 -24.01,-50.08 -8.6,-22.52 -3.32,-27.93 -14.62,-49.26 -16.31,-30.78 -41.05,-44.54 -59.64,-72.9 -103.74,-158.17 -41.91,-99.67 -84.04,-187.03l35.53 -27.4c-18.94,-43.81 -13.56,-41.21 10.33,-88.27 10.3,-20.28 54.46,-167.49 109.83,-278.88 83.51,-167.97 225,-113.34 301.76,-188.46 -12.36,-45.71 -21.51,-29.29 -32.26,-75.53 -31.18,-14.61 -35.13,-18.94 -47.59,-58.4 9.35,-123.61 37.26,-57.87 35.78,-109.79 -1.44,-50.33 -9.28,-78.11 14.81,-125.54 36.64,-72.14 8.39,-42.36 74.87,-75.72 63.55,-31.9 181.19,-31.44 235.75,21.33 14.58,14.1 60.83,70.6 65.12,85.87 7.64,27.26 -4.39,45.5 -6.14,73.17 -3.44,54.32 32.78,52.95 45.07,108.96 11.92,54.29 -13.11,122.03 -70.37,146.23 -28.25,11.93 -48.45,3.53 -62.89,38.31 32.41,24.6 86.62,50.47 128.67,67.13 115.15,45.62 197.92,181.74 243,304.14 30.8,83.6 69.17,185.2 108.6,256.31 24.24,43.71 50.74,68.72 73.4,107.83 19.84,34.22 25.82,96.38 56.97,121.43 9.83,-102.33 31.73,-210.11 57.94,-305.72 10.16,-37.06 26.86,-106.59 42.08,-140.9 31.15,-70.23 21.23,-57.86 39.66,-134.51l18.19 -39.37c29.12,-26.62 129.19,-304.14 151.78,-367.08 42.45,-118.23 276.85,-113.58 326.86,-169.62 -4.93,-33.35 -53.28,-100.42 -60.93,-161.5 -8.36,-66.83 10.63,-247.82 80.18,-268.19 77.55,-22.72 29.31,-25.21 78.71,-34.24 43.62,-7.97 68.18,-6.79 102.18,14.37 110.36,68.72 51.12,8.99 103.5,121.01 18.29,39.11 30.63,30.56 23.92,85.09l-20.83 198.77c6.81,35.91 4.7,0.56 17.87,40.51 7.44,22.59 2.18,29.56 10.04,45.74 11.15,22.92 46.61,35.34 71.53,46.51 176.07,78.97 223.66,188.44 256.07,416.76 9.33,65.78 79.78,324.33 61.93,361.1 -15.07,31.04 -21.39,-13.33 -12.08,84.79 3.36,35.39 9.38,66.49 11.83,99.08 6.78,90.36 -4.91,365.09 7.73,420.23 10.16,44.37 21.52,52.28 4.14,102.01 -20.4,58.33 -25.27,102.37 -104.36,80.7 -26.37,-7.22 -9.57,-3.34 -19.14,-8.58 -4.64,-2.55 -56.56,-31.58 -58.07,-32.93 23.4,-225.74 111.56,-159.99 33.38,-428.53 -51.64,-177.38 -37.29,-227.44 -106.83,-387.98z"/>
    <path class="fil0" d="M10351.61 9843.5l-18.19 39.37c-20.79,-6.58 -10.3,2.76 -20.41,-11.23l3.93 -38.34c20.21,19.08 20.42,3.41 34.67,10.2z"/>
    <path class="fil0" d="M10898.48 11110.8c-12.36,-31 2.07,-23.2 -20.93,-49.14 16.11,-7.55 -21.11,-17.15 24.4,-2.82l-3.47 51.96z"/>
    <path class="fil0" d="M11297.86 10135.04c-12.34,-22.5 -8.52,-11.09 -5.47,-42.08 40.79,-3.35 3.64,-2.29 18.64,8.56 -9.12,10.77 -8.3,-13.14 -13.17,33.51z"/>
    <line class="fil1" x1="9731.63" y1="9535.22" x2="9731.63" y2= "9535.22" />
   </g>
   <path class="fil0" d="M5513.38 10501.05c-36.19,35.34 -59.52,44.53 -72.01,108.73 -5.84,-40.31 -7.42,-80.76 -28.21,-110.17 -24.9,-35.22 -33.37,-35.51 -34.67,-100.91 1.04,-0.61 2.47,-1.09 3.32,-1.43l6.5 -2.61c26.71,-10.34 38.58,-29.69 40.54,-66.67 2.68,-50.55 -64.21,-181.53 -64.99,-284.48 3.21,3.32 2.15,1.7 5.55,7.42l2.84 5.55c6.23,13 7.85,23.53 20.94,38.34 21.92,24.81 11.95,23.44 22.51,52.12 7.14,19.4 7.58,8.27 15.58,23.33l30.95 79.55c25.12,61.91 54.52,173.06 51.16,251.22zm201.86 1046.37c-9.37,85.3 -22.83,167.12 -43.72,241.02 -22.29,78.9 -38.21,185.9 -64.4,255.28 -16.27,43.1 -39.11,76.42 -48.69,122.7 93.6,36.26 154.7,61.16 228.52,71.06 2.64,11.37 5.32,22.58 8.01,33.6 4.31,17.58 25.26,89.74 23.21,97.78 -7,27.45 -28.26,139.67 -29.28,142.5 -18.62,51.91 -59.24,73.77 -50.82,135.28 56.86,21.04 181.33,24.2 243.14,-1.23 41.79,-17.21 18.46,-53.87 19.11,-101.47 0.75,-54.02 11.27,-30.39 27.21,-65.67 15.47,-34.24 6.77,-42.3 -9.47,-68.07 -15.9,-25.23 -17.08,-39.06 -14.16,-74.45 1.36,-16.47 2.88,-56.3 4.15,-105.92 14.46,-2.9 24.01,-5.87 32.36,-8.71 -0.34,9.5 0.16,18.55 1.8,26.77 9.56,48.03 53.97,62.75 73.56,96.03 27.85,47.32 -2.56,100.9 19.14,150.02 12.03,27.23 54.46,75.57 89.31,84.06 21.75,5.31 58.59,0.72 78.6,-5.16 26.11,-7.65 31.15,-17.27 36.57,-45.78 27.31,-143.5 -53.72,-136.96 -78.82,-249.45 -5.48,-24.51 -6.6,-27.17 -4.95,-54.08 0.16,-2.66 18.79,-19.57 19.12,-22.64 20.63,-2.88 45.5,-7.67 75.8,-15.28 50.63,-39.01 221.26,76.92 417.56,-87.7 -332.65,-594.91 -249.45,-800.41 -330.07,-1053.87 -0.65,-30.83 -0.82,-66.82 -4.4,-97.45 -1.22,-10.5 -5.42,-27.02 -5.81,-36.96 -1.1,-28.09 4.34,-8.58 12.17,-29.74 11.66,-31.51 -11.11,-115.43 -21.49,-145.26 -8.01,-23.01 -18.91,-40.16 -22.86,-64 -4.58,-27.61 -21.93,-35.56 -34.9,-51.53 0.2,-26.36 9.77,-24.84 8.95,-47.14 -0.7,-19.19 -11.3,-24.82 -10.19,-47.26 0.68,-13.67 15.87,-80.04 20.69,-90.87 11.49,5.42 12.58,23.56 17.11,38.24 4.41,14.28 7.66,26.27 11.33,39.3 9.85,34.96 14.69,43.08 32.72,70.05 13.05,19.51 28.97,40.1 40.62,61.62 14.34,26.48 -8.23,87.09 22.18,96.24 46.37,13.94 36.19,-21.89 69.16,103.56 43.48,165.48 26.42,78.56 13.14,155.87 -3.34,19.46 -1.8,44.54 -2.11,65.33 -0.53,36.24 -18.55,80.89 -6.09,112.95 46.12,3.23 38.25,-52.93 49.34,-85.95 25.01,3.82 19.12,8.14 20.7,35.69 2,34.7 -5.83,60.23 -25.85,85.01 -11.73,14.52 -14.95,21.4 -15.26,42.26 22.16,-1.08 16.62,-4.66 30.63,-8.1l4.11 28c20.32,-3.27 7.37,-1.06 20.33,-10.74 5.81,-4.34 3.09,-2.62 9.84,-5.81 16.77,-7.9 21.07,-21.1 26.31,-40.38 11.99,-44.15 8,-47.47 11.9,-94.11 5.01,-59.9 7.68,-34.56 -9.05,-88.77 -22.39,-72.49 -37.58,-215.95 -31.21,-289.27 2.46,-28.3 14.61,-8.54 12.45,-42.66 -0.77,-12.11 -6.26,-30.83 -9.15,-41.31 -23.27,-84.19 -12.93,-126.38 -38.16,-174.71 -38.65,-74.06 -63.4,-152 -84.77,-234.08 -28.12,-108.01 -36.41,-141.06 -78.03,-240.82 -11.05,-26.49 -17.93,-50.72 -28.93,-76.9 -13.19,-31.39 -21.47,-41.49 -52.67,-54.01 -66.65,-26.75 -87.12,-19.58 -150.71,-61.99 -16.66,-11.11 -18.13,-10.6 -20.89,-33.58 -8.71,-72.23 13.11,-37.76 37.32,-104.68l19.29 -86.05c5.71,-46.25 -7.93,-146.87 -28.93,-180.31 -12.96,-20.65 -88.88,-102.48 -101.76,-110.47 -99.11,-61.5 -129.09,-4.82 -163.39,-17.32 -41.79,-15.24 -84.38,-20.41 -118.21,9.56 -28.75,25.46 -56.78,55.26 -44.63,101.63 8.04,30.71 -3.32,63.18 -5.88,97.04 -10.05,5.43 -28.25,20.97 -37,28.81 -25,22.37 -39.55,44.89 2.05,60.18l-2.67 27.44c4.31,3.24 13.15,9.58 17.2,13.48 -29.34,25.7 -10.07,9.12 -19.47,45.08 -6.16,23.53 -19.79,15.64 -9.88,52.45 13.95,14.17 11.55,8.79 29.63,13.2 16.17,3.94 13.16,6.46 26.35,16.39 15.77,11.87 44.12,18.6 56.53,29.46 -15.46,34.98 -83.22,12.02 -143.95,56.07 -45.4,32.94 -60.99,59.36 -67.39,133.44 -7.76,89.99 27.28,286.66 -30.46,361.33 -7.04,-52.17 0.21,-100.52 -11.07,-151.4 -9.3,-41.95 -24.92,-85.33 -30,-127.81 18.23,-22.25 70.81,-45.01 66.87,-81.86 -3.86,-35.87 -23.86,-82.38 -33.77,-116.79 -39.71,-137.85 -115.49,-284.9 -216.08,-381.97 -30.49,-29.42 -156.02,-80.14 -200.81,-94.17l8.77 -15.43c5.66,-12.28 4.05,-25.38 1.18,-37.81 -9.63,-41.73 0.83,-23.75 2.45,-51.39 -6.77,-7.25 -17.47,-17.38 -23.86,-21.59 39.06,-5.81 31.01,-4.39 41.97,-40.34 26.11,-3.11 25.89,1.79 41.07,-13.71 5.5,-42.53 -28.83,-57.16 -41.77,-93.67 -8.53,-24.07 4.32,-38.45 -2.62,-60.28 -4.74,-14.92 -15.33,-23.57 -21.94,-44.99 -12.64,-40.98 -20.63,-68.66 -47.7,-90.36 -22.86,-18.35 -67.95,-36.25 -97.75,-41.65l0.51 -14.1c-36.48,-16.97 -48.47,-14.83 -94.61,-11.82 -19.56,1.28 -30.66,-2.58 -41.87,0.84 -12.19,3.73 -25.13,8.78 -38.99,11.89 -51.55,11.54 -31.27,27.28 -55.54,44.33l-11.52 10.82c-2.74,3.77 -2.43,4.22 -4.87,6.96 -22.09,24.85 -11.17,13.65 -23.6,39.67 -7.22,15.11 -1.69,-0.86 -10.34,17.11 -3.23,6.7 -4.39,12.16 -6.71,17.31 -20.22,44.64 -9.45,83.58 -4.26,126.41 5.04,41.55 28,35.41 28.92,74.38 1.1,46.93 2.79,46.3 30.12,70.99 0.08,30.46 -4.61,20.34 -17.42,32.84 -10.25,9.99 -5.54,15.85 -17.87,29.24 -27.93,30.32 -29.66,9.49 -29.55,64.67 -54.63,18.5 -168.09,51.56 -214.23,77.28 -56.87,31.71 -79.61,120.24 -107.27,184.34 -28.18,65.32 -76.29,118.69 -111.57,179.48l-55.64 90.04c-12.35,22.58 -35.79,80.07 -31.83,113.64 18.76,23.49 68.75,53.11 94.08,66.69 2.36,51.7 -5.75,89.4 -12.45,137.22 -7.01,50.09 -5.7,86.03 -7.38,138.56 -4.11,127.92 -1.45,151.41 9.99,276.86 19.07,209.09 -59.2,211.24 -16.8,324.84 13.82,37.01 38.21,58.86 79.73,65.88 4.32,0.73 55.25,0.62 59.26,-0.31 2.35,-14.99 -3.71,-39.1 -7.91,-50.8l-25.04 -9.78c-0.4,-15.57 -3.48,-27.4 -3.64,-40.31 -0.23,-17.48 1.19,-24.78 15.03,-26.95 11.8,21.32 -9.23,106.51 54.26,92.52l1.11 -33.64c9.32,-75.6 10.78,-118.52 -6.68,-194.17 -15.87,-68.72 -13.3,-122.28 -15.71,-195.4 -4.84,-146.68 -4.46,-62.32 18.79,-192.24 5.61,-31.36 7.09,-64.28 12.6,-94.03 5.46,-29.52 12.85,-58.69 18.62,-89.33l25.19 -0.65 15.27 -62.74c1.5,20.82 -3.07,50.98 -4.84,73.22 -3.96,49.84 -2.65,199.82 15.91,232.01l37.68 0.23c-1.71,58.84 -15.23,26.63 -41.78,86.77 -52.78,119.56 -28.68,165.61 -36.76,222.71 -7.66,54.05 -16.38,31.65 -15.49,119.14 5.1,38.52 31.88,122.84 44.76,187.77 28.23,142.14 25.48,289.27 39.36,433.35 6.39,66.29 13.94,153.78 13.98,221.29 0.05,74.78 -2.34,156.05 -6.57,228.9 -12.16,209.11 1.34,152.41 42.74,310.91 9.28,35.54 21.72,64.3 -4.59,89.13 -31.97,30.2 -7.39,56.24 -10.15,99.23 -1.13,17.53 -10.7,32.77 -3.7,53.72 5.73,17.12 16.33,19.77 22.96,32.53 -42.86,14.05 -96.29,31.69 -105.99,80.24 -3.47,17.34 -9.85,29.94 -6.22,47.74 28.37,17.62 183.64,11.69 226.12,6.25 66.94,-8.57 42.4,-4.59 102.33,-0.61 15.56,1.04 92.94,1.41 105.35,-12.5 7.93,-11.64 7.93,-102.19 6.64,-124.77 -1.7,-29.89 -9.06,-32.33 -12.8,-51.7 -6.9,-35.82 6.29,-32.64 12.15,-54.46 -6.89,-28.65 -50.13,-81.77 -61.18,-121 -5.06,-17.96 28.45,-114.1 34.28,-141.26 12.41,-57.82 8.8,-107.82 14.3,-166.81 8.16,-87.67 41.4,-249.69 19.05,-326.72 -45.53,-156.92 -17.15,-151.35 20.72,-295.2 12.04,-45.75 13.22,-103.29 25.02,-151.81 19.87,35.14 21.77,98.1 33.32,143.72 20.19,79.79 6.69,74.62 -2.42,152.2 -6.17,52.4 22.97,97.95 26.77,147.22 2.99,38.75 -17.52,25.39 -4.42,78.6 5.57,22.63 10.71,46.67 15.43,70.59 13.26,67.27 19.02,84.2 12.82,158.13 -4.56,54.28 -9.21,108.59 -14.27,163.09 -4.93,53.22 24.72,121.44 21.45,151.3 -2.34,21.35 -20.7,17.74 -17.31,71.14 4.97,78.14 -15.4,82.44 55.08,95.47 2.03,34.34 -14.21,63.83 11.83,86.68 32.34,28.37 26.81,17.61 29,73.79 2.86,73.44 60.47,79.79 129.66,78.53 32.17,-0.59 63.9,-5.66 89.63,-16.49 31.18,-13.12 43.22,-20.34 29.72,-59.61 -9.91,-28.83 -9.93,-53.4 -23.09,-83.12 -11.56,-26.15 -25.93,-47.16 -24.36,-76.27 24.12,-4.71 42.1,-12.14 57.22,-24.27 2.82,-27.21 -3.13,-61.56 -7.1,-86.8 -5.5,-34.87 -1.36,-45.22 -26.62,-62.81 -11.54,-93.93 -34.91,-131.36 -29.48,-224.54 4.76,-81.77 5.72,-167.62 14.8,-245.13 4.18,-35.67 7.92,-154.26 16.99,-181.32 4.59,-13.66 19.24,-26.29 21.09,-42.16 3.34,-28.68 -15.65,-22.59 -15.83,-50.64 -0.19,-30.26 19.22,-125.79 22.82,-166.02l19.57 -369.57c-6.26,-152.97 -23.15,-70.34 23.6,-153.57 29.52,-52.57 29.81,-71.25 72.47,-120.51 17.76,-20.5 42.45,-46.1 59.27,-70.47 25.85,-37.43 2.19,-52.38 45.57,-80.87 23.85,5.18 18.23,15.89 47.36,4.7 -1.33,20.45 -20.11,61.07 -26.35,83.66 -19.51,70.62 -20.17,146.15 -34.38,185.54 -17.03,47.19 -28.01,56.23 14.45,64.16 -1.91,41.29 -8.72,77.19 -5.17,122.83 4.82,62.06 1,39.16 -7.53,55.37 -7.73,14.7 3.61,29.22 7.33,47.84 4.65,23.25 -0.36,39.69 1.36,62.23 1.85,24.29 11.5,23.63 16.1,45.53 7.41,35.41 7.9,74.68 14.81,111.18 8.42,44.56 8.4,72.32 9.04,118.88 0.31,22.19 1.48,44.07 2.64,66.06z"/>
  </g>
  <g id="_1359079472">
   <path class="fil0" d="M8260.41 7294.84c2.11,11.91 5.52,25.82 10.38,42.4 24.03,81.88 25.97,61.35 85.3,145.32 52.93,74.9 143.96,170.21 58.03,239.44 -69.98,43.76 -85.17,4.31 -128.11,-28.67 -55.76,-100.2 -34.11,-83.68 -112.76,-172.2 -73.72,-82.97 -10.07,-118.66 -46.98,-192.51l-7.6 0.93c14.65,-11.72 23.78,-9.82 72.29,-26.13 3.48,-1.17 35.16,-5.12 69.45,-8.58z"/>
   <path class="fil0" d="M8497.75 5912.46c8.68,-19.45 -0.33,-50.72 3.85,-71.85 4.48,-22.69 4.34,-62.78 6.35,-69.59 2.4,-8.17 4.95,-7.82 6.23,-17.93 2.53,-20.03 -2.53,-24.39 4.7,-43.72 5.87,-15.71 2.92,-28.95 3.37,-48.06 0.43,-18.16 5.97,-22.52 6.15,-42.98l-0.02 -153.86c0.24,-28.44 -6.51,-24.2 -7.96,-40.4 -1.98,-22.03 2.21,-26.98 -3.87,-47.96 -2.45,-8.46 -1.98,-11.55 -5.19,-19.48 -15.84,-39.21 -26.98,-113.82 -29.99,-121.17 -13.34,-32.71 1.86,-26.43 5.11,-46.1 0.29,-1.76 0.29,-8.5 0.29,-10.62 -0.03,-8.99 -0.46,-18.38 -0.33,-27.34 0.22,-15.25 0.67,-10.65 4.01,-20.09 11.06,-31.33 -0.16,-101.29 8.26,-140.22 3.71,-17.09 5.55,-8.65 7.51,-18.4 3.2,-15.77 0.35,-55.57 0.83,-73.32 10.54,0.58 5.06,-1.55 12.97,2.97 8.69,4.95 2.55,2.45 5.5,5.75 10.19,11.45 42.93,15.95 40.14,-4.66 -1.1,-8.09 -8.12,-8.33 -9.86,-16.16l-1.04 -15.12c-2.17,-10.69 -13.86,-11.36 -15.63,-28.23 -1.85,-17.61 2.25,-11.82 4.07,-18.08 4.93,-17.03 -8.33,-26.81 -17.89,-39.38 -11.76,-15.5 -21.85,-36.22 -30.64,-53.18l-16.52 -26.66c-9.2,-15.65 0.08,-35.27 -8.61,-53.61 -8.52,-17.96 -19.12,-35.78 -33.27,-49.85 -12.96,-12.88 -6.75,-3.84 -21.71,-21.7 -5.77,-6.87 -6.09,-3.29 -9.96,-8.53 -2.51,-3.41 -11.56,-27.67 -27.72,-47.71 -6.87,-8.52 -9.84,-25.04 -16.32,-35.52 -6.74,-10.92 -10.26,-9.42 -15.67,-21.56l-13.38 -32.85c-5.1,-8.25 -3.57,0.54 -8.47,-12.66 -1.74,-4.67 -2.24,-9.97 -4.1,-15 -3.02,-8.17 -4.08,-6.56 -6.97,-14.64l-17.35 -45.21c-5.37,-17.21 -2,-22.82 -4.3,-39.83 -1.67,-12.35 -8.46,-14.02 -9.65,-30.32 -1.48,-20.15 -6.56,-34.62 -11.71,-52.67 -3.56,-12.48 -3.52,-18.78 -9.11,-30.81l-23.14 -82.24c-3.08,-8.91 -6.84,-23.15 -11.01,-29.34 -7.97,-11.84 -11.87,-13.59 -15.54,-28.46 -1.84,-7.48 -2.81,-9.1 -6.74,-14 -14.95,-18.59 -34.42,-35.99 -57.4,-44.1 -14.13,-4.99 -16.57,-6.93 -28.41,-15.52 -14.55,-10.55 -14.19,-2.62 -32.37,-7.3 -76.06,-19.64 -80.78,27.01 -110.98,27.59 -13.59,0.25 -24.17,-5.22 -37.74,-0.57 -9.15,3.12 -19.64,4.37 -28.03,9.75 -0.48,0.3 -1.12,0.78 -1.58,1.1l-15.02 14.3c-7.28,8.5 -7.06,12.21 -11.24,21.33 -4.54,9.94 -10.57,11.18 -15.65,24.98l-9.52 23.11c-5.03,10.94 -7.3,8.91 -11.9,20.21 -10.14,24.9 -21.38,47.66 -28.99,75.82l-13.96 48.27c-1.2,5.84 -3.33,9.2 -4.96,13.83 -5.93,16.94 -4.99,36.62 -10.76,54.37 -2.3,7.08 -2.91,4.76 -3.55,15.99 -0.79,13.89 1,29.51 -0.07,43.32 -0.87,11.24 -4.92,30.23 -10.74,39.29 -7.63,11.87 -9.98,26.98 -14.06,40.48 -1.23,4.09 -0.63,1.97 -3.08,7.34 -6.41,14.05 -10.23,35.81 -16.18,51.88l-22.42 44.97c-13.29,29.53 -38.89,44.14 -51.94,71.49 -10.49,21.98 -16.11,23.16 -26.51,38.48 -2.89,4.26 -1.22,2.06 -4.31,6.23 -29.42,39.65 -30.32,17.76 -31.44,60.28 -29.57,16.44 -32.91,22.54 -50.61,60.38 0.62,0.41 1.57,0.66 2.07,0.84l8.67 2.56c4.81,1.26 2.07,-0.72 8.27,2.25 1.48,23.06 2.55,22.63 -9.89,35.36 -13.23,13.55 -17.54,6.06 -32.3,13.73l0.32 11.63 26.17 0.91c0.56,11.29 1.57,23.49 -0.55,34.43 -9.24,47.47 8.22,21.77 -9.85,52.86 -10.57,18.15 19.32,1.04 3.55,46.28 -5.34,15.31 -19.06,30.91 -21.7,34.73 -0.32,0.45 -0.71,1.16 -1.02,1.63 -0.31,0.48 -0.71,1.2 -1.02,1.68 -0.31,0.49 -0.75,1.18 -1.05,1.67l-2.07 3.24c-3.29,6.36 -3.03,14.12 -2.55,21.54 10.3,6.84 3.6,2.28 16.62,6.94l24.09 10.9c10.71,3.92 19.99,5.83 22.59,16.76 3.07,12.85 1.17,99.96 1.18,137.04 0,99.38 1.63,43.13 -9.44,96.07 -4.02,19.26 -11.41,34.27 -18.18,52.61l-16.34 54.07c-4.27,11.38 -17.54,39.09 -19.1,50.91 -3.05,23.11 -12.81,46.11 -22.41,66.76 -8.37,18 -11.63,39.72 -18.52,54.43l-10.16 24.8c-4.85,9.79 -1.83,-2.45 -5.7,9.68 -2.86,8.97 -3.75,28.17 -8.08,38.32 -0.41,0.97 -1.51,3.64 -2.35,5.65 -5.64,13.57 -8.5,25.05 -10.78,36.21l-5.09 -14.38c-1.82,-6.03 -3.74,-7.55 -5.27,-13.45 -6.2,-23.87 -6.59,-42.42 -17.64,-69 -0.83,-2 -1.94,-4.68 -2.35,-5.65 -4.34,-10.15 -5.23,-29.35 -8.08,-38.32 -3.87,-12.13 -0.85,0.11 -5.7,-9.68l-10.16 -24.8c-6.88,-14.71 -10.14,-36.43 -18.52,-54.43 -9.59,-20.64 -19.36,-43.65 -22.41,-66.76 -1.56,-11.81 -14.83,-39.52 -19.1,-50.91l-5.62 -18.59c0.38,-34.81 -0.97,-80.37 -1.31,-94.02 -1.21,-48.5 -16.44,-69.57 14.59,-84.92 13.38,-6.62 25.48,-11.64 22.79,-30.44 -1.53,-10.71 -4.22,-7.68 -5.09,-22.14l-6.14 -45.85c-0.84,-13.22 -3.06,-10.49 -6.11,-20.35 -3.68,-11.89 -2.7,-23.68 -9.44,-44.67l-6.38 -34.54c-2.04,-13.07 -8.38,-7.96 -9.71,-29.8 -0.75,-12.36 -2.28,-11.63 -4.59,-22.67 -1.87,-8.92 -0.74,-14.2 -1.81,-22.81 -2.73,-21.85 -25.72,-102.94 -39.06,-122.34 -4.46,-6.47 -6.16,-11.6 -9.43,-17.77l-9.69 -17.5c-12.62,-23.22 -33.75,-42.13 -54.08,-58.61l-13.55 -13.62c-9.03,-9.51 -45.2,-36.82 -58.34,-40.85 -10.34,-3.18 -13.49,0.06 -22.22,-5.51 -5.74,-3.66 -5.38,-6.17 -17.66,-11.49 -0.59,-0.25 -1.27,-0.59 -1.88,-0.84l-17.06 -5.03c-17.28,-5.44 -21.79,-16.03 -35.07,-23.73l-60.21 -28.2c-16.72,-6.15 -34.27,-14.28 -47.59,-26.22l-10.31 -11.77c-6.15,-9.31 -4.37,-8.31 -7.89,-19.93 -5.99,-19.78 -11.18,-32.69 -6.75,-58.57 2.56,-14.97 0.38,-0.8 3.48,-10.49 2.81,-8.79 0.7,-14.48 3.27,-23.84 3.6,-13.14 5.54,-4.66 7.55,-19.41 3.81,-27.85 1.7,-18.88 15.51,-39 18.93,-27.56 3.72,-32.49 17.5,-63.22 2.79,-6.23 6.21,-14.27 6.98,-19.67 1.44,-9.97 -0.46,-15.17 2.23,-25.16 2.65,-9.81 5.12,-9.7 6.03,-20.37 1.04,-12.24 -0.43,-13.59 2.82,-24.5 0.1,-0.34 3.18,-8.8 3.83,-9.96l6.31 -7.58c12.76,-12.39 4.03,-5.09 10.2,-16.41 7.47,-13.7 2.83,-3.95 16.46,-8.75l-2.74 -69.47c-2.15,-15.3 -3.65,3.12 -7.2,-40.9 -0.62,-7.7 -2.78,-11.6 -4.49,-19.82 -7.09,-34.17 3.28,-39.48 -11.81,-51.52 -11.23,-8.96 -20.53,-23.39 -32.39,-32.46l-7.08 -6.87c-0.37,-0.41 -0.85,-1.05 -1.22,-1.45 -6.78,-7.35 -18.28,-12.54 -26.03,-19.77 -21.26,-19.85 -55.23,-34.16 -85.76,-34 -17.38,0.09 -80.88,-3.67 -94.97,1.29l-3.43 1.63c-9.98,5.58 -4.99,9.26 -15.92,13.57 -24.05,9.45 -59.44,-22.92 -113.11,24.28l-27.23 21.33c-9.36,9.24 -10.57,6.24 -20.88,11.95 -19.44,10.78 -37.91,32.06 -48.5,50.74l-11.83 17.65c-6.09,10.6 -3.35,16.39 -11.7,26.52 -7.78,9.43 -19.26,28.81 -22.77,41.38 -2.6,9.26 -1.47,21.13 -1.34,31.06 0.28,21.41 2.73,13 8.57,25.75l11.1 38.68c3.63,26.18 21.82,15.76 24.5,60.51 4.38,2.79 11.25,5.21 16.72,7.35 5.04,88.31 19.16,52.25 38.06,123.85 3.07,11.63 1.13,7.01 8.47,16 7.66,9.39 12.33,18.28 15.45,31.3 1.5,6.28 2.15,9.94 4.97,16 0.35,0.74 1.51,2.73 1.85,3.5 8.13,18.81 13.87,57.37 3.8,77.59 -4.12,8.26 -5.37,6.42 -7.33,17.44 -18.4,2.49 -28.14,7.28 -42.54,12.25 -12.25,4.22 -22.4,14.71 -34.25,19.36 -11.9,4.66 -8.82,0.17 -19.9,6.81 -17.66,10.61 -37.39,16.26 -58,23.48 -18.09,6.33 -39.73,13.88 -55.96,24.64 -17.32,11.5 -33.02,30.16 -46.36,39.66l-27.14 21.37c-9.2,7.28 -19.04,9.63 -28.21,17.52 -38.11,32.77 -16.97,5.29 -43.02,45.99l-27.81 53.04c-3.06,6.97 -4.46,14.34 -7.05,19.95l-2.95 5.25c-0.3,0.48 -0.8,1.09 -1.11,1.56l-12.44 30.39c-1.11,6.27 -0.35,5.53 -2.23,11.55 -0.47,1.49 -2.29,4.89 -3.72,9.48l-6.55 20.85c-6.05,9.87 -5.05,3.66 -7.91,18.14 -4.06,20.54 -8.15,26.38 -11.88,42.64 -4.18,18.17 -11.47,47.73 -18.85,62.2 -6.36,12.46 -1.75,29.76 5.62,41.82 8.83,14.46 33.92,23.56 36.86,44.1 3.3,22.99 -7.87,19.01 -7.88,45.49 -0.01,25.21 3.72,55.87 -0.73,80.7 -1.91,10.63 -4.32,8.2 -5.16,21.83 -1.01,16.69 -0.03,36.97 -0.03,54.06 0,28.01 3.81,137.36 -1.64,160.13 -9.94,41.58 1.84,60.92 1.68,98.78 -0.08,17.99 -0.03,35.98 -0.04,53.99 -0.03,48.55 1.14,25.88 5.31,48.74 1.14,6.29 3.65,48.55 -1.97,54.25 -2.37,2.4 -9.57,4.07 -16.23,-0.68 -10.68,-7.62 5.91,-1.24 -31.36,-25.33l-21.38 -13.61c-15.58,-9.72 -28.81,-20.39 -47.95,-24.2 -29.54,-5.88 -38.17,-16.6 -54.15,-38.5 -8.32,-11.39 -10.87,-20.68 -4.61,-35.41 2.17,-5.1 4.82,-10.41 6.92,-16.96 1.76,-5.51 3.06,-13.67 5.37,-19.26 3.67,-8.86 2.2,-2.59 6.55,-14.77 5.14,-14.4 4.5,-46.22 15.11,-55.36 14.39,-12.39 26.29,-8.45 29.36,-42.29 3.68,-40.72 9.05,-17.42 5.53,-59.88 -2.32,-28.11 5.33,-59.31 6.11,-88.73 0.4,-14.96 8.36,-13.73 8.3,-40.25 -0.07,-32.02 -11.57,-42.65 -24.55,-68.89 -5.22,-10.53 -10.1,-20.19 -18.74,-28.09 -18.49,-16.91 -32.36,-35.7 -58.93,-37.55 -13.52,-0.94 -7.48,0.9 -17.11,-3.17 -0.57,-0.23 -1.26,-0.61 -1.83,-0.85 -22.36,-9.51 -15.6,-12.05 -25.56,-17.17l-41.74 -8.62c-19.71,-0.78 -52.65,-3.37 -70.39,1.26l-19.18 7.74c-0.71,0.25 -1.45,0.45 -2.16,0.71 -8.23,3.02 -19.32,6.26 -26.43,12.37 -4.82,4.14 -7.91,10.56 -11.01,12.89 -5.33,4.01 -18.39,9.13 -31.71,19.74 -0.47,0.37 -1.08,0.88 -1.55,1.27 -0.62,0.51 -2.33,2.06 -2.93,2.57 -0.3,0.25 -4.12,3.49 -5.79,4.84 -0.43,0.35 -1.07,0.84 -1.51,1.18l-3 2.42c-21.83,17.18 -16.4,6.44 -32.25,33.13 -1.08,1.81 -2.78,4.11 -4.34,6.11l-12.25 23.57c-4.84,17.24 -12.28,44.56 -4.33,63.06 5.33,12.39 4.76,-1.82 5.52,17.11 1.48,36.8 -10.26,65.97 -5.81,82.67 5.16,19.36 11.13,65.62 18.23,76.81 8.62,13.62 28.93,15.01 33.33,20.54 4.21,5.27 7.62,38.98 11.17,50.65 1.25,4.13 1.66,4.85 2.96,7.92 2.21,5.2 3.2,6.66 4.34,9.22 2.68,5.98 3.08,9.86 6.74,15.1 11.8,16.89 33.14,15.11 11.76,58.71l-15.49 21.67c-6.81,6.38 -12.81,10.12 -22.61,12.6 -10.1,2.55 -7.63,1.4 -15.44,6.06 -31.62,18.9 -23.56,7.19 -55.42,17.09 -6.7,2.09 -10.06,2.3 -16.51,5.3 -44.41,20.66 -0.16,-17.41 -76.64,42.19l-13.53 13.64c-10.17,12.32 -16.05,26.02 -25.98,38.85l-43.4 50.78c-6.89,6 -5.19,0.71 -12.78,11.67 -28.87,41.7 -11.98,95.57 -20.81,144.9 -0.62,3.46 -1.08,13.74 -2.34,19.58 -3.24,15.12 -6.9,2.28 -7.46,38.98 -0.93,60.67 -88.04,162.82 -88.95,520.52 0,3.07 0.02,7.73 -0.4,10.66 -2.38,16.26 2.5,-8.44 -1,4.54 -0.19,0.7 -0.48,1.35 -0.7,2.02 -6.35,19.93 -2.01,45.25 -4.31,66.22 -1.61,14.69 -7.4,15.52 -7.76,35 -0.27,14.22 2.31,31.98 -1.52,44.45 -5.18,16.83 -6.37,19.62 -6.27,39.29 0.07,17.05 -4.56,48.87 3.68,63.52 6.69,11.92 8.82,28.73 18.6,37.68l28.82 25.39c10.24,11.25 24.54,12.98 21.83,-7.48 -2.34,-17.79 -12.34,-5.29 -10.89,-32.31 10.16,-0.36 12.53,0.13 19.5,4.08 38.47,21.73 17.05,17.52 17.35,84.48 0.19,40.99 -0.94,23.13 -7.71,37.3 -6,12.54 1.7,63.26 -5.99,85.79 -8.38,24.63 -1.66,90.42 -9.28,126.5l-22.82 68.34c-2.99,4.5 -7.23,10.16 -9.2,15.08 -11.59,29.07 -79.06,259.08 -94.78,465.09 -1.08,14.09 17.63,5.74 17.08,19.51 -1.51,37.41 -18.47,35.2 -16.4,69.8 2.34,38.97 56.24,105.8 67.49,140.59 30.69,94.92 49.82,131.43 167.16,83.88 78.68,-31.88 40.47,-63.54 16.66,-118.05 -7.42,-16.99 -44.93,-190.97 -40.57,-213.89 1.31,-6.86 14.09,-12.51 15.96,-19.71 16.49,-63.59 53.43,-140.18 85.85,-220.52 3.52,-16.06 6.01,-30.39 6.14,-41.4 0.55,-47.37 46.46,-190.42 50.26,-220.11 1.47,-11.52 22.96,-32.45 42.13,-48.54 -1.88,-34.18 12.86,-36.43 20.37,-52.65l19.3 -34.83c5.46,-9.07 3.03,-9.8 11.46,-21.19 11.18,-15.1 8.79,-21.29 16.5,-34.67l31.12 -55.12c2.36,-5.54 3.59,-11.65 6.06,-15.53 0.31,-0.47 4.75,-4.95 5.69,-5.58 2.09,-1.38 1.07,-1.36 6.69,-2.91 7.91,16.04 3.65,13.38 5.63,33.04 1.38,13.73 5.31,13.81 5.65,32.61 0.35,19.72 2.83,15.8 6.47,30.5 3.59,14.45 1.63,15.7 6.39,28.59 10.41,28.18 15.29,59.76 23.59,70.27 2.93,3.72 6.19,10.97 8.62,18.72 3.15,7.15 5.81,14.05 7.95,20.26 34.09,7.05 17.71,74.64 11.43,122.03 3.17,-1.75 8.6,-2.58 17.93,-1.83 4.16,7.1 11.35,24.26 12.16,35.33 2.13,28.62 -11.52,1.64 -9.6,35.49 0.94,1.15 2.1,5.85 3.43,13.32 22.07,58.66 15.74,132.3 15.81,132.2 6.44,-0.27 6.15,4 1.14,11.35 6.06,60.64 12.05,126.93 16.17,175.38 18.68,15.78 34.93,37.32 51.29,51.39 1.55,-2.66 3.92,-5.21 7.26,-8.69 6.5,-6.76 15.08,-31.64 36.49,-5.45 2.85,3.49 1.51,2.76 5.24,5.67 2.86,2.23 3.76,2.33 6.95,3.86 7.9,3.81 5.51,1.79 12.31,6.38 1.16,14.63 0.65,28.31 0.68,42.92 0.02,13.54 2.5,23.21 -4.52,27.26 5.95,23.62 15.73,45.05 26.59,47.31 20.47,88.81 88.51,96.6 168.57,113.26 23.13,4.82 58.45,-145.99 82.74,-137.52 24.61,8.58 36.38,172.26 57.72,178.37 489.72,140.24 148.39,-344.12 182.3,-349 -20.54,-62.36 13.91,-58.56 24.09,-81.18 8.37,-18.6 47.02,-61.52 45.91,-102.71 -22.86,-36.14 -12.59,-76.18 -18.88,-88.5 -8.54,-16.73 -10.93,-132.79 -10.93,-160.19 0,-8.74 1.76,-20.15 4.14,-31.61 -0.69,-82.78 -1.92,-201.04 0.29,-222.3 2.3,-22.22 7,0.26 7.97,-26.51 0.22,-6.06 -0.5,-13.49 0,-19.29 1.08,-12.46 0.63,-5.96 3.77,-12.51 6.7,-14.02 2.99,-13.86 4.22,-30.5 0.95,-13.04 6.29,-18.1 7.52,-30.09 0.67,-6.52 -0.19,-11.32 1.26,-17.98 7.48,-34.21 3.62,-2.79 4.92,-46.52 0.32,-10.56 -0.56,-8.36 3.34,-15.71 17.43,-32.81 -1.79,-48.14 10.55,-78.09 10.45,-25.37 1.86,-69.52 9.73,-98.95 2.18,-8.17 2.52,-2.16 4.14,-14.85l9.7 -41.25c3.34,-12.99 6.78,-12.22 8.18,-26.13 1.38,-13.66 2.87,-19.09 7.07,-31.17l8.37 -26.84c5.43,-13.86 6.3,-0.57 11.69,-22.64 2.1,-8.58 5.48,-18.46 8.16,-27.27 2.32,-7.58 1.36,-7.69 2.97,-15.73 6.44,-31.97 11.77,-33.79 32.95,-56.41 28.36,-30.29 37.93,3.55 41.53,28.94 2.06,14.46 7.84,12.63 16.05,39.54 2.51,8.21 5.24,17.05 8.28,26.69l21.79 89.58c3.56,15.66 7.46,9.55 10.69,23.22 1.52,6.45 0.51,10.92 2.02,17.24 2.22,9.36 8.97,22.47 12.06,41.84l14.7 96.6c-0.08,21.18 3.42,14.16 5.61,29.42 1.57,10.91 -1.2,27.12 0.99,36.81 3.45,15.32 8.34,2.14 9.37,25.11 0.53,11.75 -1.99,25.36 1.7,35.96 5.17,14.86 7.87,4.98 8.02,26.16 0.15,21.07 2.31,16.13 6.78,31.1 2.54,8.48 0.93,24.4 0.92,33.87 0,6.63 -0.2,11.65 1.21,18.06 6.25,28.47 5.73,1.55 6.66,46.75 0.4,19.63 5.49,16.86 7.61,30.08 1.59,9.86 -0.05,24 0.7,34.53 1.95,27.25 6.03,34.76 5.67,67.45 -0.25,22.68 0.63,15.6 6.15,31.51 7.53,21.68 -4.21,38.2 8.34,64.66 6.65,14.03 1.8,48.03 2.42,73.65 4.53,6.19 7.3,10.02 7.42,10.46 7.11,25.79 6.97,53.1 5.48,81.1 -2.4,44.26 9.06,111.64 -3.16,145.2 -6.47,17.78 -11.43,29.53 -15.24,38.26l0.45 0.22c0.26,13.55 -2.94,5.12 -5.29,29.45 -1.41,14.48 -6.64,14.28 -5.48,27.32 1.23,13.82 2.45,3.92 4.76,14.52 1.21,5.56 0.32,9.56 0.79,15.04 1.61,18.65 6.06,10.36 6.49,29.65 1.38,5.01 15.48,22.1 19.8,25.82 147.52,8.34 147.62,347.25 344.72,246.8 304.7,-155.29 -44.74,-204.08 -93.64,-437.09 -0.11,-9.58 -0.57,-23.44 0.19,-32.67 1.52,-18.49 6.19,-15.01 9.68,-21.61 3.01,-5.65 1.7,-15.94 6.17,-26.5l25.68 -65.15c1.19,-3.67 9.36,-51.37 9.45,-53.63 0.86,-21.63 3.42,-104.12 -4.06,-117.87 -9.43,-17.38 -3.39,-33.16 -5.06,-55.07 -1.99,-26.15 -6,3.72 -6.39,-56.51 -0.18,-26.77 -7.71,-30.2 -7.82,-53.76 -0.1,-20.65 -2.82,-108.1 2.66,-120.97 4.26,-10 6.81,-7.27 7.19,-22.13 0.76,-30.4 5.42,-48.37 15.75,-77.7 3.12,-8.85 4.47,-13.77 7.47,-22.34l12.62 -21.34c0.48,-10.89 5.15,-15.52 5.05,-43.17 -0.14,-39.94 -1.18,-36.48 -13.44,-68.11 -11.4,-29.44 -18.16,-18.63 -8.53,-61.48 4.05,-18.06 6.81,-27.22 6.22,-45.88 -0.71,-22.52 -12.74,-65.79 -26.8,-81.96 -25.53,-29.38 -7.03,-26 -7.1,-87.85 -0.11,-89.86 -2.09,-180.08 -0.05,-269.89 0.51,-22.33 8.05,-22.28 8.03,-45.6 -0.02,-9.44 -1.27,-17.47 1.8,-25.78 3.97,-10.76 5.38,-4.42 6.06,-20.02l4.79 -47.22c1.98,-9.77 0.33,-16.64 1.29,-25.92 1.97,-19.05 3.93,-3.48 7.21,-19.32 2.17,-10.46 -0.11,-12.81 3.44,-23.8 4.9,-15.14 3.31,-33.02 8.44,-45.5 4.71,-11.42 4.28,-6.48 4.57,-21.72 0.45,-23.2 5.36,-23.39 5.92,-45.99 0.41,-16.54 0.86,-10.38 5.41,-21.59 4.36,-10.74 1.33,-13.26 2.69,-24.24 1.73,-13.82 4.42,-5.81 6.98,-19.47 1.98,-10.55 0.03,-14.83 3.13,-24.53l2.87 -8.91 21.41 32.92c5.99,11.15 4.17,5.41 10.67,13.96 7.64,10.02 8.45,22.06 17.85,31.09 19.64,18.88 24.25,40.62 40.15,56.85 7.01,7.15 10.47,14.35 11.83,21.67l103.37 19.33c7.07,-12.14 13.49,-25.27 25.95,-37.25 9.39,-9.02 10.2,-21.06 17.85,-31.09 6.5,-8.54 4.7,-2.81 10.67,-13.95l48.63 -74.81c13.76,-12.43 19.51,-28.25 28.88,-44.65 5.11,-8.95 3.09,-8.92 15.39,-9.15l-12.69 66.7c-3.17,10.54 -4.14,11.6 -6.62,23.38l-5.68 23.39 -13.59 8.05c-43.55,209.96 -34.69,196.47 -20.01,385.29 5.44,69.93 1.13,44.12 -8.49,62.38 -8.71,16.56 4.07,32.91 8.27,53.91 5.24,26.2 -0.41,44.71 1.53,70.12 2.08,27.37 12.96,26.63 18.14,51.31 8.35,39.9 8.9,84.14 16.68,125.27 9.49,50.21 9.47,81.5 10.2,133.95 0.35,25.01 1.66,49.65 2.96,74.44 -10.55,96.1 -25.71,188.29 -49.24,271.57 -25.13,88.9 -43.06,209.48 -72.57,287.63 -18.33,48.56 -44.06,86.11 -54.86,138.26 176.59,68.43 185.17,91.95 345.53,68.01 11.22,37.45 -58.69,124.15 -100.56,166.01 -165.01,85.36 -58.9,245.42 230.18,9.85 27.91,-22.74 80.93,-24.41 114.22,-52.03 -2.84,-8.61 -0.61,-10.15 -2.33,-20.48 -16.83,-101.03 3.4,-34.12 -34.28,-113.16 77.92,0.7 156.39,2.4 234.89,2.96 5.34,-6.44 19.16,-19.48 19.46,-22.29 185.53,32.49 248.35,44.38 399.63,-13.57l14.9 -10.79c-1.91,-3.48 -3.3,-6.13 -4.43,-8.21 51.93,-17.11 79.51,-35 93,-55.84 10.88,-16.8 19.77,-1.62 17.72,-23.37 -1.32,-13.94 -11.1,-63.03 -14.78,-79.36 -42.48,-188.23 -229.52,-528 -271.4,-848.17 -9.46,-19.16 -11.84,-47.22 -10.67,-79.16 19.26,7.61 18.91,-413.63 8.73,-445.97zm-2277.16 511.79c-0.23,11.67 -2.46,76.63 -7.25,89.27 -0.25,0.65 -0.71,1.6 -0.92,2.13l-12.26 5.23c-14.05,3.98 -16.96,7.98 -20.83,20.84l-30.1 56.75c-10.51,12.78 -17.09,23.49 -23.74,40.22 -6.16,15.51 -0.75,76.09 -1.99,107.29 -0.71,17.96 -1.88,12.03 -7.08,23.85l-19.13 41.1c-10.33,12.79 -15.56,19.87 -15.45,42.63l0.07 291.47c-0.15,27.2 1.72,27.77 10.03,48.67 7.75,19.48 1.34,35.48 3.82,56.35 0.82,6.82 5.25,13.38 10.64,14.17 1.33,8.67 2.32,14.75 2.74,17.07 9.86,53.16 14.27,243.16 40.61,274.57 26.12,31.13 26.54,31.05 45.71,65.98 19.13,34.82 15.84,43.16 46.43,43.16 52.64,0 59.13,-25.51 45.47,-76.79 -13.32,-50 -7.67,-88.81 -13.96,-135.42 -13.54,-100.31 -17.13,-201.45 -45.63,-298.57 0.08,-7.05 0.3,-14.63 0.7,-22.81 0.68,-14.01 3.58,-14.37 6.51,-25.99l5.68 -122.25c-0.07,-56.32 5.57,-35.47 6.18,-59.2 0.59,-22.92 -6.85,-33.59 -15.37,-48.38 -21.26,-36.9 -52.83,-106.48 -33.62,-147.09 13.14,-27.78 -2.25,-97.6 8.13,-118.76 2.12,-4.31 1.7,-2.03 4.89,-8.15l14.48 -34.01c4.51,-12.09 4.19,-13.2 5.06,-26.89 2.65,-41.48 9.89,26.48 10.07,-83.51 0.04,-25.89 6.97,-42.92 -19.88,-32.87z"/>
   <path class="fil0" d="M8422.67 5544.71c2.46,-12.15 12.97,-35.46 -8.89,-29.99 -11.96,2.99 -18.2,24.93 -23.37,35.78 -4.23,8.86 -13.19,10.71 -22.8,8.42 -2.08,-13.94 -8.75,-27.68 -14.13,-39.44 -0.25,-0.56 -0.57,-1.25 -0.83,-1.81 -2.13,-4.62 -4.99,-10.02 -8.08,-15.75 -2.51,1.47 -4.28,2.63 -4.96,3.3 -10.97,10.77 -46.16,70.03 -46.43,81.76 -0.57,24.69 -1.21,17.49 5.03,38.07 6.77,22.38 -4.1,15.4 17.24,43.31 0.44,0.58 0.93,1.16 1.45,1.74l1.3 -0.88c7.94,6.37 16.99,11.19 26.37,14.23 10.03,3.24 28.09,14.61 38,13.48 15.44,-1.76 21.99,-19.35 31.43,-33.59 28.63,-43.22 2.59,-88.49 8.69,-118.63z"/>
   <path class="fil0" d="M10388.3 6343.34c-16.88,77.39 -3.54,177.84 29.04,230.66 13.69,22.17 24.51,30.17 36.65,51.15 38.8,67.04 57.26,121.8 74.38,203.6 14.97,71.55 49.76,104.02 51.21,132.92 3.24,64.57 -51.55,69.1 -88.03,95.88 -47.19,34.64 -59.51,-32.23 -46.85,45.56 14.85,91.46 66.02,246.16 118.32,457.69l0 0 11.85 46.68 0.05 1.43c2.68,4.71 5.39,9.88 8.18,15.41 1.58,0.7 3.2,1.36 4.85,1.91 17.29,5.75 32,13.53 38.96,32.6 2.42,6.64 10.46,12.79 17.4,15.95 22.14,10.07 37,24.13 37.83,50.35 0.38,11.91 5.63,23.67 5.92,35.56 0.37,14.84 -2.64,16.96 -17.37,20.1 -23.22,4.96 -46.31,10.93 -69.78,14.28 -12.38,1.77 -26.36,1.58 -37.92,-2.51 -17.75,-6.27 -34.45,-15.94 -50.79,-25.53 -11.63,-6.83 -18.59,-17.71 -17.86,-32.21 0.16,-3.24 0.68,-7.78 -1.11,-9.56 -11.33,-11.21 -8.63,-24.91 -8.03,-38.41 0.83,-18.97 6.24,-44.44 4.61,-65.13 -0.55,-3.75 -1.25,-7.87 -2.14,-12.55l-0.12 -0.42 0.03 -0.02c-2,-10.62 -4.19,-27.57 -9,-44.06 -11.42,-39.04 -80.85,-177.52 -94.68,-232.61 -20.72,-82.49 -63.52,-145.55 -79.68,-228.24 -9.7,-49.65 -15.85,7.99 -42.58,-28.17 -27.45,-37.15 -68.16,-45.77 -103.43,-7.08 -37.43,41.06 -114.84,393.64 -132.89,444.04 -11.81,32.99 -27.42,60.22 -38.66,90.56 -0.37,1.78 -0.68,3.77 -0.96,5.86l-0.04 0.32c-0.95,8.75 -1.87,17.52 -2.74,26.28 -0.73,7.35 -2.43,16.87 1.45,21.96 14.14,18.58 12.9,39.89 15.84,60.52 6.01,42.2 -8.21,61.11 -52.38,70.97 -21.76,4.85 -48.14,27.32 -68.96,35.08 -18.38,6.86 -37.48,8.74 -55.68,4.85 -22.64,-4.84 -44.71,-13.02 -66,-21.93 -6.8,-2.85 -12.81,-11.96 -14.9,-19.27 -8.24,-28.73 16.27,-76.7 46.71,-85.82 21.36,-6.39 36.39,-18.83 49.28,-33.19 5.92,-9.42 24.75,-23.74 40.63,-43.74 28.4,-41.3 20.25,-52.78 31.43,-108.58 23.95,-119.76 36.75,-337.42 55.1,-455.89 19.6,-126.7 -91.59,12.64 -56.52,-152.44 19.58,-92.25 19.95,-165.81 53.09,-252.26 44.73,-116.74 52.55,-109.16 51.16,-253.9 -1.57,-164 -62.4,-207.74 -139,-320.99 -46.43,-68.66 -15.12,-59.67 -37.98,-122.81 -36.87,2.43 -50.36,40.66 -70.16,67.42 -72.77,98.37 -125.26,150.2 -127.2,297.68 -0.97,73.23 15.3,182.89 24.69,255.99 4.08,31.71 19.38,93.47 12.66,121.15 -10.75,44.3 -39.83,23.82 -35.75,111.92 8.43,182.01 5.24,364.95 22.63,546.69 6.64,69.36 -2.42,78.99 -1.05,124.46 0.91,30.46 11.2,26.69 -0.1,59.59 -6.47,18.85 -9.97,24.11 -12.69,38.6 -1.03,8.84 -0.56,12.33 -1.28,20.4 -0.94,10.5 10.65,14.18 10.65,14.18 0,0 15.25,51.68 38.48,88.18 23.22,36.5 67.7,146.4 -57.91,144.45 -93.78,-1.44 -93.8,-44.71 -89.23,-74.93 -3.27,-0.13 -6.55,-0.41 -9.84,-0.86 -42.85,-41.17 -11.67,-88.78 -11.42,-157.15l0.06 -18.08c-4.91,-8.36 -12.11,-13.8 0.03,-18.05 0.21,-177.1 -4.97,-117.85 -42.41,-213.55 -23.58,-60.26 -28.91,-202.39 -75.25,-232.97 -31.25,16.76 -29.33,42.26 -33.59,81.93 -12.36,114.73 -47.49,179.45 -51.93,299.38 -0.47,12.88 -2.05,24.59 -4.01,35.68 0.41,11 2.63,14.39 2.63,14.39 0,0 0.93,7.86 -4.25,20.42 -5.18,12.55 6.85,1.85 1.85,15.72 -5.03,13.86 -6.25,3.39 1.9,27.67 8.16,24.26 21.09,43.99 21.09,43.99 0,0 25.79,50.11 -0.18,66.43 -25.98,16.32 -57.2,33.25 -72.21,29.7 -15.02,-3.55 -32.82,14.47 -44.54,27.8 -11.44,13.01 -80.92,37.86 -155.36,11.6 -1.84,-0.65 -3.69,-1.33 -5.54,-2.05 -76.49,-29.55 3.9,-80.13 23.62,-93.07 14.41,-9.44 57.02,-37.74 78.98,-52.34 2.55,-3.66 4.98,-7.5 7.17,-11.62 -3.64,-2.62 -6.37,-7.56 0.03,-16.51 3.15,-4.41 6.63,-6.82 10.03,-8.01 11.32,-36.44 6.94,-70.62 11.4,-113.98 6.44,-62.66 -8.08,-63.21 -24.37,-114.93 -15.74,-49.99 9.49,-81.36 14.14,-132.4 12.9,-141.39 1.75,-281.75 23.27,-422.91 8.47,-55.5 29.36,-67.53 1.05,-120.25 -68.11,-13.57 -127.05,24.63 -181.59,-5.99 -7.61,-65.39 47.34,-47.19 77.23,-280.21 7.18,-55.96 25.19,-106.29 31.03,-152.19 9.84,-77.52 -34.47,-71.86 -86.87,-97.61 -80.13,-39.37 -124.39,-114.68 -178.7,-178.29 -56.45,-66.12 -78.62,-129.68 -103.12,-167.91 9.42,-28.75 16.85,-57.04 28.38,-86.67 12.15,9.33 25.51,20.07 39.87,33.06 16.55,14.97 26.84,21.73 42.15,38.04 19.87,21.15 50.85,58.96 68.89,91.74 24.92,45.29 43.7,47.05 68.77,84.66 53.54,80.29 156.18,-11.75 234.77,-9.38 45.52,1.37 71.28,-5.28 84.55,-17.17 -1.61,-3.44 -2.89,-7.53 -3.58,-12.35 -21.88,-33.01 -36.31,-81.96 -31.71,-109.88 3.74,-22.72 -12.35,-44.92 -15.57,-58.86 -3.62,-15.7 -5.75,-43.88 -5.75,-43.88l-14.36 -29.76 -0.53 10.53c-22.53,-24.89 -21.74,-40.69 -21.74,-40.69 -7.85,-54.53 77.16,-91.25 77.16,-91.25l-34.97 12.79c37.46,-62.84 152.98,-75.58 152.98,-75.58l-12.85 -7.24 67.12 4.66 -4.75 -10.8 34.91 14.94c80.17,34.35 79.53,126.76 84.61,157.39 2.97,17.89 -0.23,32.76 -3.4,42.05 5.67,5.69 10.13,7.91 13.23,11.32 6.33,5.36 7.94,19.81 4.82,50.36 -5.13,49.92 -55.45,52.7 -55.45,52.7 0,0 -1.04,21.07 -14.2,73.23l-0.05 0.18c0.71,3.51 1.61,7.04 2.73,10.62 191.43,58.34 228.42,-219.53 319.83,-321.36 34.04,-37.92 60.65,-105.41 121.63,-100.46 35.05,57.52 14.84,92.25 -1.04,162.03 -13.77,60.53 -23.37,112.25 -35.91,174.72 -22.21,110.53 -18.33,146.61 64.41,220.54 30.42,27.19 40.58,20.49 69.32,36.34 5.26,-2.37 10.5,-4.69 15.79,-6.81 7.86,-3.18 11.34,-9.15 11.15,-17.9 -0.15,-6.86 0.9,-13.77 1.81,-20.61 0.98,-7.41 -0.62,-13.13 -7.22,-17.8 -26.79,-18.9 -33.42,-47.12 -30.5,-76.91 1.78,-18.11 1.31,-35.67 -0.66,-53.34 -1.82,-16.36 0.81,-31.56 7.42,-46.35 10.69,-23.91 21.64,-47.57 22.52,-74.68 0.36,-11.31 6.72,-21.32 17.59,-26.4 9.65,-4.51 14.8,-11.99 17.77,-21.55 5.84,-18.83 19.67,-29.32 37.19,-36.03 3.87,-1.48 8.28,-2.12 11.55,-4.43 21.39,-15.11 44.3,-16.51 69.17,-10.44 8.89,2.17 19.03,-0.92 28.6,-1.29 9.59,-0.37 19.35,-1.49 28.77,-0.22 13.05,1.78 23.77,9.07 27.76,21.97 3.92,12.66 11.53,21.18 21.97,28.55 7.72,5.44 48.2,75.08 49.02,84.43 1.26,14.33 1.19,28.78 1.72,44.53 4.51,-0.02 9.05,-0.05 14.43,-0.07 -1.12,2.7 -2.12,5.1 -3.59,8.65 17.91,3.57 38.3,-1.88 56.67,13.38 -6.77,2.06 -10.82,3.28 -15,4.54 0.37,1.19 0.4,2.64 1.13,3.46 18.06,20.27 18.59,43.51 11.54,68.01 -1.33,4.64 -2.37,9.45 -4.4,13.78 -11.72,24.98 -11,50.83 -6.01,77.05 0.75,3.93 1.62,7.84 3.17,15.23 -18.28,-14.71 -16.58,-33.42 -20.6,-49.85 -15.86,20.99 -15.7,36.92 1.39,75.14 -21.78,5.13 -42.92,5.5 -60.24,-9.5 -17.79,-15.4 -21.07,-36.48 -15.12,-58.76 3.21,-11.96 8,-23.48 11.08,-35.47 3.52,-13.68 1.37,-16.9 -14.79,-23.61 1.58,11.77 2.96,22.03 4.7,34.98 -5.46,-4.15 -9.32,-7.08 -13.66,-10.38 -1.08,0.73 -3.29,1.47 -4.31,3 -11.35,16.85 -25.76,29.84 -43.11,40.86 -14.9,9.46 -28.49,22.29 -25.7,45.83l0 0c12.73,14.03 36.42,24.25 65.78,32.49 74.79,21.01 61.64,-0.29 102.28,72.86 17.97,32.35 34.94,65.12 51.67,86.61 18.78,24.12 39.49,46.85 56.84,71.93 16.34,23.63 29.81,49.3 43.83,74.47 27.56,49.47 57.9,97.44 76.19,151.73 7.64,22.7 18.53,44.5 29.69,65.78 9.89,18.9 22.19,36.53 33.46,54.7 27.25,43.9 22.33,88.47 1.86,132.82 -3.41,7.37 -11.25,12.7 -17.92,19.9 -15.23,-18.56 -11.34,-36.91 -10.36,-53.8 1.74,-30.29 -12.1,-53.03 -34.26,-72.92 3.75,15.15 8.78,30.14 10.68,45.5 0.86,7.05 -2.31,18.57 -7.42,21.53 -9.18,5.33 -14.39,-4.91 -18.54,-12 -8.43,-14.43 -15,-30.16 -24.76,-43.6 -22.6,-31.13 -33.8,-66.1 -37.06,-103.64 -1.38,-15.9 -7.08,-28.44 -17.53,-39.73 -24.62,-26.62 -49.54,-52.98 -73.48,-80.2 -36.22,-41.17 -71.04,-83.58 -107.7,-124.36 -12.71,-14.13 -25.57,-28.12 -38.5,-42.05z"/>
   <path class="fil2" d="M8335.19 4716.8c4.08,7.09 8.39,13.94 12.91,20.58 41.28,74.15 84.46,146.41 122.09,224.19 25.13,33.32 38.67,78.24 64.38,110.98 7.29,26.03 20.42,46.19 31.08,68.84 23.52,36.73 41.72,76.93 59.94,117.67 9.07,20.26 17.54,41.83 26.63,62.13 4.4,9.81 11.16,19.23 15.55,28.88 5.1,11.16 8.11,22.72 13.33,33.29 19.67,40.03 40.52,78.42 59.92,117.66 19.64,39.69 41.36,78.05 66.61,113.2 3.12,6.49 5.96,13.29 4.44,24.42 43.61,41.51 57.43,112.78 68.83,186.47 -3.09,5.09 -4.53,11.78 -6.66,17.76 -4.91,1.76 -5.56,7.78 -8.88,11.1 -7.76,-0.34 -14.2,0.61 -17.76,4.45 4.27,17.13 -1.22,27.27 -8.87,37.74 -12.6,7.01 -22.65,-6.15 -31.09,-2.22 2.42,17.97 -6.54,24.54 -13.31,33.31 -16.05,4.04 -19.38,-3.95 -37.74,-2.23 1.1,11.46 -9.56,11.16 -6.67,24.41 0.9,12 -6.67,15.53 -13.32,19.98 -19.83,3.1 -24,-10.48 -28.86,-22.2 -5.54,-13.37 -6.99,-29.03 -13.32,-39.95 0,-8.15 0,-16.26 0,-24.43 -5.99,-6.58 -8.44,-16.73 -15.54,-22.18 -1.3,-4.63 -4.67,-7.19 -6.67,-11.09 -3.47,-3.22 -1.73,-11.59 -8.87,-11.11 -9.83,5.71 -14.96,16.11 -17.76,28.83 2.63,13.11 4.06,30.15 -4.43,37.77 -14.11,1.52 -20.78,-4.39 -24.43,-13.32 -7.14,-6.17 -13.52,-13.13 -15.55,-24.45 1.27,-14.26 6.16,-24.93 8.88,-37.71 -0.98,-12.83 0.93,-22.76 2.23,-33.3 5.56,-12.41 13.95,-23.8 19.97,-37.74 9.19,-21.27 13.51,-41.99 28.86,-53.27 5.97,-3.23 17.69,-8.99 13.32,-15.56 -5.15,-12.84 -9.34,-25.41 -15.54,-37.74 -5.67,-11.27 -12.22,-23.53 -19.98,-33.28 -11.36,-24.92 -25.08,-47.42 -42.17,-66.61 -12.46,-23.07 -29.66,-41.38 -44.42,-62.16 -8.68,-9.04 -14.51,-20.98 -24.41,-28.85 -5.73,-12.78 -17,-19.99 -22.19,-33.3 -17.35,-18.19 -30.72,-40.33 -44.41,-62.16 -14.31,-21.92 -27.99,-44.53 -39.94,-68.82 -26.21,-46.33 -53.31,-91.75 -73.27,-144.31 -4.41,-4.84 -8.7,-9.79 -12.91,-14.84l0 -420.84z"/>
   <path class="fil2" d="M9961.12 6051.47c-1.12,-12.33 -1.94,-24.62 -2.27,-36.83 1.93,-45.26 -0.29,-91.17 6.04,-135.8 2.97,-33.67 5.6,-67.3 9.51,-100.85 3.91,-33.43 11.24,-66.54 15.83,-99.92 2.38,-11.13 6.9,-21.94 7.09,-33.4 4.64,-5.05 1.39,-11.27 6.68,-16.22 0.7,-5.28 5.47,-9.96 5.5,-15.33 3.17,-3.13 0.86,-7.05 1.56,-10.55 1.97,-2.94 -0.11,-6.48 0.35,-9.63 1.81,-6.19 2.73,-12.5 2.79,-18.95 6.84,-13.89 11.36,-28.22 17.07,-42.7 0.79,-1.99 2.33,-3.95 3.04,-6.02 3.53,-10.18 9.48,-23.62 12.82,-35.78 -6.77,-7.81 -7.63,-14.75 -14.97,-22.63 -1.28,-8.46 -1.69,-16.78 -1.68,-25.03 -1.39,-8.09 -3.19,-16.26 -5.02,-24.41 -6.25,-1.41 -13.06,1.05 -19.26,-0.7 -1.18,3.78 -2.81,7.47 -4.87,11.13 -1.19,0.53 -0.79,1.31 -0.33,2.11 -2.58,1.01 -0.36,-18.76 -8.6,-21.73 -10.25,-4.27 -21.77,5.61 -23.88,15.85 -3.78,1.19 -5.9,-8.67 -9.6,-7.86 -3.83,1.67 -7.44,1.8 -10.85,0.54 -5.16,3.9 -7.73,8.19 -9.39,12.6 -5.93,-5.96 -13.57,-0.43 -20.47,0.22 -9.69,11.49 -15.05,23.61 -22.45,35.43 -0.59,27.19 5.77,55.4 9.24,83.17 13.51,22.07 8.46,41.42 12.37,62.09 -0.97,7.39 -4.64,14.38 -2.22,22.27 -1.55,6.96 -2.41,14 -0.99,21.38 -7.56,25.44 -12.19,51.29 -17.83,77.02 -5.07,25.79 -7.03,52.06 -17.85,77.01 -7.76,25.41 -15.19,50.85 -26.24,75.8 -0.49,7.17 -4.25,12.76 -6.11,19.52 -4.75,17.33 -5.47,37.81 -10.5,56.6 1.91,12.27 2.06,24.02 3.14,37.05 0.21,2.36 0.9,4.32 1.18,6.62 0.07,0.71 -1.64,2.44 -1.53,3.01 0.95,4.34 1.66,10.02 2.05,15.65l56.92 76.62 63.74 -47.35z"/>
   <path class="fil2" d="M9890.43 5413.42c-4.93,9.06 -6.44,18.94 -4.92,29.51 -5.69,5.46 -5.44,12.33 -8.46,18.43 2.6,19.35 5.96,38.89 11.59,58.95 3.94,7.06 10.32,14.69 11.37,21.07 3.2,4.17 -4.4,5.77 -2.3,9.68 -2.38,3.18 -1.1,7.22 -3.5,10.41 -0.97,6.9 -5.12,13.09 -5.76,20.09 -7.79,12.8 -11.56,26.56 -16.61,40.01 -13.49,26.09 -27.15,52.16 -44.86,77.26 -32.52,50.55 -54.95,103.5 -80.77,155.64 -24.49,31.17 -47.21,62.57 -69.65,93.55l51.16 82.86 60.79 -37.53c7.72,-9.79 15.56,-19.55 21.81,-29.7 19.39,-19.6 38.82,-39.18 52.05,-60.22 8.33,-9.95 15.35,-20.21 18.67,-31.36 17.63,-20.02 26.42,-42.12 36.56,-63.93 5.68,-10.9 7.13,-22.81 12.12,-33.91 3.69,-23.3 11.67,-45.6 17.22,-68.47 8.65,-22.12 13.39,-45.19 21.1,-67.56 4.08,-8.93 7.96,-17.88 13.41,-26.47 0.76,-4.6 5.52,-8.22 5.14,-13.09 5.35,-3.85 0.99,-9.98 6.34,-13.83 8.65,-6.11 15.75,-12.62 22.91,-19.11 10.87,-13.78 19.22,-28.15 30.36,-41.87 2.2,-8.31 8.26,-15.75 9.81,-24.25 8.38,-6.86 6.04,-16.28 5.96,-25.15 -3.71,-8.87 -9.16,-10.13 -13.95,-14.55 -1.62,-8.54 5.72,-14.99 -2.23,-25.06 -4.83,-9.9 -13.5,-3.49 -20.1,-5.78 0.37,-7.12 1.5,-15.73 -2.42,-19.97 -1.03,-1.1 -1.15,-4.46 -1.02,-4.33 -2.98,-3.02 -7.43,-4.49 -12.35,-3.95 -5.11,1.42 -10.02,1.97 -14.47,0.66 4.42,-11.93 -8.46,-27.08 -20.57,-25.29 -16,10.16 -13.07,24.85 -25.84,35.78 0.99,8.39 -4.23,14.57 -8.17,21.56 -3.77,6.66 -6.8,14.99 -13.99,20.19 -23.25,-16.29 2.72,-33.44 -11.77,-53.88 -7.96,-6.28 -23.88,4.65 -24.66,13.58z"/>
   <path class="fil2" d="M7565.72 6022.74c-10.61,-39.56 -36.34,-74.98 -46.97,-114.54 -6.76,-9.19 -14.3,-16.75 -18.9,-24.5 -1.23,-2.11 -1.26,-7.57 -2.65,-9.73 -2.28,-3.57 -7.1,-4.93 -9.15,-7.98 -3.95,-5.8 -5.57,-12.98 -8.57,-18.61 -5.44,-10.06 -8.91,-17.17 -12.41,-26.27 -2.56,-6.64 -3.36,-12.79 -5.31,-19.47 -18.82,-64.17 -37.28,-127.07 -55.57,-190.7 -8.93,-20.94 -14.73,-42.57 -19.46,-64.33l-62.94 -35.94 -71.84 125.8c2.65,6.54 5.27,13.11 7.83,19.67 27.2,68.19 56.66,135.72 77.11,205.75 5.98,45.49 -22.09,100.25 -37.16,151.46 6.16,15.78 19.93,29.46 32.76,43.4 28.45,11.96 35.06,35.3 59.95,34.24 1.89,9.26 8.57,24.9 20.97,25.67 1.37,0.78 2.75,1.57 4.13,2.36 11.46,3.67 19.93,-3.63 28.34,-11.21 8.91,4.96 16.95,6.72 24.2,5.6 7.36,1.42 10.23,-13.68 16.83,-15.07 7.08,0.36 15.87,7 21.26,1.19 20.85,-19.49 40.45,-43.57 57.54,-76.78zm-186.27 14.22c-8.33,-4.13 4.91,-14.13 -0.01,-19.2 5.33,-7.83 1.16,-13.1 6.49,-20.95 4.2,-1.7 8.51,-2.88 12.98,-3.56 2.6,1.04 3.42,2.56 2.97,4.44 -1.4,13.16 -6.96,27.49 -16.24,42.82 -2.07,-1.18 -4.14,-2.37 -6.2,-3.54z"/>
   <path class="fil2" d="M7329.66 5999.86c11.02,-37.96 34.85,-71.76 45.88,-109.72 6.27,-8.77 13.11,-15.96 17.44,-23.37 1.16,-2.02 1.45,-7.28 2.74,-9.34 2.14,-3.41 6.36,-4.66 8.26,-7.58 3.68,-5.54 5.41,-12.43 8.26,-17.82 5.16,-9.62 8.49,-16.42 11.93,-25.14 2.52,-6.38 3.51,-12.27 5.5,-18.7 19.25,-61.55 38.15,-121.88 56.92,-182.94 8.68,-20.05 14.71,-40.81 19.82,-61.7l55.88 -33.89 55.84 121.89c-2.6,6.27 -5.17,12.55 -7.68,18.85 -26.66,65.33 -55.23,130.02 -76.17,197.19 -7.31,43.73 14.24,96.74 24.75,146.21 -6.05,15.12 -18.55,28.14 -30.26,41.41 -25.06,11.2 -31.87,33.59 -53.23,32.29 -2.07,8.89 -8.56,23.87 -19.27,24.47 -1.22,0.74 -2.44,1.48 -3.67,2.22 -10.04,3.41 -16.99,-3.71 -23.85,-11.1 -7.91,4.68 -14.91,6.29 -21.1,5.12 -6.39,1.28 -8.14,-13.28 -13.76,-14.69 -6.12,0.27 -13.98,6.56 -18.35,0.9 -17.03,-18.99 -32.73,-42.38 -45.87,-74.54zm159.64 15.76c7.37,-3.88 -3.55,-13.65 0.92,-18.48 -4.21,-7.6 -0.36,-12.63 -4.59,-20.24 -3.53,-1.68 -7.18,-2.87 -11,-3.57 -2.28,0.97 -3.07,2.42 -2.76,4.24 0.57,12.68 4.68,26.54 11.92,41.4 1.84,-1.12 3.68,-2.24 5.51,-3.35z"/>
  </g>
  <path class="fil3" d="M3461.12 6448.15c-36.35,42.67 -107.02,170.96 -71.68,214.97 19.77,24.64 51.16,51.49 74.68,72.96 39.17,35.74 78.61,71.14 116.93,107.81 44.14,42.22 159.41,150.74 155.53,216.27 -0.69,11.62 -1.29,26.75 -4.06,38.03 -5.76,23.43 -32.61,26.15 -42.09,4.25 -5.63,-12.99 -8.68,-31.08 -13,-45.86 -12,-14.68 -29.59,-31.37 -42.56,-44.78 -30.62,-31.67 -61.55,-63.04 -92.72,-94.16 -34.17,-34.13 -68.67,-68.06 -103.8,-101.21 -23.17,-21.88 -48.37,-46.02 -73.77,-65.69 -2.95,9.94 -4.49,27.07 -4.9,33.13 -8.83,130.79 228.51,419.56 158.76,523.03 -4.84,13.14 -12.53,29.28 -28.14,30.41 -22.99,1.67 -25.91,-22.56 -23.58,-39.21 0.07,-0.46 0.14,-0.86 0.23,-1.31 11.06,-53.03 -56.57,-191.04 -79.65,-240.41 -28.7,-61.41 -98.41,-197.6 -93.96,-263.65 0.84,-12.5 2.68,-24.88 4.82,-37.21 -3.78,4.51 -6.94,8.37 -8.78,10.61 -69.67,84.4 47.39,440.57 -68.84,555.52 -6.75,6.68 -16.97,7.72 -24.93,2.55 -5.59,-3.63 -8.82,-9.5 -9.11,-15.75 -5.66,-9.46 -8.84,-17.42 -2.7,-29.38 26.61,-51.87 27.37,-220.91 29.16,-282.53 2.25,-77.17 2.89,-240.45 35.9,-307.97 1.75,-3.57 5.28,-10.02 8.84,-16.81 -2.11,0.66 -3.93,1.25 -5.23,1.65 -30.57,9.58 -105.71,165.88 -120.72,196.58 -27.02,55.28 -91.19,201.35 -132.42,240.5 -1.88,1.79 -3.77,3.01 -6.17,4 -15.88,6.52 -30.32,3.47 -42.26,-7.76 -0.91,-0.66 -1.78,-1.42 -2.6,-2.26 -7.2,-7.41 -7.58,-19 -0.88,-26.88 23.31,-27.38 43.56,-69.73 58.89,-102.22 22.94,-48.63 43.89,-98.26 66.16,-147.21 33.48,-73.55 92.01,-201.24 164.81,-241.72 73.92,-41.1 75.53,-69.52 120.72,-134.04 22.01,-31.45 67,-124.79 117.81,-94.03 25.4,15.38 39.93,41.01 35.77,70.85 -6.33,45.45 -47.59,48.92 -50.49,18.94z"/>
  <g id="_1359022640">
   <path class="fil3" d="M2962.67 7090.54c0.91,-0.73 7.08,11.96 22.92,5.46 61.45,-58.36 193.5,-420.55 260.92,-441.65 58.01,-18.21 44.93,-7.38 20.31,43.01 -52.7,107.71 -15.9,494.72 -65.24,590.84 -4.1,8.02 7.52,12.34 4.92,19.24 106.92,-105.74 -8.3,-462.2 67.47,-554.03 78.33,-94.89 43.68,-23.88 39.32,40.66 -7.11,105.84 195.06,402.17 173.23,506.8 -3.04,21.7 4.6,23.43 14.04,-3.3 64.01,-85.36 -169.88,-380.68 -160.8,-515.05 2.23,-32.85 9.15,-68.68 32.92,-50.75 75.2,56.74 321.2,310.42 322.81,315.5 11.61,36.5 16.76,85.54 21.13,11.71 5.34,-90.34 -289.43,-316.96 -342.77,-383.35 -44.98,-56.09 34.22,-201.8 78.11,-247.15 11.23,-11.62 16.47,0.21 21.08,1.93 4.03,1.54 7.4,5.93 7.92,15.23 0.7,12.85 33.4,-40.62 -15.48,-70.19 -32.16,-19.5 -77.21,68.56 -91.09,88.39 -45.79,65.38 -47.62,95.7 -127.37,140.04 -118.19,65.69 -203.92,392.18 -284.36,486.65z"/>
  </g>
  <g id="_1359074768">
   <path class="fil3" d="M3594.87 7327.12c52.53,-22.2 140.28,-17.29 194.46,45.31 22.44,-19.72 37.84,-47.87 41.12,-80.2 6.81,-67.2 -41.27,-127.12 -107.39,-133.83 -102.95,-10.44 -142.12,80.86 -128.19,168.71zm-645.91 1334.5c-5.63,55.46 34.77,104.98 90.26,110.61 26.85,2.72 52.33,-5.38 72.08,-20.7 -63.82,-40.9 -92.04,-85.4 -102.07,-172.39 -32.38,14.05 -56.46,44.79 -60.27,82.48zm108.31 573.39c-2.6,25.53 16,48.31 41.53,50.9 25.53,2.59 48.31,-16 50.9,-41.53 2.59,-25.53 -16,-48.31 -41.53,-50.9 -25.53,-2.59 -48.31,16 -50.9,41.53zm4.05 -321.28c-4.54,44.67 28.01,84.56 72.68,89.1 44.67,4.53 84.56,-28.02 89.09,-72.68 4.53,-44.68 -28.02,-84.56 -72.68,-89.1 -44.67,-4.53 -84.56,28.02 -89.09,72.68zm-135.04 141.97c-3.67,36.17 22.66,68.45 58.83,72.12 36.17,3.67 68.45,-22.66 72.11,-58.83 3.68,-36.17 -22.66,-68.45 -58.83,-72.12 -36.17,-3.67 -68.45,22.66 -72.11,58.83zm375.6 -303.09c-4.85,47.81 30,90.52 77.81,95.37 47.81,4.86 90.52,-29.99 95.37,-77.8 4.85,-47.81 -29.99,-90.52 -77.8,-95.37 -47.81,-4.85 -90.52,29.99 -95.38,77.8zm-210.33 -205.32c59.73,61.81 129.91,72.31 207.26,47.52 -63.51,181.48 -257.38,98.04 -207.26,-47.52zm-45.62 -183.62c-23.98,38.32 -28.15,77.38 -11.9,117.24 -80.62,9.05 -117.92,-34.96 -114.89,-128.54 39.53,18.63 81.78,22.38 126.79,11.3zm271.26 -0.3c-48.93,31.56 -115.1,13.57 -144.43,-18.01 -38.35,22.58 -62.23,46.68 -69.96,72.38 -33.29,110.77 194.83,188.65 235.14,52.52 9.22,-31.15 3.27,-68.98 -20.75,-106.9zm74.26 190.97c27.57,-63.51 23.25,-135.42 -16.36,-216.62 253.79,-79.85 250.96,264.99 16.36,216.62zm-487.74 -480.57c49.95,-2.25 91.23,-18.84 123.44,-50.52 57.76,1.52 108.03,38.47 129.75,87.56 90.53,204.55 -212.68,307.05 -268.78,94.72 -10.22,-38.72 -2.34,-85.62 15.59,-131.76zm285.73 213.9c69.15,-66.58 61.51,-227.66 -24.33,-274.61 120.39,-81.83 260.91,-32.31 264.6,113.91 2.82,108.54 -81.99,226.75 -240.27,160.69zm296.6 -81.8c19.23,-49.07 22.46,-98.24 -2.34,-149.59 25.81,-38.8 66.86,-62.95 109.33,-69.25 216.71,-31.97 196.82,317.15 1.05,280 -34.71,-6.59 -71.71,-26.76 -108.05,-61.16zm-637.18 -148.37c-30.68,-6.35 -53.72,-24.05 -70.1,-51.63 -24.19,63.85 -11.32,105.13 24.2,132.61 4.83,-33.63 21.13,-59.99 45.89,-80.98zm131.13 -277.01c1.22,53.35 16.46,100.96 56.57,138.52 -30.18,45.64 -62.75,70.96 -93.94,81.53 -58.72,19.86 -112.66,-12.44 -136.81,-59.48 -24.08,-46.91 -22.26,-113.43 25.86,-147.39 29.9,-21.09 77.72,-29.7 148.32,-13.17zm415.98 141.69c-110.15,-35.63 -198.25,-23.01 -262.3,42.09 -95.66,-109.67 -106.02,-298.9 60.01,-343.08 161.1,-42.87 302.01,133.74 202.29,300.99zm180 -157.73c-8.92,87.93 55.12,166.43 143.06,175.35 87.93,8.92 166.43,-55.12 175.35,-143.06 8.92,-87.93 -55.13,-166.43 -143.06,-175.35 -87.93,-8.91 -166.43,55.13 -175.35,143.06zm230.98 -212.26c-111.42,-300.28 -459.51,-141.01 -288.96,166.4 62.18,-143.78 164.29,-184.28 288.96,-166.4zm-423.4 44.12c-89.25,-29.27 -178.4,-40.64 -266.93,9.04 -103.04,-284.44 178.48,-354.97 299,-146.99 -13.4,41.55 -24.28,87.1 -32.06,137.95zm-376.13 -64.48c-77.56,-67.61 -161.44,-98.29 -253.98,-77.48 -41.15,-278.76 249.84,-321.58 325.88,-110.77 -43.78,53.86 -62.61,118.89 -71.9,188.25zm-41.71 175.82c-88.68,-1.33 -162.39,4.6 -213.55,68.06 -43.79,-30.11 -65.5,-70.15 -70.34,-109.62 -18.32,-148.67 176.41,-204.03 256.31,-105.7 27.76,34.16 40.16,84.86 27.59,147.26z"/>
  </g>
  <g id="_1337044000">
   <path class="fil3" d="M7479.26 10450.21c55.4,60.03 105.85,131.55 151.57,218.73 192.2,366.39 154.4,852.13 379.01,1141.62 83.82,108.06 130.04,81.39 216.52,71.08 74.21,-8.84 188.29,-20.2 112.65,78.5 -45.41,59.29 -179.86,78.88 60.27,144.63 99.17,27.16 219.58,39.58 297.59,34.81 124.05,-150.16 84.49,-416.28 -138.7,-500.04 -282.85,-106.14 -315.72,-35.53 -399.2,-368.34 -219.31,-874.46 -312.6,-1022.07 -672.95,-1245.36 -56.29,112.24 -73.15,245.81 -6.76,424.37z"/>
   <path class="fil3" d="M8264.65 11097.39c50.13,171.12 132.56,353.01 306.97,306.94 38.94,-29.59 39.27,-113.6 16.68,-225.1 -7.99,-39.48 -50.6,-174.76 -106.14,-334.45 -80.22,-230.69 -153.88,-419.75 -241.1,-587.83 -133.98,-258.14 -308.24,-474.68 -509.99,-664.01 -1221.2,-1146.05 -3449.65,-1295.73 -3846.69,-3644.8 -107.54,-636.23 -7.9,-1292.27 384.63,-1819.06 389.98,-523.33 991.14,-966.99 1590.44,-1129.63 -686.99,6.59 -1378.57,475.72 -1810.83,1084.01 -375.97,529.08 -499.74,1208.38 -412,1865.09 164.02,1227.6 956.41,1875.57 1784.45,2399.25 481.47,304.51 1090.1,661.5 1618.15,1071.68 416.62,323.64 783.13,680.41 997.4,1070.66 90.94,165.63 151.3,345.37 228.02,607.23z"/>
   <path class="fil3" d="M7346.29 11463.84c-93.02,101.03 -150.71,389.74 -119.61,562.78 30.85,171.59 114.02,366.66 196.2,499.81 103.89,168.35 245.71,312.37 412.86,427.39 117.51,80.85 143.2,-162.47 281.41,-111.87 731.82,267.87 720.58,253.04 1351.29,381.75 -162.59,-60.59 396.09,-8.07 222.22,-73.38 -285.89,-107.37 -600.58,-57.22 -895.87,-121.72 -379,-82.81 -735.89,-294.35 -1063.28,-631.11 -370.58,-381.2 -287.07,-669.81 -385.22,-933.64z"/>
   <path class="fil3" d="M8385.26 12354.06c100.07,-33.08 77.55,-73.07 -3.23,-106.55 -146.72,-60.8 -223.21,-17.99 -355.21,-190.57 -73.31,-95.85 -196.63,-264.19 -253.24,-377.82 -94.67,-190 -187.97,-878.07 -307.77,-945.56 -13.86,227.03 21.23,573.34 35.76,806.21 61,977.9 1087.41,1293.87 1323.15,1206.62 27.63,-135.62 -18.02,-209.6 -75.41,-273.14 -83.81,-92.79 -74.4,-114.22 -187.81,-61.06 -49.82,23.36 -94.05,47.46 -149.44,45.43 -104.75,-3.83 -67.11,-90.23 -26.8,-103.56z"/>
   <path class="fil3" d="M7613.81 12260.36c115.95,168.14 212.25,323.96 328.2,492.09 -147.08,236.24 -308.97,399.08 -496.76,542.71 -101.26,77.45 -245.15,166.43 -357.24,263.55 -65.25,56.54 -119.73,115.84 -148.74,177.24 -89.81,189.96 -63.18,306.41 149.88,404.26 170.84,78.45 343.47,117.4 353.31,314.62 -122.13,-101.78 -152.89,-151.47 -286.46,-204.51 -167.25,-66.41 -352.09,-50.59 -383.87,-234.02 -15.67,-90.39 11.93,-175.52 33.85,-261.35 -405.31,104.87 -523.96,156.08 -555.07,441.36 -60.33,-201.24 -25.36,-296.38 60.87,-353.51 38.3,-25.37 86.71,-43.25 141.38,-59.59 219.81,-65.74 353.98,-135.78 507.54,-254.4 425.19,-328.43 567.13,-588.61 536.61,-633.24 -33.53,-49.06 -279.29,137.94 -677.28,212.74 -131.51,24.72 -278.59,54.07 -527.04,138.06 -172.41,87.44 -385.33,289.53 -477.53,550.94 -26.1,74.02 -42.53,152.79 -45.61,235.07 -45.12,-78.09 -63.42,-151.51 -62.71,-219.83 4.61,-440.83 801,-669.74 293.98,-576.55 -153.64,28.24 -264.62,60.36 -353.93,94.48 -150.88,57.62 -235.82,101.7 -319.51,227.14 -44.02,65.99 -163.1,320.74 -83.67,30.82 7,-25.6 17.41,-49.44 30.48,-71.65 103.71,-176.15 548.65,-342 994.15,-429.89 684.04,-134.94 920.44,-159.05 1108.91,-366.61 90.66,-99.83 -112.64,-480.67 236.25,-459.93z"/>
   <path class="fil3" d="M8069.96 14430.07c-21.43,-48.71 -31.99,-97.04 -36.89,-146.09 -15.18,-152 24.06,-310.85 -36.82,-508.93 153.95,112.38 550.2,201.16 833.67,429.41 46,37.04 89.03,77.75 127.57,122.82 34.68,40.57 51.73,79.23 37.05,-3.87 -7.16,-40.59 -24.4,-80.36 -49.19,-118.93 -127.47,-198.29 -455.06,-364.9 -644.72,-448.82 -143.05,-63.3 -320.8,-141.9 -347.29,-246.68 -32.08,-126.9 -17.16,-386.51 45.94,-513.79 59.75,-120.55 142.03,-102.77 384.54,-21.27 149.4,50.21 284.47,155.89 496.82,196.72 205.77,39.56 398.23,44.76 593.95,114.82 435.25,155.8 505.47,360.19 535.06,703.62 102.69,-454.51 -63.22,-703.53 -444.04,-788.13 365.29,46.36 735.49,159.54 1108.4,309.7 202.43,81.53 256.48,95.81 59.62,-82.44 -103.59,-93.82 -234.25,-153.43 -366.37,-203.64 -207.66,-78.92 -347.94,-117.51 -569.15,-144.08 -290.73,-34.92 -778.93,-14.94 -1025.63,-109.34 -478.72,-183.14 -628.03,-248.71 -1017.11,-549.62 -19.41,9.78 -27.33,18.63 -34.21,36.68 -34.3,89.93 84.07,280.78 49.76,370.72 -7.4,178.65 -14.81,357.29 -22.2,535.94 13.88,85.48 25.61,171.08 59.61,250.33 72.43,168.81 143.95,268.21 155.37,507.94 2.42,50.79 6.16,100.03 18.1,149.44 12.54,51.87 34.12,103.93 72.69,158.19 53.65,75.49 43.99,64.09 15.48,-0.72z"/>
   <path class="fil3" d="M10027.52 2999.46c1099.6,392.06 2091.53,1927.45 1895.89,2935.84 -122.65,632.15 -437.5,1253.86 -865.68,1699.4 -759.99,790.79 -2191.92,1162.47 -2874.4,1981.19 -171.15,205.31 -232.06,271.31 -286.54,546.52l330.95 596.18c2.88,-50.55 144,-8.63 147.94,-55.33 3.56,-42.05 -6.27,-91.53 -20.73,-142.49 -35.48,-125.05 -61.9,-193.53 -67.72,-257.5 -22.11,-243.28 311.47,-663.97 472.92,-827.84 635.05,-644.5 1740.32,-1179.08 2492.33,-1759.84 480.03,-427.78 795.41,-1075.2 910.62,-1759.62 197.92,-1175.63 -902.16,-2909.29 -2135.58,-2956.52z"/>
  </g>
  <g id="_1337029056">
   <path class="fil4" d="M14413.72 7686.98c-32.77,95.01 -97.9,61.32 -172.08,80.83 -36.26,57.24 -32.58,88.44 -109.05,84.61 -54.23,-2.72 -105.87,-11.17 -155.88,2.68 82.08,111.02 269.17,228.2 240.27,372.07l-72.04 29.17c8.54,49.72 27.61,94.24 37.88,143.7 18.17,87.42 -12.59,95.56 -59.82,125.88 9.89,74 34.23,199.89 -66.49,221.95 -40.77,-6 -36.58,-65.47 -66.57,-150.64 -27.93,-79.35 -81.1,-237.91 -124.71,-307.3l-85.16 -144.07c-31.17,-45.51 -55.1,-84.75 -88.16,-135.63 -79.24,-121.98 -215.55,-269.33 -256.34,-336.44 -19.72,-32.44 -30.33,-37.56 -24.54,-87.23 322,52.4 200.92,48.13 510.07,23.42 171.2,-13.7 331.66,-25.4 492.62,77.01z"/>
   <path class="fil4" d="M13766.19 8712.81c-68.94,-29.89 -108.66,-115.1 -150.8,-144.83 -32.28,-22.77 -52.94,-11.88 -78.87,-38.33 -30.73,-31.35 -60.9,-182.88 -109.88,-257.57 -37.31,67.32 -91.29,273.12 -176.94,222.15 -25.65,-19.65 -19.42,-32.94 -12.14,-99.35l17.48 -338.54c0.14,-81.3 -2.69,-386.44 24.62,-449.74 100.27,40.32 223.19,208.97 272.23,276.14 123.53,169.25 113.18,162.45 207.36,315.86 39.13,63.75 260.2,451.13 196.54,533.91 -25.46,33.09 -57.77,-11.59 -91.9,-30.56 -60.77,-33.77 -60.41,-10.31 -97.68,10.85z"/>
   <path class="fil4" d="M13603.98 7304.71c83.93,-23.42 251.38,-53.97 357.38,-15.47l5.83 52.29c73.22,14.42 201.39,25.84 257.53,74.13 45.97,39.56 4.55,58.46 51,87.55 60.56,37.9 83.61,17.59 65.2,93.62 -237.73,-28.09 -189.13,-49.75 -456.52,-27.23 -189.88,16 -261.45,32.99 -469.98,-41.61 -102.03,-36.5 -123,-51.87 -108.43,-157.51 20.3,-147.11 147.44,-413.83 260.26,-501.77 33.54,-26.15 53.84,-43.25 100.61,-35.52 3.25,13.85 5.34,40.75 13.84,57.92 10.95,22.12 25.18,25.03 38.56,47.06 56.14,92.41 -97.44,175.1 -80.25,236.39 7.9,28.15 10.92,-13.23 7.99,32.29 -2.29,35.57 -29.96,54.32 -43.02,97.83z"/>
   <path class="fil4" d="M13230.97 7431.5c-69.78,-5.56 -60.98,-39.47 -83.65,-83.05 -52.54,-101.02 -145.03,-225.88 -85.18,-338.91 19.39,-36.65 51.08,-53.65 77.01,-95.24 52.27,-83.79 61.39,-7.73 111.66,-33.35 9.64,-4.91 57.05,-75.6 77.81,-93.6 34.19,-29.64 67.36,-26.99 125.61,-8.15 47.57,-39.42 77.34,-76.74 155.49,-46.1 -7.51,59.57 -74.29,97.67 -111.24,136.64 -38.53,40.65 -77.06,92.92 -108.29,148.82 -35.53,63.56 -60.25,120.86 -82.82,190.77 -18.18,56.34 -43.58,183.71 -76.4,222.18z"/>
   <path class="fil4" d="M13111.44 7572.76c26.24,-2.02 55.47,0.15 88.85,8.41 1.13,38.16 63.49,829.17 -56.72,731.31 -17.46,-14.2 -48.15,-79.2 -97.4,-138.77 -72.09,-87.2 -41.49,-63.2 -23.25,-185.86 16.82,-113.2 0.33,-87.68 51.08,-200.79 38.64,-86.12 8.21,-147.58 37.44,-214.29z"/>
   <path class="fil4" d="M12459.43 6621.13c119.83,32.93 35.15,89.45 198.2,199.49 175.94,118.75 289.86,248.5 398.44,421.16 12.04,19.16 139.36,227.38 73.77,267.98 -52.04,32.2 -68.31,-68.35 -82.91,-98.04 -123.61,-251.49 -229.32,-356.82 -452.41,-548.38 -71.7,-61.57 -180.21,-138.43 -135.1,-242.21z"/>
  </g>
  <g id="_1337054592">
   <path class="fil4" d="M8554.77 1909.16c1.9,0.46 6.53,-0.31 5.79,0.91 -2.48,3.99 47.41,-7.46 118.41,18.36 46.67,16.97 82.88,23.28 120.74,34.02 22.12,-39.6 1.23,-34.13 44.92,-76.06 201.92,103.53 236.63,213.38 307.49,219.27 25.83,-30.7 -0.38,-74.64 -8,-115.87 -17.33,-93.73 8.85,-54.04 16.44,-118.59 10.33,-87.89 -75.21,-148.98 9.5,-235.35 85.7,108.82 72.59,410.73 383.66,719.66 55.21,54.84 154.76,131.75 186.12,199.96 -82.12,52.56 -540.25,-109.56 -665.19,-161.42 -86.39,-35.86 -612.63,-300.33 -622.12,-408.35 2.77,-39.65 66.77,-50.93 102.25,-76.54z"/>
   <path class="fil4" d="M8800.46 3028.59c-102.85,-140.84 133.86,-280.05 139.1,-314.81 -3,-62.52 -110.71,-112.46 -156.01,-136.57 -57.86,-30.82 -144.92,-41.77 -180.51,-102.25 16.99,-28.68 22.16,-36.69 55.14,-64.26 -60.12,-52.63 -118.56,-54.61 -185.42,-118.52 -35.25,-33.69 -49.26,-51.22 -55.58,-95.14 -4.71,-32.69 -18.83,-77.43 -12.29,-104.58 50.7,-18.29 98.22,31.63 140.28,58.01 242.69,152.28 425.37,273.08 695.27,378.01 103.06,40.08 196.54,63.65 294.48,89.09 19.77,5.13 317.25,29.37 239.01,94.47 -34.72,28.89 -256.73,35.86 -317.14,47.47 -105.01,20.15 -213.01,51.78 -318.38,92.65 -126.77,49.17 -223.89,125.4 -337.95,176.42z"/>
   <path class="fil4" d="M10296.28 1896.71c-120.98,137.83 -304.12,175.01 -345.71,469.42 -7.03,49.8 -1.49,140.05 -28.96,177.93 -165.27,-45.89 -381.27,-296.66 -489.58,-481.79 -87.1,-148.9 -224.16,-489.01 -176,-598.38 148.04,-46.42 215.11,176.82 286.22,294.16 40.95,67.58 53.85,-27.26 137.37,169.09 28.8,67.69 48.83,149.86 100.11,203.27 111.08,-41.08 48.41,-89.68 256.94,-236.78l59.91 40.38c56.24,-37.04 185.97,-137.09 199.69,-37.29z"/>
   <path class="fil4" d="M8915.18 3066.97c-2.52,-60.01 33.84,-67.94 96.12,-103.51 135.76,-77.51 264.3,-116.45 414.34,-126.82 462.76,-32 314.38,-82.78 553.94,-194.55 78.82,44.17 132.23,147.38 115.83,220.96 -12.44,55.8 -159.29,147.82 -210.49,202.39 -129.73,138.23 -165.39,308.09 -288.26,349.09 -35.84,11.96 -29.13,9.78 -58.87,-9.55 -85.82,-55.78 -94.76,-64.17 -64.5,-208.52 6.03,-28.76 13.04,-77.49 6.85,-113.96 -3.94,-23.26 -13.75,-43.74 -30.42,-64.67 -18.49,-23.23 -33.7,-36.22 -54.67,-34.09 -34.98,3.55 -74.68,43.03 -122.14,43.98 -32.98,0.66 -21.83,-9.8 -53.96,-2.86 -50.75,10.97 -212.66,111.83 -303.77,42.12z"/>
   <path class="fil4" d="M10448 2167.8c-16.64,39.98 -48.72,77.87 -79.24,116.18 -85.76,107.71 -19.63,38.1 -16.82,131.86 -82.28,75.44 -261.59,96.44 -330.66,78.11 -41.14,-79.75 13.11,-257.43 65.33,-335.74 74.21,-111.32 213.85,-202.74 338.08,-262.41 42.52,56.94 15.43,80.68 -10.67,134.8 -44.82,93 -20.16,56.81 33.98,137.2z"/>
   <path class="fil4" d="M10823.41 3030.71c-113.7,-60.97 -64.74,-144.63 -402.64,-278.33 -292.56,-115.77 -331.16,-25.25 -420.36,-133.67 69.48,-31.94 386.5,77.43 466.04,109.64 71.39,28.92 175.78,79.62 250.17,138.87 63,50.18 165.93,157.11 106.8,163.48z"/>
  </g>
  <g id="_1337087424">
   <path class="fil4" d="M1126.6 8253.02c1.31,-1.45 2.87,-5.9 3.57,-4.66 2.33,4.1 16.19,-45.18 72.88,-95.11 37.27,-32.82 60.15,-61.57 87.74,-89.65 -24.15,-38.4 -29.38,-17.44 -45.22,-75.89 187.67,-127.58 300.71,-105.36 339.86,-164.72 -14.57,-37.39 -65.69,-35.45 -105.53,-48.53 -90.56,-29.73 -43.19,-33.66 -96.2,-71.26 -72.18,-51.21 -166.79,-5.44 -201.98,-121.18 136.6,-23.04 395.26,133.22 815.51,8.31 74.58,-22.16 189.8,-72.65 264.71,-67.48 6.75,97.25 -355.16,421.6 -460.58,506.37 -72.87,58.63 -557.26,393.66 -656.61,350.21 -33.46,-21.43 -12.69,-83.02 -18.16,-126.42z"/>
   <path class="fil4" d="M2226.79 8574.07c-172.89,22.74 -181.59,-251.73 -209.59,-273.01 -56.31,-27.34 -151.78,43.25 -194.65,71.44 -54.79,36 -106.13,107.16 -176.27,109.38 -17.02,-28.64 -21.58,-37.02 -29.95,-79.19 -75.03,27.53 -104.78,77.87 -192.92,105.91 -46.46,14.79 -68.56,18.69 -110.13,3.17 -30.95,-11.54 -76.97,-20.6 -97.67,-39.36 8.26,-53.25 74.86,-71.02 118.18,-95.29 249.98,-139.98 443.56,-242.38 665.06,-428.92 84.57,-71.24 150.08,-141.98 219.36,-215.73 13.98,-14.9 177.87,-264.33 197.49,-164.46 8.7,44.32 -91.61,242.49 -110.37,301.07 -32.66,101.8 -56.69,211.77 -71.34,323.83 -17.62,134.82 2.73,256.61 -7.18,381.15z"/>
   <path class="fil4" d="M1950.58 6718.72c62.95,172.24 7.78,350.8 246.21,528.44 40.34,30.05 122.2,68.44 142.28,110.7 -119.52,123.03 -443.13,192.39 -657.53,198.67 -172.44,5.06 -536.62,-37.71 -609.51,-132.41 30.24,-152.18 258.3,-104.02 395.37,-110.16 78.93,-3.54 1.9,-60.31 214.25,-39.5 73.19,7.18 154.92,29 226.37,9.61 17.21,-117.18 -55.49,-85.49 -84.62,-339.01l64.17 -33.21c-5.56,-67.12 -31.15,-228.93 63.01,-193.13z"/>
   <path class="fil4" d="M2315.47 8491.79c-53.87,-26.55 -43.39,-62.26 -44.74,-133.99 -2.94,-156.29 24.51,-287.77 87.33,-424.41 193.77,-421.45 78.08,-315.58 94.84,-579.41 59.58,-37.36 143.18,-44.04 204.05,-21.75 -8.58,44.15 -9.12,90.99 -2.38,136.69l1.08 7.31c-54.53,49.48 -82.87,122.06 -73.02,202.04 9,73.12 49.82,135.01 109.26,177.21 -2.8,26.93 -0.7,54.6 6.15,81.39l-12.73 33.58c-8.99,23.74 -14.93,47.59 -17.38,70.99 -20.58,-14.94 -45.21,-30.19 -67.97,-38.03 -22.3,-7.7 -44.98,-8.89 -71.34,-4.32 -29.24,5.1 -47.94,12.22 -56.13,31.64 -13.66,32.41 1.96,86.17 -19.97,128.27 -15.23,29.27 -19.06,14.48 -28.37,45.98 -14.7,49.81 -3.81,240.26 -108.67,286.79z"/>
   <path class="fil4" d="M2261.23 6715.53c27.12,33.76 44.97,80.09 63.97,125.23 53.4,126.91 24.02,35.51 107.66,77.99 26.75,108.35 -40.77,275.79 -89.98,327.61 -89.7,-2.13 -219.63,-134.91 -263.32,-218.28 -62.11,-118.5 -75.4,-284.88 -68.21,-422.51 70.35,-10 78.19,25.15 113.18,73.99 60.12,83.92 40.19,44.94 136.7,35.96z"/>
   <path class="fil4" d="M2968.4 6878.07c-51.85,25.13 -117.75,67.18 -207.21,141.62 -241.86,201.26 -180.93,278.52 -318.83,304.83 5.29,-76.28 253.24,-302.06 319.64,-356.43 57.35,-46.94 147.05,-111.01 231.84,-148.65 -8.57,19.49 -16.99,39.08 -25.44,58.63z"/>
  </g>
  <g id="_1337089696">
   <path class="fil4" d="M13691.72 3476.52c-1.41,1.43 -5.88,3.29 -4.56,3.94 4.33,2.14 -45.43,19.22 -93.38,80.3 -31.52,40.14 -59.69,65.3 -86.9,95.23 -40.81,-22.55 -19.6,-29.13 -80.5,-42 -120.03,199.96 -90.69,314.67 -149.33,358.27 -39.21,-12.76 -40.19,-65.34 -55.92,-105.47 -35.75,-91.2 -37.05,-42.36 -78.7,-94.58 -56.74,-71.09 -15.24,-170.85 -136.05,-200.23 -15.73,141.49 159.6,397.86 55.8,836.33 -18.42,77.82 -63.55,198.98 -53.9,275.54 100.2,1.29 412.03,-388.87 492.91,-501.95 55.94,-78.19 371.66,-594.65 321.31,-694.08 -23.94,-33.1 -85.92,-8.21 -130.79,-11.3z"/>
   <path class="fil4" d="M14084.92 4586.86c13.32,-178.74 -268.82,-171.76 -292.27,-199.24 -31.33,-56.2 35.57,-158.26 62.01,-203.88 33.77,-58.3 103.82,-115.11 102.04,-187.21 -30.38,-15.81 -39.26,-19.99 -83,-26.16 23.9,-78.57 73.82,-112.01 97.49,-204.08 12.48,-48.54 15.2,-71.43 -3.14,-113.19 -13.64,-31.09 -25.6,-77.8 -46.03,-97.95 -54.18,11.57 -68.56,80.93 -90.94,126.79 -129.15,264.62 -223.02,469.2 -401.6,707.29 -68.2,90.93 -136.98,162.24 -208.66,237.6 -14.46,15.21 -260.94,197.84 -157.32,212.18 45.98,6.37 243.53,-108.06 302.55,-130.72 102.58,-39.41 214.02,-70.43 328.15,-91.96 137.32,-25.9 263.47,-12.09 390.69,-29.47z"/>
   <path class="fil4" d="M12165.08 4410.96c180.4,54.62 360.42,-12.34 556.52,222.03 33.17,39.65 77.31,121.41 121.85,139.56 119.32,-129.76 171.72,-465.85 165.75,-686.21 -4.81,-177.23 -69.8,-548.46 -171.2,-617.77 -154.4,39.84 -91.77,271.08 -90.12,412.08 0.94,81.21 -61.79,5.45 -28.12,222.14 11.61,74.71 38.73,157.31 22.97,231.75 -119.25,24.44 -90.93,-51.99 -352.77,-67.19l-30.37 67.77c-69.2,-1.81 -236.71,-18.7 -194.53,75.85z"/>
   <path class="fil4" d="M14005.65 4682.62c-30.38,-53.74 -66.41,-40.92 -140.08,-38.16 -160.55,6.05 -293.88,41.84 -430.45,114.22 -421.23,223.26 -319.3,98.4 -589.03,130.89 -44.81,81.34 -35.41,200.4 18.85,255.71 41.14,41.95 219.25,42.56 293.55,62.38 188.25,50.23 311.59,179.11 441.07,148.2 37.76,-9.02 30.73,-7.27 46.19,-40.3 44.63,-95.27 47.86,-107.45 -56.9,-217 -20.86,-21.82 -53.44,-60.54 -67.85,-95.73 -9.18,-22.44 -11.74,-45.63 -8.55,-72.95 3.53,-30.31 9.75,-49.91 29.21,-59.43 32.45,-15.89 88.53,-2.99 130.47,-27.92 29.15,-17.33 13.74,-20.4 45.53,-31.79 50.26,-17.98 246.32,-17.84 287.98,-128.13z"/>
   <path class="fil4" d="M12179.82 4729.91c36.22,25.86 84.79,41.52 132.22,58.38 133.32,47.44 37.82,22.59 86.25,105.95 112.75,21.17 280.64,-57.82 330.97,-111.31 -7.37,-91.93 -151.17,-217.55 -239.24,-257.56 -125.19,-56.87 -296.69,-60.85 -437.5,-45.5 -6.2,72.76 30.33,78.78 82.49,111.85 89.6,56.84 48.44,38.64 44.81,138.19z"/>
   <path class="fil4" d="M12353.7 5549.22c53.56,-100.27 -111.79,-197.43 108.85,-434.8 191.05,-205.53 353.2,-97.58 316.79,-253.6 -122.3,-27.06 -350.14,175.12 -401.11,231.94 -45.77,51 -101.76,136.33 -111.74,226.66 -8.44,76.5 10.05,233.34 87.2,229.8z"/>
  </g>
  <g id="_1337071264">
   <path class="fil3" d="M12639.83 5686.69c153.49,-2.65 180.39,258.5 0.99,234.13 -167.09,-22.7 -160.31,-231.38 -0.99,-234.13z"/>
   <path class="fil3" d="M12898.1 5808.46c181.52,-5.49 165.57,214.43 17.84,217.17 -149.11,2.77 -165.39,-212.72 -17.84,-217.17z"/>
   <path class="fil3" d="M12852.67 5446.41l-50.82 -91.28c-21.45,24.85 -18.58,55.35 -28.84,88.02l-72.1 19.29c-13.45,-47.78 43.66,-82.18 25.94,-159.81 -24.78,-108.58 -98.41,-38.18 -107.1,-113.22 12.15,-13.43 31.57,-18.6 50.36,-17.56 14.89,0.83 34.08,5.78 48.91,9.82 31.86,8.7 58.25,24.06 87.65,53.09 55.28,54.55 112.46,157.82 45.99,211.64z"/>
   <path class="fil3" d="M12794.86 5502.27c138.71,-3.96 108.99,184.54 -12.7,179.21 -113.18,-4.97 -145.92,-174.69 12.7,-179.21z"/>
   <path class="fil3" d="M12993.74 5582.1c138.96,-14.52 160.18,149.88 33.36,168.77 -123.32,18.36 -160.83,-155.47 -33.36,-168.77z"/>
   <path class="fil3" d="M12994.4 5353.88c113.83,3.04 99.25,145.89 -3.81,142.98 -91.5,-2.57 -104.54,-145.87 3.81,-142.98z"/>
   <path class="fil3" d="M12713.27 5951.89c5.88,30.42 -6.71,43.46 10.6,74.82 0.09,0.15 130.26,158.11 -32.64,174.18 58.43,-47.46 22.26,-96.8 -25.79,-145.55 -67.28,-68.25 -26.89,-119.42 47.83,-103.46z"/>
  </g>
  <path class="fil3" d="M12190.77 8429.47c-19.23,-49.07 -22.46,-98.24 2.34,-149.59 -25.81,-38.8 -66.86,-62.95 -109.33,-69.25 -216.71,-31.97 -196.82,317.15 -1.05,280 34.71,-6.59 71.71,-26.76 108.05,-61.16z"/>
  <g id="_1337081888">
   <g>
    <path class="fil4" d="M6261.06 1192.87c-91.16,1.51 -147.47,-47.87 -194.11,123.6 -26.82,98.66 0.11,186.14 28.67,272.67 27.7,83.93 64.62,165.97 55.32,266.22 -4.06,43.84 -32.63,93.57 5.76,122.95 37.43,28.65 85.43,-18.28 108.05,-37.07 130.04,-108.03 225.17,-196.59 325.96,-321.38 45.3,-56.12 239.19,-315.09 237.9,-407.03 -27.99,-0.85 -198.72,-5.38 -207.43,-8.6 -12.23,-99 -30.77,-353.13 -96.14,-427.37 -31.38,9.51 -26.14,17.72 -44.73,37.65 -57.12,61.22 -117.27,59.35 -178.4,241.4 -14.63,43.56 -19.71,98.7 -40.84,136.95z"/>
    <path class="fil4" d="M6207.51 2146.12c216.65,31.24 628.89,-64.15 852.99,-175.3l92.43 -60.09c-22.61,-36.3 -39.4,-26.95 -64.73,-61.03 43.55,-87.12 266.71,-252.24 236.9,-405.45 -76.53,-18.79 -178.98,-4.72 -260.69,7.12 -37.81,5.48 -79.77,15.71 -118.35,14.4 -45.24,-1.53 -70.37,-19.56 -120.01,-22.27 -12.44,29.33 -149.67,196.9 -180.59,230.2 -107.06,115.33 -263.95,261.9 -395.63,352.47 -28.38,19.51 -22.89,11.57 -31.03,54.05 -8.59,44.93 -19.86,27.14 -11.31,65.91z"/>
    <path class="fil4" d="M5546.55 1506.01l-131.27 38.82c-1.65,173.11 72.99,245.82 191.05,299.47 61.53,27.97 116.23,41.13 186.16,55.16 100.05,20.07 101.61,34.44 149.03,92.91 25.66,-3.81 50.44,-26.17 126.59,-50.96 -4.24,-258.83 -109.35,-466.3 -78.41,-642.81 10.31,-58.83 17.37,-60.59 5.42,-93.06 -75,-21.17 -82.28,14 -129.13,13.71 -61.75,-0.39 -87.84,-146.87 -310.32,-152.39 4.7,58.14 59,77.57 5.55,221.14 -69.15,185.69 -26.82,105.09 -14.68,218.02z"/>
    <path class="fil4" d="M5060.91 1728.01c-6.72,227.47 59.34,388.78 228.71,446.09 -7.18,95.31 -23.59,197.7 65.45,225.21 225.9,69.83 572.14,-274.15 523.46,-375.06 -24.18,-50.16 -336.41,-39.41 -444.51,-165.58 -59.9,-69.9 -47.19,-124.53 -134.81,-168.72 -59.68,-30.1 -192.31,8.25 -238.29,38.05z"/>
    <path class="fil4" d="M6951.69 2131.04c-29.25,2.49 -164.19,54.43 -308.53,72.57 -375.32,47.18 -537.32,-69.02 -616.6,145.05 -45.48,122.8 -24.48,226.19 53.64,294.65 133.21,116.74 362.61,61.76 399.27,-27.48 34.83,-84.82 -30.59,-84.89 77.17,-115.24 140.62,-39.6 384.85,-193.43 395.05,-369.55z"/>
   </g>
   <path class="fil4" d="M5012.36 2872.33c154.75,-113.29 258.64,63.93 644.86,-328.26 334.41,-339.56 214.39,-507.97 429.78,-526.06 12.79,150.07 -324.62,536.81 -416.67,628.26 -82.64,82.1 -216.52,192.27 -347.81,243.77 -111.19,43.61 -331.55,85.71 -310.16,-17.71z"/>
  </g>
  <g id="_1337062240">
   <g>
    <path class="fil3" d="M7375.83 1996.78c44.28,-65.64 121.3,-56.52 169.14,-101.58 -58.4,-52.02 -173.79,35.86 -230.63,48.02l26.85 -69.93c-18.44,-14.92 -29.47,-24.58 -58.92,-31.84 -51.18,61.22 -71.63,138.44 -122.9,189.76 -24.02,24.07 -67.86,52.31 -79.08,73.77 -29.55,56.54 10.04,78.79 60.38,57.2 22.37,-9.59 109.22,-88.66 195.61,-89.21 49.09,-0.32 107.45,31.71 124.32,-10.39 13,-32.43 -8.59,-35.14 -24.46,-42.7 -7.25,-3.45 -19.62,-5.74 -28.13,-8.82l-32.17 -14.29z"/>
    <path class="fil3" d="M7866.48 1909.68c25.19,227.61 258.72,154.24 266.15,-13.63 7.53,-169.75 -285.31,-159.44 -266.15,13.63z"/>
    <path class="fil3" d="M7741.85 2308.31c32.29,151.49 268.45,67.35 228.5,-76.62 -42.45,-152.92 -262.97,-85.15 -228.5,76.62z"/>
    <path class="fil3" d="M7575.64 1765.3c14.21,177.56 228.64,145.64 226.05,-16.58 -2.48,-155.21 -238.63,-140.53 -226.05,16.58z"/>
    <path class="fil3" d="M7499.23 2073.51c20.65,153.79 235.32,101.89 213,-37.31 -18.29,-114.15 -233.82,-117.72 -213,37.31z"/>
    <path class="fil3" d="M7324.75 1769.68c19.07,126.26 188.73,80.87 173.08,-35.29 -14.61,-108.41 -191.99,-89.99 -173.08,35.29z"/>
    <path class="fil3" d="M7819.68 2110.26l42.3 -21.38c-7.22,-76.82 -51.94,-131.55 -142.26,-147.64 2.81,54.51 19.88,36.16 56.28,85.52 24.04,32.61 25.01,55.31 43.69,83.5z"/>
    <path class="fil3" d="M7375.83 1996.78c44.28,-65.64 121.3,-56.52 169.14,-101.58 -58.4,-52.02 -173.79,35.86 -230.63,48.02l26.85 -69.93c-18.44,-14.92 -29.47,-24.58 -58.92,-31.84 -51.18,61.22 -71.63,138.44 -122.9,189.76 -24.02,24.07 -67.86,52.31 -79.08,73.77 -29.55,56.54 10.04,78.79 60.38,57.2 22.37,-9.59 109.22,-88.66 195.61,-89.21 49.09,-0.32 107.45,31.71 124.32,-10.39 13,-32.43 -8.59,-35.14 -24.46,-42.7 -7.25,-3.45 -19.62,-5.74 -28.13,-8.82l-32.17 -14.29z"/>
    <path class="fil3" d="M7866.48 1909.68c25.19,227.61 258.72,154.24 266.15,-13.63 7.53,-169.75 -285.31,-159.44 -266.15,13.63z"/>
    <path class="fil3" d="M7741.85 2308.31c32.29,151.49 268.45,67.35 228.5,-76.62 -42.45,-152.92 -262.97,-85.15 -228.5,76.62z"/>
    <path class="fil3" d="M7575.64 1765.3c14.21,177.56 228.64,145.64 226.05,-16.58 -2.48,-155.21 -238.63,-140.53 -226.05,16.58z"/>
    <path class="fil3" d="M7499.23 2073.51c20.65,153.79 235.32,101.89 213,-37.31 -18.29,-114.15 -233.82,-117.72 -213,37.31z"/>
    <path class="fil3" d="M7324.75 1769.68c19.07,126.26 188.73,80.87 173.08,-35.29 -14.61,-108.41 -191.99,-89.99 -173.08,35.29z"/>
    <path class="fil3" d="M7819.68 2110.26l42.3 -21.38c-7.22,-76.82 -51.94,-131.55 -142.26,-147.64 2.81,54.51 19.88,36.16 56.28,85.52 24.04,32.61 25.01,55.31 43.69,83.5z"/>
   </g>
   <path class="fil3" d="M8162.27 1574.4c25.88,26.08 30.38,52.21 45.24,88.18 274.09,38.78 74.76,-332.78 -176.95,-104.19 -103.49,94.01 -25.89,106.09 -123.32,116.65 -47.79,-197.43 341.44,-382.54 466.76,-198.22 70.83,104.18 35.07,245.8 -76.75,274.14 -119.48,30.29 -258.41,-110.31 -134.98,-176.55z"/>
  </g>
  <g id="_1337064128">
   <g>
    <g>
     <g>
      <path class="fil3" d="M11818.7 3229.35c29.75,-154.67 247.58,-124.97 253.65,15.5l-0.89 23.39c-0.38,3.36 -0.85,6.75 -1.47,10.21 -28.92,161.11 -284.19,121.88 -251.29,-49.1z"/>
      <path class="fil3" d="M11610.89 3076.14c19.84,-108 160.57,-142.45 228.47,-51.17 59.57,80.09 -15.51,39.57 -66.33,141.77 -23.17,46.59 -2.51,74.63 -63.06,60.43 -71.39,-16.75 -112.36,-78.78 -99.08,-151.03z"/>
      <path class="fil3" d="M11537.65 3428.02c5.58,30.32 19.65,57.48 38.37,81.75 20.95,27.17 60.73,38.01 49.52,63.72 -27.4,62.81 -95.6,96.47 -161.54,73.02 -110.29,-39.23 -108.2,-180.47 -29.74,-228.21 3.3,-2.01 86.75,9.08 103.39,9.72z"/>
      <path class="fil3" d="M11756.15 3291.42c13.85,97.14 103.55,112.03 88.64,145.41 -67.58,151.36 -280.97,70.64 -244.53,-79.09 6.43,-26.45 27.68,-59.33 50.76,-74.2 9.13,-5.88 76.81,11.3 105.13,7.88z"/>
      <path class="fil3" d="M11580.01 3213.83l15.76 22.78 -69.11 125.16 6.41 3.55c-28.12,2.44 -54.61,-2.96 -79.53,-15.98 -18.82,-9.82 -11.85,-10.39 -5.04,-26.17 4.87,-11.24 7.31,-35.13 9.96,-40.6 5,-10.29 54.92,-17.31 70.05,-24.36 35.7,-16.64 36.6,-34.59 51.49,-44.39z"/>
      <path class="fil3" d="M11851.31 3828.42c29.76,-154.67 247.58,-124.96 253.66,15.5l-0.9 23.39c-0.38,3.36 -0.85,6.75 -1.47,10.22 -28.92,161.11 -284.18,121.87 -251.29,-49.11z"/>
      <path class="fil3" d="M11897.02 3712.98c107.46,-22.53 138.39,-164.09 45.44,-229.69 -81.55,-57.54 -39.17,16.5 -140.06,69.86 -46,24.32 -74.55,4.37 -58.84,64.54 18.52,70.96 81.57,110.36 153.46,95.3z"/>
      <path class="fil3" d="M11691.67 3650.48c12.08,28.36 31.79,51.76 55.38,71.33 26.41,21.9 67.6,23.74 62.29,51.29 -12.94,67.3 -72.07,115.11 -141.57,106.71 -116.21,-14.06 -145.18,-152.3 -79.11,-216.11 2.78,-2.69 86.63,-10.19 103.01,-13.22z"/>
      <path class="fil3" d="M12155.96 3895.49c28.14,12.58 58.49,16.36 89.11,14.67 34.25,-1.89 65.71,-28.54 80.55,-4.73 36.26,58.15 25.39,133.42 -31.29,174.49 -94.79,68.7 -210.01,-13.01 -204.93,-104.72 0.21,-3.86 56.62,-66.37 66.56,-79.72z"/>
      <path class="fil3" d="M11948.29 3075.21c98.09,2.63 123.17,90.02 154.62,71.39 142.61,-84.5 37.94,-287.23 -106.62,-233.86 -25.54,9.43 -55.77,34.3 -67.9,58.94 -4.79,9.74 20.04,75 19.89,103.52z"/>
      <path class="fil3" d="M12110.06 3199.33c37.62,84.1 -26.17,140.83 2.38,159.88 129.45,86.39 258.55,-84.54 154.65,-185.24 -18.36,-17.79 -51.69,-33.27 -77.47,-33.52 -10.19,-0.1 -55.36,47.42 -79.56,58.88z"/>
      <path class="fil3" d="M11691.9 2911.62c81.51,17.11 119.12,-1.49 190.04,69.91 10.28,-49.84 -0.99,-89.54 45.62,-135.75 -93.77,-92.72 -209.7,-68.35 -235.67,65.85z"/>
      <path class="fil3" d="M12032.26 3666.81c4.4,-83.16 32.03,-114.73 -18.75,-201.62 50.81,2.87 86.28,23.95 142.92,-9.22 65.52,114.44 12.19,220.22 -124.17,210.84z"/>
      <path class="fil3" d="M12132.53 3736.28c26.89,-15.07 48.04,-37.17 64.97,-62.73 18.95,-28.61 16.35,-69.75 44.31,-67.44 68.3,5.64 122.18,59.29 121.3,129.29 -1.5,117.05 -135.83,160.69 -206.37,101.86 -2.97,-2.47 -19.43,-85.03 -24.2,-100.98z"/>
      <path class="fil3" d="M12178.9 3427.96l23.16 -15.19c65.05,4.66 163.58,46.83 109.15,144.99 -10.3,18.58 -10.69,11.59 -26.29,4.39 -11.12,-5.15 -34.94,-8.19 -40.34,-10.98 -10.16,-5.25 -15.94,-55.33 -22.6,-70.62 -15.75,-36.1 -33.67,-37.46 -43.09,-52.58z"/>
     </g>
    </g>
   </g>
   <g>
    <g>
     <path class="fil3" d="M11079.16 2914.66c44.77,-58.7 57.1,0.51 153.97,-64.87 104.54,-70.54 201.35,-104.47 320.62,-125.91 13.24,-2.38 156.27,-26.24 164.05,18.93 6.18,35.82 -52.84,22.44 -72.45,23.88 -166.04,12.2 -247.57,47.03 -402.7,127.37 -49.86,25.82 -116.33,68.53 -163.48,20.6z"/>
     <path class="fil3" d="M11488.59 2975.96c-15.13,37.14 -44.13,30.65 -74.21,28.87 -31.56,-1.87 -57.7,-7.18 -87.42,-11.24 -26.06,-3.57 -66.11,-9.59 -86.74,-6.07 -29.8,5.11 -51.26,31.57 -81.63,6.26 28.38,-67.89 186,-40.42 246.01,-37.68 28.67,1.31 63.39,-9.14 83.99,19.86z"/>
     <path class="fil3" d="M11454.77 3210.63l-32.44 34.61c-29.93,-7.34 -204.19,-123.36 -224.75,-151.64l23.88 -32.53c29.4,12.74 207.71,123.29 233.32,149.56z"/>
    </g>
    <path class="fil3" d="M11197.54 2705.73c-17.12,75.07 -164.08,50.69 -148.26,270.36 13.69,190.19 164.04,207.63 65.55,270.9 -86.69,-40.87 -124.11,-245.79 -126.8,-297.55 -2.41,-46.46 5.91,-115 44.3,-165.52 32.51,-42.78 120.66,-114.48 165.22,-78.19z"/>
   </g>
  </g>
  <g id="_1337081728">
   <g>
    <g>
     <path class="fil3" d="M4091.68 3060.06c-9.27,-157.23 -229.11,-156.27 -253.5,-17.81l-2.18 23.31c-0.06,3.38 -0.04,6.8 0.12,10.31 7.6,163.52 265.8,158 255.56,-15.82z"/>
     <path class="fil3" d="M4317.74 2935.35c-5.56,-109.66 -140.57,-162.22 -219.83,-80.61 -69.53,71.6 10.2,41.26 47.22,149.21 16.88,49.23 -7.27,74.33 54.61,68.17 72.98,-7.26 121.7,-63.41 118,-136.77z"/>
     <path class="fil3" d="M4344.33 3293.78c-9.49,29.33 -27,54.41 -48.74,76.03 -24.32,24.19 -65.18,29.73 -57.42,56.69 18.95,65.86 82.15,108.16 150.6,93.53 114.48,-24.46 130.87,-164.76 59.32,-222.36 -3.01,-2.43 -87.2,-2.35 -103.77,-3.89z"/>
     <path class="fil3" d="M4145.57 3129.79c-26.44,94.5 -117.32,97.52 -106.91,132.57 47.21,158.9 269.33,106.78 252.78,-46.43 -2.93,-27.06 -19.68,-62.44 -40.63,-80.21 -8.28,-7.01 -77.62,1.16 -105.25,-5.93z"/>
     <path class="fil3" d="M4330.35 3075.9l-18.61 20.52 52.14 133.13 -6.82 2.68c27.57,6.1 54.54,4.21 80.94,-5.44 19.94,-7.28 13.11,-8.75 8.41,-25.29 -3.35,-11.78 -2.66,-35.78 -4.57,-41.55 -3.61,-10.86 -52.18,-24.35 -66.25,-33.31 -33.22,-21.16 -31.78,-39.08 -45.24,-50.74z"/>
     <path class="fil3" d="M3980.98 3649.72c-9.26,-157.23 -229.1,-156.27 -253.5,-17.81l-2.17 23.31c-0.06,3.38 -0.04,6.8 0.12,10.32 7.59,163.51 265.8,158 255.55,-15.83z"/>
     <path class="fil3" d="M3950.78 3529.3c-103.59,-36.39 -115.75,-180.77 -15.02,-233.66 88.37,-46.39 36.67,21.47 129.73,87.57 42.43,30.14 73.33,14.08 49.89,71.68 -27.64,67.93 -95.3,98.75 -164.6,74.4z"/>
     <path class="fil3" d="M4162.54 3494.19c-15.7,26.53 -38.28,47.16 -64.24,63.48 -29.05,18.27 -70.12,14.7 -68.47,42.7 4.03,68.42 56.41,123.55 126.4,124.31 117.06,1.26 163.85,-132.02 106.7,-203.91 -2.41,-3.03 -84.56,-21.43 -100.39,-26.58z"/>
     <path class="fil3" d="M3670.19 3676.37c-29.55,8.79 -60.14,8.56 -90.27,2.89 -33.71,-6.35 -61.41,-36.88 -79.24,-15.22 -43.55,52.91 -42.62,128.95 8.2,177.09 84.98,80.5 209.91,14.56 216.86,-77.02 0.3,-3.86 -47.44,-73.2 -55.56,-87.74z"/>
     <path class="fil3" d="M3983.35 2890.31c-97.59,-10.23 -133.89,73.13 -162.62,50.55 -130.33,-102.42 -0.05,-289.72 136.28,-217.9 24.09,12.69 50.8,41.3 59.6,67.32 3.48,10.28 -29.68,71.73 -33.26,100.03z"/>
     <path class="fil3" d="M3806.74 2992.2c-48.3,78.46 7.52,143.04 -23.26,158.2 -139.64,68.72 -245.28,-117.64 -129.1,-203.87 20.52,-15.24 55.6,-26.23 81.2,-23.11 10.11,1.23 48.67,54.26 71.16,68.79z"/>
     <path class="fil3" d="M4258.94 2761.65c-83.03,6.31 -117.9,-17.05 -197.56,44.46 -3.67,-50.76 12.7,-88.65 -27.47,-140.56 105.09,-79.65 216.83,-40.33 225.02,96.1z"/>
     <path class="fil3" d="M3822.73 3465.84c6.52,-83.03 -16.75,-117.94 44.95,-197.45 -50.74,-3.8 -88.67,12.47 -140.48,-27.83 -79.92,104.89 -40.89,216.73 95.53,225.27z"/>
     <path class="fil3" d="M3714.24 3521.58c-24.69,-18.45 -42.78,-43.13 -56.22,-70.67 -15.04,-30.85 -7.08,-71.29 -35.1,-72.66 -68.45,-3.34 -128.89,42.81 -137.15,112.32 -13.84,116.24 113.64,177.08 191.26,127.98 3.27,-2.07 30.4,-81.78 37.21,-96.96z"/>
     <path class="fil3" d="M3708.6 3209.86l-20.98 -18.09c-65.09,-3.9 -168.3,25.04 -127.17,129.47 7.78,19.75 9.08,12.88 25.49,7.77 11.7,-3.64 35.71,-3.55 41.43,-5.6 10.76,-3.88 23.03,-52.78 31.65,-67.07 20.33,-33.73 38.28,-32.73 49.59,-46.49z"/>
    </g>
   </g>
   <g>
    <g>
     <path class="fil3" d="M4661.51 2713.71c39.35,62.48 -20.44,53.32 6.95,166.94 29.57,122.6 27.51,225.16 5.92,344.4 -2.4,13.24 -30.03,155.59 -75.06,147.09 -35.73,-6.73 -2.56,-57.35 2.95,-76.23 46.59,-159.83 42.45,-248.4 21.4,-421.83 -6.76,-55.74 -23.54,-132.94 37.84,-160.37z"/>
     <path class="fil3" d="M4460.98 3075.89c-29.52,-27.16 -13.3,-52.06 -1.12,-79.62 12.78,-28.91 26.9,-51.55 41.1,-77.98 12.44,-23.17 32.09,-58.59 35.99,-79.16 5.64,-29.7 -11.66,-59.05 22.67,-78.66 53.69,50.31 -27.14,188.4 -50.68,243.67 -11.24,26.4 -13.59,62.58 -47.96,71.74z"/>
     <path class="fil3" d="M4325.44 2855.97l-22.95 -33.93c17.35,-25.47 48.02,-51.66 81.7,-61.03l22.14 33.74c-22.21,23.09 -47.34,46.41 -80.89,61.22z"/>
    </g>
    <path class="fil3" d="M4888.05 2935.23c-74.45,-47.53 0.57,-176.29 -239.26,-253.07 -207.66,-66.49 -276.39,68.37 -311.13,-51.18 72.53,-64.89 303.83,-14.68 359.99,4.41 50.42,17.12 120.84,53.6 161.98,110.98 34.84,48.61 82.03,161.88 28.42,188.86z"/>
   </g>
  </g>
  <g id="_1337089952">
   <g>
    <g>
     <path class="fil3" d="M12061.39 7554.83c-52.53,-22.2 -140.28,-17.29 -194.46,45.31 -22.44,-19.72 -37.84,-47.87 -41.12,-80.2 -6.81,-67.2 41.27,-127.12 107.39,-133.83 102.95,-10.44 142.12,80.86 128.19,168.71zm645.91 1334.5c5.63,55.46 -34.77,104.98 -90.26,110.61 -26.85,2.72 -52.33,-5.38 -72.08,-20.7 63.82,-40.9 92.04,-85.4 102.07,-172.39 32.38,14.05 56.46,44.79 60.27,82.48zm-108.31 573.39c2.6,25.53 -16,48.31 -41.53,50.9 -25.53,2.59 -48.31,-16 -50.9,-41.53 -2.59,-25.53 16,-48.31 41.53,-50.9 25.53,-2.59 48.31,16 50.9,41.53zm-4.05 -321.28c4.54,44.67 -28.01,84.56 -72.68,89.1 -44.67,4.53 -84.56,-28.02 -89.09,-72.68 -4.53,-44.68 28.02,-84.56 72.68,-89.1 44.67,-4.53 84.56,28.02 89.09,72.68zm135.04 141.97c3.67,36.17 -22.66,68.45 -58.83,72.12 -36.17,3.67 -68.45,-22.66 -72.11,-58.83 -3.68,-36.17 22.66,-68.45 58.83,-72.12 36.17,-3.67 68.45,22.66 72.11,58.83zm-375.6 -303.09c4.85,47.81 -30,90.52 -77.81,95.37 -47.81,4.86 -90.52,-29.99 -95.37,-77.8 -4.85,-47.81 29.99,-90.52 77.8,-95.37 47.81,-4.85 90.52,29.99 95.38,77.8zm210.33 -205.32c-59.73,61.81 -129.91,72.31 -207.26,47.52 63.51,181.48 257.38,98.04 207.26,-47.52zm45.62 -183.62c23.98,38.32 28.15,77.38 11.9,117.24 80.62,9.05 117.92,-34.96 114.89,-128.54 -39.53,18.63 -81.78,22.38 -126.79,11.3zm-271.26 -0.3c48.93,31.56 115.1,13.57 144.43,-18.01 38.35,22.58 62.23,46.68 69.96,72.38 33.29,110.77 -194.83,188.65 -235.14,52.52 -9.22,-31.15 -3.27,-68.98 20.75,-106.9zm-74.26 190.97c-27.57,-63.51 -23.25,-135.42 16.36,-216.62 -253.79,-79.85 -250.96,264.99 -16.36,216.62zm487.74 -480.57c-49.95,-2.25 -91.23,-18.84 -123.44,-50.52 -57.76,1.52 -108.03,38.47 -129.75,87.56 -90.53,204.55 212.68,307.05 268.78,94.72 10.22,-38.72 2.34,-85.62 -15.59,-131.76zm-285.73 213.9c-69.15,-66.58 -61.51,-227.66 24.33,-274.61 -120.39,-81.83 -260.91,-32.31 -264.6,113.91 -2.82,108.54 81.99,226.75 240.27,160.69zm340.58 -230.17c30.68,-6.35 53.72,-24.05 70.1,-51.63 24.19,63.85 11.32,105.13 -24.2,132.61 -4.83,-33.63 -21.13,-59.99 -45.89,-80.98zm-131.13 -277.01c-1.22,53.35 -16.46,100.96 -56.57,138.52 30.18,45.64 62.75,70.96 93.94,81.53 58.72,19.86 112.66,-12.44 136.81,-59.48 24.08,-46.91 22.26,-113.43 -25.86,-147.39 -29.9,-21.09 -77.72,-29.7 -148.32,-13.17zm-415.98 141.69c110.15,-35.63 198.25,-23.01 262.3,42.09 95.66,-109.67 106.02,-298.9 -60.01,-343.08 -161.1,-42.87 -302.01,133.74 -202.29,300.99zm-180 -157.73c8.92,87.93 -55.12,166.43 -143.06,175.35 -87.93,8.92 -166.43,-55.12 -175.35,-143.06 -8.92,-87.93 55.13,-166.43 143.06,-175.35 87.93,-8.91 166.43,55.13 175.35,143.06zm-230.98 -212.26c111.42,-300.28 459.51,-141.01 288.96,166.4 -62.18,-143.78 -164.29,-184.28 -288.96,-166.4zm423.4 44.12c89.25,-29.27 178.4,-40.64 266.93,9.04 103.04,-284.44 -178.48,-354.97 -299,-146.99 13.4,41.55 24.28,87.1 32.06,137.95zm376.13 -64.48c77.56,-67.61 161.44,-98.29 253.98,-77.48 41.15,-278.76 -249.84,-321.58 -325.88,-110.77 43.78,53.86 62.61,118.89 71.9,188.25zm41.71 175.82c88.68,-1.33 162.39,4.6 213.55,68.06 43.79,-30.11 65.5,-70.15 70.34,-109.62 18.32,-148.67 -176.41,-204.03 -256.31,-105.7 -27.76,34.16 -40.16,84.86 -27.59,147.26z"/>
    </g>
   </g>
   <path class="fil3" d="M12200.18 6683.52c36.35,42.67 107.02,170.96 71.68,214.97 -19.77,24.64 -51.16,51.49 -74.68,72.96 -39.17,35.74 -78.61,71.14 -116.93,107.81 -44.14,42.22 -159.41,150.74 -155.53,216.27 0.69,11.62 1.29,26.75 4.06,38.03 5.76,23.43 32.61,26.15 42.09,4.25 5.63,-12.99 8.68,-31.08 13,-45.86 12,-14.68 29.59,-31.37 42.56,-44.78 30.62,-31.67 61.55,-63.04 92.72,-94.16 34.17,-34.13 68.67,-68.06 103.8,-101.21 23.17,-21.88 48.37,-46.02 73.77,-65.69 2.95,9.94 4.49,27.07 4.9,33.13 8.83,130.79 -228.51,419.56 -158.76,523.03 4.84,13.14 12.53,29.28 28.14,30.41 22.99,1.67 25.91,-22.56 23.58,-39.21 -0.07,-0.46 -0.14,-0.86 -0.23,-1.31 -11.06,-53.03 56.57,-191.04 79.65,-240.41 28.7,-61.41 98.41,-197.6 93.96,-263.65 -0.84,-12.5 -2.68,-24.88 -4.82,-37.21 3.78,4.51 6.94,8.37 8.78,10.61 69.67,84.4 -47.39,440.57 68.84,555.52 6.75,6.68 16.97,7.72 24.93,2.55 5.59,-3.63 8.82,-9.5 9.11,-15.75 5.66,-9.46 8.84,-17.42 2.7,-29.38 -26.61,-51.87 -27.37,-220.91 -29.16,-282.53 -2.25,-77.17 -2.89,-240.45 -35.9,-307.97 -1.75,-3.57 -5.28,-10.02 -8.84,-16.81 2.11,0.66 3.93,1.25 5.23,1.65 30.57,9.58 105.71,165.88 120.72,196.58 27.02,55.28 91.19,201.35 132.42,240.5 1.88,1.79 3.77,3.01 6.17,4 15.88,6.52 30.32,3.47 42.26,-7.76 0.91,-0.66 1.78,-1.42 2.6,-2.26 7.2,-7.41 7.58,-19 0.88,-26.88 -23.31,-27.38 -43.56,-69.73 -58.89,-102.22 -22.94,-48.63 -43.89,-98.26 -66.16,-147.21 -33.48,-73.55 -92.01,-201.24 -164.81,-241.72 -73.92,-41.1 -75.53,-69.52 -120.72,-134.04 -22.01,-31.45 -67,-124.79 -117.81,-94.03 -25.4,15.38 -39.93,41.01 -35.77,70.85 6.33,45.45 47.59,48.92 50.49,18.94z"/>
  </g>
  <g id="_1337061184">
   <g>
    <g>
     <g>
      <path class="fil3" d="M3145.76 5457.77c-74.85,-0.94 -109.22,63.83 -170.02,76.74 -8.97,-73.39 121.45,-115.75 161.5,-153.37l-68.8 -16.79c-1.67,-22.35 -3.24,-36.13 6.98,-62.93 75.14,-6.81 146.16,18.88 213.65,6.66 31.64,-5.72 77.18,-24.57 99.9,-21.73 59.84,7.47 55.83,50.22 11.94,77.72 -19.5,12.22 -127.71,37.14 -174.65,103.98 -26.68,37.98 -33.21,100.57 -75.01,91.02 -32.21,-7.36 -22.68,-25.6 -20.01,-42 1.23,-7.5 6.12,-18.35 8.29,-26.61l6.22 -32.69z"/>
      <path class="fil3" d="M2813.89 5792.17c163.31,142.14 -19.44,284.11 -153.91,199.5 -135.96,-85.54 29.73,-307.57 153.91,-199.5z"/>
      <path class="fil3" d="M3190.78 5909.95c100.34,106.67 -92.21,244.89 -182.58,136.31 -95.98,-115.32 75.42,-250.21 182.58,-136.31z"/>
      <path class="fil3" d="M2858.28 5488.41c130.34,106.64 -9.92,256.1 -134.6,166.74 -119.28,-85.49 19.28,-261.11 134.6,-166.74z"/>
      <path class="fil3" d="M3138.94 5594.98c108.4,98.85 -47.51,237.73 -143.69,145.45 -78.86,-75.68 34.41,-245.1 143.69,-145.45z"/>
      <path class="fil3" d="M2996.78 5295.79c87.85,82.8 -38.78,190.21 -120.63,115.51 -76.38,-69.74 33.43,-197.67 120.63,-115.51z"/>
      <path class="fil3" d="M2994.97 5863.8l-39.39 21.35c-55.82,-46.98 -74.27,-111.19 -38.15,-190.05 40.85,31.54 17.4,34.92 36.16,89.79 12.4,36.23 29.52,49.21 41.38,78.91z"/>
      <path class="fil3" d="M3145.76 5457.77c-74.85,-0.94 -109.22,63.83 -170.02,76.74 -8.97,-73.39 121.45,-115.75 161.5,-153.37l-68.8 -16.79c-1.67,-22.35 -3.24,-36.13 6.98,-62.93 75.14,-6.81 146.16,18.88 213.65,6.66 31.64,-5.72 77.18,-24.57 99.9,-21.73 59.84,7.47 55.83,50.22 11.94,77.72 -19.5,12.22 -127.71,37.14 -174.65,103.98 -26.68,37.98 -33.21,100.57 -75.01,91.02 -32.21,-7.36 -22.68,-25.6 -20.01,-42 1.23,-7.5 6.12,-18.35 8.29,-26.61l6.22 -32.69z"/>
      <path class="fil3" d="M2813.89 5792.17c163.31,142.14 -19.44,284.11 -153.91,199.5 -135.96,-85.54 29.73,-307.57 153.91,-199.5z"/>
      <path class="fil3" d="M3190.78 5909.95c100.34,106.67 -92.21,244.89 -182.58,136.31 -95.98,-115.32 75.42,-250.21 182.58,-136.31z"/>
      <path class="fil3" d="M2858.28 5488.41c130.34,106.64 -9.92,256.1 -134.6,166.74 -119.28,-85.49 19.28,-261.11 134.6,-166.74z"/>
      <path class="fil3" d="M3138.94 5594.98c108.4,98.85 -47.51,237.73 -143.69,145.45 -78.86,-75.68 34.41,-245.1 143.69,-145.45z"/>
      <path class="fil3" d="M2996.78 5295.79c87.85,82.8 -38.78,190.21 -120.63,115.51 -76.38,-69.74 33.43,-197.67 120.63,-115.51z"/>
      <path class="fil3" d="M2994.97 5863.8l-39.39 21.35c-55.82,-46.98 -74.27,-111.19 -38.15,-190.05 40.85,31.54 17.4,34.92 36.16,89.79 12.4,36.23 29.52,49.21 41.38,78.91z"/>
     </g>
    </g>
    <path class="fil3" d="M2984.89 6080.56c87.86,82.81 -38.78,190.22 -120.62,115.51 -76.39,-69.73 33.43,-197.67 120.62,-115.51z"/>
    <path class="fil3" d="M3198.87 6158.87c87.85,82.8 -38.78,190.21 -120.63,115.51 -76.38,-69.74 33.43,-197.67 120.63,-115.51z"/>
   </g>
   <path class="fil3" d="M2646.64 5637.28c87.86,82.81 -38.78,190.22 -120.62,115.51 -76.39,-69.73 33.43,-197.67 120.62,-115.51z"/>
  </g>
  <g id="_1337064160">
   <g>
    <g>
     <path class="fil4" d="M1347.06 4950.62c1.92,-0.4 6.53,0.5 5.82,-0.74 -2.35,-4.07 47.17,8.88 118.91,-14.79 47.16,-15.56 83.53,-20.78 121.7,-30.39 20.92,40.26 0.2,34.16 42.62,77.39 204.95,-97.42 242.94,-206.18 313.94,-209.94 24.89,31.46 -2.63,74.59 -11.48,115.58 -20.13,93.16 7.22,54.28 12.86,119.02 7.68,88.17 -79.66,146.67 2.43,235.54 88.94,-106.2 84.9,-408.37 405.11,-707.81 56.84,-53.15 158.65,-127.03 192.05,-194.28 -80.5,-55 -543.29,93.28 -669.74,141.36 -87.43,33.25 -621.38,281.78 -634.12,389.47 1.58,39.72 65.21,52.92 99.9,79.59z"/>
     <path class="fil4" d="M1626.29 3839.07c-107.04,137.68 125.37,283.95 129.57,318.85 -4.88,62.4 -114.04,109.09 -160.03,131.83 -58.76,29.07 -146.12,37.39 -183.51,96.77 16.12,29.18 21.05,37.35 53.19,65.89 -61.68,50.8 -120.15,51.02 -188.9,112.89 -36.25,32.62 -50.78,49.71 -58.41,93.42 -5.69,32.54 -21.14,76.83 -15.43,104.17 50.12,19.79 99.12,-28.67 141.96,-53.78 247.16,-144.91 433.38,-260.16 706.31,-356.94 104.22,-36.96 198.36,-57.72 297.03,-80.2 19.91,-4.54 317.99,-19.82 241.74,-87.24 -33.83,-29.92 -255.53,-43.57 -315.56,-56.99 -104.36,-23.3 -211.36,-58.16 -315.45,-102.18 -125.23,-52.95 -220.03,-132.08 -332.49,-186.49z"/>
     <path class="fil4" d="M3087.41 5015.4c-116.79,-141.41 -298.73,-184.08 -331.46,-479.59 -5.53,-50 2.73,-140.03 -23.59,-178.72 -166.57,40.9 -390,285.06 -503.83,466.85 -91.54,146.22 -238.77,482.05 -193.91,592.82 146.58,50.85 220.33,-170.27 294.92,-285.42 42.97,-66.32 53.01,28.86 142.4,-164.88 30.82,-66.8 53.31,-148.33 106.17,-200.17 109.8,44.4 45.7,91.09 249.71,244.4l61.09 -38.56c55.11,38.72 181.77,142.62 198.49,43.28z"/>
     <path class="fil4" d="M1742.11 3804.16c-4.33,59.9 31.79,68.92 92.97,106.35 133.38,81.56 260.69,124.34 410.34,139.22 461.58,45.89 311.76,92.19 547.83,211.1 38.97,-20.32 28.07,-55.85 4.99,-95.49 -125.49,-215.42 -119.85,-209.71 -154.95,-468.92 -42.72,-100.19 -107.09,-185.52 -209.57,-219.19 -35.46,-13.03 -28.82,-10.65 -59.13,7.77 -87.46,53.18 -96.64,61.3 -70.73,206.5 5.16,28.92 10.7,77.84 3.43,114.11 -4.64,23.13 -15.06,43.3 -32.34,63.73 -19.17,22.65 -34.78,35.18 -55.67,32.43 -34.86,-4.61 -73.35,-45.25 -120.77,-47.63 -32.95,-1.65 -22.12,9.13 -54.02,1.24 -50.41,-12.49 -209.22,-118.18 -302.37,-51.23z"/>
     <path class="fil4" d="M3247.21 4748.98c-15.43,-40.46 -46.35,-79.3 -75.71,-118.51 -82.49,-110.23 -18.49,-38.67 -12.85,-132.31 -79.97,-77.87 -258.56,-104.25 -328.15,-88 -43.52,78.47 5.37,257.71 55.2,337.55 70.83,113.5 207.67,209.08 330.04,272.46 44.21,-55.64 17.85,-80.18 -6.61,-135.06 -42.01,-94.3 -18.45,-57.39 38.09,-136.12z"/>
    </g>
    <path class="fil4" d="M3066.17 3690.78c7.33,42.68 0.49,91.86 -4.81,140.55 -14.86,136.87 3.79,42.7 56.32,120.41 -20.56,75.99 -96.4,154.92 -163.23,202.37 -87.92,62.45 -109.13,36.23 -153.21,-66.4 -30.08,-70.03 -46.86,-155.87 -45.55,-211.73 3.17,-133.75 72.25,-285.68 145.3,-402.55 66.38,25.37 56.18,59.91 63.09,119.61 11.86,102.55 13.34,58.79 102.1,97.75z"/>
   </g>
   <path class="fil4" d="M3644.61 4798.33c-88.86,-83.42 45.67,-238.92 -260.02,-404.15 -264.66,-143.06 -392.23,22.31 -408.89,-148.65 114.9,-69.53 415.78,57.49 487.09,97.67 64.01,36.06 150.2,103.48 191.39,191.78 34.87,74.79 70.01,240.42 -9.57,263.35z"/>
  </g>
 </g>
</svg>
