<?xml version="1.0" encoding="UTF-8"?>
<!DOCTYPE svg PUBLIC "-//W3C//DTD SVG 1.1//EN" "http://www.w3.org/Graphics/SVG/1.1/DTD/svg11.dtd">
<!-- Creator: CorelDRAW -->
<svg xmlns="http://www.w3.org/2000/svg" xml:space="preserve" width="13.1006mm" height="4.6526mm" version="1.1" style="shape-rendering:geometricPrecision; text-rendering:geometricPrecision; image-rendering:optimizeQuality; fill-rule:evenodd; clip-rule:evenodd"
viewBox="0 0 112.83 40.07"
 xmlns:xlink="http://www.w3.org/1999/xlink"
 xmlns:xodm="http://www.corel.com/coreldraw/odm/2003">
 <defs>
  <style type="text/css">
   <![CDATA[
    .fil0 {fill:#B68F22;fill-rule:nonzero}
    .fil1 {fill:#6A253A;fill-rule:nonzero}
   ]]>
  </style>
 </defs>
 <g id="Слой_x0020_1">
  <metadata id="CorelCorpID_0Corel-Layer"/>
  <g id="_2799337078816">
   <g>
    <path class="fil0" d="M16.43 15.1l0.31 0.29c-0.21,0.42 -0.4,0.84 -0.56,1.28 -0.97,0.5 -1.91,0.86 -2.8,1.07 -0.9,0.21 -1.93,0.32 -3.1,0.32 -2.19,0 -4.04,-0.38 -5.55,-1.15 -1.52,-0.77 -2.68,-1.85 -3.49,-3.24 -0.82,-1.39 -1.22,-2.99 -1.22,-4.79 0,-2.59 0.92,-4.72 2.76,-6.38 1.84,-1.65 4.38,-2.48 7.62,-2.48 1.08,0 2.14,0.09 3.2,0.29 1.06,0.19 2.11,0.49 3.15,0.88l0.09 0.19c-0.15,0.45 -0.26,0.88 -0.31,1.3 -0.11,0.73 -0.19,1.63 -0.25,2.7l-1.08 0c-0.05,-1.32 -0.1,-2.04 -0.15,-2.17 -0.05,-0.13 -0.28,-0.35 -0.69,-0.66 -0.41,-0.32 -0.96,-0.57 -1.66,-0.76 -0.7,-0.2 -1.47,-0.29 -2.31,-0.29 -2,0 -3.6,0.62 -4.78,1.85 -1.18,1.23 -1.77,2.96 -1.77,5.16 0,2.39 0.71,4.32 2.14,5.8 1.31,1.37 3.11,2.06 5.41,2.06 0.89,0 1.72,-0.09 2.5,-0.27 0.77,-0.18 1.63,-0.5 2.57,-0.96zm3.63 2.69l0 -0.64c0.44,-0.2 0.85,-0.44 1.21,-0.71 0.17,-1.31 0.25,-4.05 0.25,-8.24 0,-2.85 -0.03,-4.75 -0.09,-5.68 -0.02,-0.5 -0.11,-0.81 -0.26,-0.94 -0.15,-0.13 -0.76,-0.24 -1.86,-0.33l0 -1.02c1.97,0.05 3.53,0.08 4.67,0.08l6.9 -0.08c0.73,0 1.38,0.03 1.96,0.09l0.09 0.14c-0.18,0.91 -0.3,2.11 -0.38,3.62l-1 0c-0.04,-1.21 -0.09,-1.86 -0.15,-1.95 -0.06,-0.08 -0.24,-0.16 -0.57,-0.24 -0.7,-0.15 -1.76,-0.23 -3.19,-0.23 -0.7,0 -1.52,0.02 -2.46,0.08 -0.1,2.6 -0.16,4.67 -0.18,6.2 0.89,0.05 1.73,0.08 2.51,0.08 1.16,0 1.85,-0.04 2.09,-0.11 0.14,-0.05 0.24,-0.17 0.3,-0.36 0.05,-0.15 0.11,-0.68 0.18,-1.58l1.08 0c-0.04,1.41 -0.06,2.34 -0.06,2.76l0.06 2.82 -1.08 0c-0.06,-1.1 -0.13,-1.73 -0.23,-1.9 -0.05,-0.1 -0.16,-0.17 -0.34,-0.22 -0.42,-0.09 -1.36,-0.14 -2.82,-0.14 -0.46,0 -1,0.03 -1.61,0.08 -0.02,0.44 -0.03,0.89 -0.03,1.35 0,2.39 0.04,4.23 0.13,5.52l2.48 0.03c1.41,0 2.7,-0.08 3.87,-0.23 0.2,-0.77 0.4,-1.64 0.59,-2.61l1.05 0c-0.19,1.49 -0.3,2.91 -0.33,4.28 -0.76,0.05 -1.49,0.08 -2.19,0.08 -0.46,0 -1.36,-0.01 -2.71,-0.04 -1.26,-0.03 -2.42,-0.04 -3.48,-0.04 -1.39,0 -2.86,0.02 -4.4,0.08zm15.53 0l0 -1.03 0.75 -0.05c0.61,-0.03 0.98,-0.14 1.14,-0.32 0.15,-0.17 0.24,-0.78 0.27,-1.81 0.05,-2.06 0.08,-4.29 0.08,-6.69 0,-1.28 -0,-2.73 -0.01,-4.36 -0.01,-0.98 -0.06,-1.59 -0.16,-1.8 -0.05,-0.11 -0.14,-0.2 -0.28,-0.26 -0.13,-0.07 -0.73,-0.14 -1.78,-0.21l0 -1.02c1.01,0.02 1.99,0.03 2.96,0.03 1.12,0 2.2,-0.01 3.25,-0.03 0.45,1.06 0.91,2.11 1.4,3.15 0.34,0.74 1.85,3.89 4.53,9.44 2.85,-5.7 4.84,-9.9 5.98,-12.59 1,0.05 1.96,0.08 2.86,0.08 1.06,0 2.08,-0.02 3.07,-0.08l0 1.02c-1.11,0.07 -1.73,0.17 -1.87,0.29 -0.14,0.13 -0.24,0.52 -0.28,1.17 -0.05,1.05 -0.08,3.05 -0.08,5.99 0,1.48 0.01,3.05 0.04,4.7 0.03,1.65 0.08,2.59 0.17,2.81 0.06,0.13 0.14,0.23 0.25,0.3 0.11,0.07 0.7,0.15 1.77,0.24l0 1.03c-1.35,-0.05 -2.56,-0.08 -3.62,-0.08 -1.07,0 -2.52,0.02 -4.35,0.08l0 -1.03 0.73 -0.02c0.58,-0.03 0.94,-0.11 1.08,-0.24 0.14,-0.14 0.24,-0.5 0.28,-1.1 0.04,-0.59 0.06,-1.98 0.06,-4.17l0 -7.56c-1.29,2.58 -2.94,5.97 -4.94,10.16 -0.82,1.73 -1.46,3.13 -1.92,4.22l-0.81 0c-0.63,-1.44 -1.47,-3.26 -2.51,-5.46l-4.32 -8.92 0 1.7c0,4.71 0.02,7.95 0.05,9.73 0.03,0.72 0.12,1.17 0.29,1.34 0.17,0.17 0.79,0.28 1.87,0.33l0 1.03c-0.85,-0.05 -1.7,-0.08 -2.54,-0.08 -1.27,0 -2.39,0.02 -3.38,0.08zm27.53 0l0 -0.59c0.5,-0.3 0.86,-0.56 1.08,-0.78 0.1,-0.88 0.15,-3.59 0.15,-8.13 0,-4.23 -0.11,-6.45 -0.32,-6.66 -0.21,-0.21 -0.87,-0.34 -1.97,-0.37l0 -1.02c1.62,0.05 2.95,0.08 3.98,0.08 1.53,0 2.93,-0.02 4.22,-0.08l0 1.02c-1.14,0.08 -1.79,0.17 -1.94,0.29 -0.15,0.12 -0.25,0.47 -0.31,1.07 -0.06,0.6 -0.08,2.21 -0.08,4.84 0.28,0 0.64,-0.01 1.08,-0.03 0.42,-0.02 0.75,-0.03 0.97,-0.03 2.41,0 4.15,0.45 5.23,1.36 1.08,0.91 1.62,2.05 1.62,3.42 0,1.1 -0.3,2.07 -0.91,2.91 -0.61,0.84 -1.38,1.5 -2.33,1.97 -0.94,0.48 -2.35,0.72 -4.24,0.72 -0.37,0 -0.92,-0.01 -1.65,-0.04 -0.66,-0.03 -1.14,-0.04 -1.43,-0.04 -0.74,0 -1.79,0.02 -3.15,0.08zm4.83 -1.42c0.44,0.12 0.88,0.19 1.35,0.19 2.48,0 3.72,-1.36 3.72,-4.08 0,-0.82 -0.15,-1.52 -0.45,-2.1 -0.3,-0.59 -0.72,-0.99 -1.25,-1.23 -0.53,-0.24 -1.24,-0.36 -2.12,-0.36l-1.25 0.01c-0.02,0.55 -0.03,2.02 -0.03,4.41 0,1.55 0.01,2.61 0.04,3.16zm28.34 1.42l0 -1.03c-0.97,-0.09 -1.52,-0.16 -1.67,-0.24 -0.09,-0.05 -0.16,-0.13 -0.2,-0.24 -0.09,-0.2 -0.15,-0.88 -0.18,-2.03 -0.04,-1.79 -0.06,-3.2 -0.06,-4.23 0,-1.39 0.02,-3.16 0.05,-5.3 0.03,-1.6 0.11,-2.58 0.23,-2.94 0.03,-0.11 0.1,-0.19 0.2,-0.25 0.13,-0.09 0.67,-0.18 1.61,-0.28l0 -1.02c-1.73,0.05 -2.84,0.08 -3.34,0.08l-6.28 -0.08c-1.36,0 -2.35,0.13 -2.97,0.39 -0.62,0.26 -1.11,0.68 -1.47,1.26 -0.36,0.58 -0.55,1.26 -0.55,2.04 0,1 0.29,1.87 0.87,2.63 0.58,0.76 1.58,1.42 3.02,2l-2.66 4.03 -2.07 3.09c-0.4,0.5 -0.69,0.81 -0.88,0.91 -0.19,0.11 -0.51,0.16 -0.94,0.17l0 0.95 0.74 0.01c2.11,0.01 3.47,0.03 4.08,0.06 0.73,-1.16 1.81,-2.85 3.26,-5.05l2.58 -3.92c-0.08,-0.14 -0.14,-0.29 -0.19,-0.44 -0.33,0.03 -0.58,0.05 -0.74,0.05 -0.78,0 -1.55,-0.31 -2.3,-0.94 -0.76,-0.63 -1.13,-1.52 -1.13,-2.68 0,-1.01 0.3,-1.79 0.9,-2.35 0.6,-0.56 1.5,-0.84 2.69,-0.84 0.38,0 0.89,0.03 1.54,0.08l0.08 3.7 0.1 4.7c0,1.06 -0.04,2.42 -0.12,4.08 -0.06,1.25 -0.13,1.95 -0.2,2.1 -0.05,0.11 -0.14,0.2 -0.27,0.26 -0.18,0.1 -0.73,0.18 -1.69,0.23l0 1.03c1.5,-0.05 2.82,-0.08 3.98,-0.08 1.23,0 2.55,0.02 3.96,0.08zm8.41 -4.82l-0.17 -0.24c0.33,-0.72 0.61,-1.59 0.83,-2.61 1.54,0.05 2.8,0.08 3.78,0.08 1.03,0 2.2,-0.02 3.52,-0.08l0.18 0.25c-0.31,0.76 -0.6,1.62 -0.88,2.6 -1.39,-0.05 -2.63,-0.08 -3.72,-0.08 -1.12,0 -2.3,0.03 -3.53,0.08z"/>
    <path class="fil1" d="M-0 39.69l0 -1.02c0.99,-0.08 1.56,-0.15 1.69,-0.24 0.1,-0.05 0.18,-0.14 0.22,-0.26 0.09,-0.21 0.15,-1.07 0.18,-2.6 0.04,-1.53 0.06,-3 0.06,-4.43 0,-2.67 -0.03,-4.58 -0.08,-5.72 -0.06,-1.14 -0.14,-1.79 -0.27,-1.92 -0.12,-0.13 -0.48,-0.22 -1.08,-0.26l-0.73 -0.06 0 -1.02 1.41 0.04c0.88,0.02 1.57,0.03 2.09,0.03 0.71,0 1.85,-0.02 3.43,-0.05 0.85,-0.02 1.47,-0.03 1.87,-0.03 1.5,0 2.6,0.14 3.31,0.42 0.71,0.28 1.26,0.71 1.63,1.29 0.37,0.57 0.56,1.29 0.56,2.14 0,1.55 -0.55,2.84 -1.65,3.89 -1.1,1.04 -2.49,1.56 -4.18,1.56 -0.22,0 -0.44,-0.02 -0.69,-0.05 -0.24,-0.03 -0.5,-0.08 -0.78,-0.13 -0.14,-0.3 -0.29,-0.59 -0.45,-0.87l0.29 -0.31c0.18,0.04 0.35,0.07 0.51,0.09 0.15,0.02 0.29,0.03 0.42,0.03 0.84,0 1.53,-0.29 2.06,-0.88 0.53,-0.59 0.8,-1.41 0.8,-2.46 0,-1.17 -0.28,-2.05 -0.83,-2.62 -0.55,-0.58 -1.36,-0.86 -2.43,-0.86 -0.43,0 -0.94,0.06 -1.53,0.18 -0.09,2.58 -0.13,4.77 -0.13,6.56 0,0.6 0.03,2.53 0.1,5.77 0.03,1.28 0.07,2.02 0.13,2.21 0.04,0.14 0.12,0.24 0.24,0.3 0.18,0.09 0.89,0.18 2.13,0.25l0 1.02c-1.47,-0.05 -2.72,-0.08 -3.73,-0.08 -0.45,0 -1.98,0.03 -4.58,0.08zm25.21 0.26c-3.08,0 -5.44,-0.79 -7.08,-2.37 -1.64,-1.58 -2.45,-3.76 -2.45,-6.53 0,-1.94 0.4,-3.58 1.19,-4.94 0.79,-1.36 1.89,-2.4 3.3,-3.12 1.41,-0.73 3.22,-1.09 5.43,-1.09 2.13,0 3.87,0.35 5.22,1.05 1.35,0.7 2.39,1.66 3.12,2.9 0.73,1.24 1.09,2.76 1.09,4.56 0,1.95 -0.4,3.64 -1.2,5.06 -0.8,1.42 -1.93,2.52 -3.39,3.3 -1.46,0.78 -3.2,1.17 -5.24,1.17zm0.48 -1.36c1.68,0 3.02,-0.62 4.02,-1.86 1,-1.24 1.5,-3.12 1.5,-5.65 0,-2.65 -0.57,-4.69 -1.72,-6.11 -0.93,-1.14 -2.36,-1.71 -4.3,-1.71 -1.81,0 -3.21,0.6 -4.2,1.79 -1,1.19 -1.49,3.03 -1.49,5.51 0,1.78 0.27,3.29 0.82,4.53 0.55,1.24 1.24,2.13 2.08,2.68 0.84,0.55 1.94,0.82 3.29,0.82zm27.77 -1.59l0.31 0.29c-0.21,0.42 -0.4,0.84 -0.56,1.28 -0.97,0.5 -1.91,0.86 -2.8,1.07 -0.9,0.21 -1.93,0.32 -3.1,0.32 -2.19,0 -4.04,-0.38 -5.55,-1.15 -1.52,-0.77 -2.68,-1.85 -3.5,-3.24 -0.82,-1.39 -1.22,-2.99 -1.22,-4.79 0,-2.59 0.92,-4.72 2.76,-6.38 1.84,-1.65 4.38,-2.48 7.62,-2.48 1.08,0 2.14,0.09 3.2,0.29 1.06,0.19 2.11,0.49 3.15,0.88l0.09 0.19c-0.15,0.45 -0.26,0.88 -0.31,1.3 -0.11,0.73 -0.19,1.63 -0.25,2.7l-1.08 0c-0.05,-1.32 -0.1,-2.04 -0.15,-2.17 -0.05,-0.13 -0.28,-0.35 -0.69,-0.66 -0.41,-0.32 -0.96,-0.57 -1.66,-0.76 -0.7,-0.2 -1.47,-0.29 -2.31,-0.29 -2,0 -3.6,0.62 -4.78,1.85 -1.18,1.23 -1.77,2.96 -1.77,5.16 0,2.39 0.71,4.32 2.14,5.8 1.31,1.37 3.11,2.06 5.41,2.06 0.89,0 1.72,-0.09 2.5,-0.27 0.77,-0.18 1.63,-0.5 2.57,-0.96zm18.51 0l0.31 0.29c-0.21,0.42 -0.4,0.84 -0.56,1.28 -0.97,0.5 -1.91,0.86 -2.8,1.07 -0.9,0.21 -1.93,0.32 -3.1,0.32 -2.19,0 -4.04,-0.38 -5.55,-1.15 -1.52,-0.77 -2.68,-1.85 -3.5,-3.24 -0.82,-1.39 -1.22,-2.99 -1.22,-4.79 0,-2.59 0.92,-4.72 2.76,-6.38 1.84,-1.65 4.38,-2.48 7.62,-2.48 1.08,0 2.14,0.09 3.2,0.29 1.06,0.19 2.11,0.49 3.15,0.88l0.09 0.19c-0.15,0.45 -0.26,0.88 -0.31,1.3 -0.11,0.73 -0.19,1.63 -0.25,2.7l-1.08 0c-0.05,-1.32 -0.1,-2.04 -0.15,-2.17 -0.05,-0.13 -0.28,-0.35 -0.69,-0.66 -0.41,-0.32 -0.96,-0.57 -1.66,-0.76 -0.7,-0.2 -1.47,-0.29 -2.31,-0.29 -2,0 -3.6,0.62 -4.78,1.85 -1.18,1.23 -1.77,2.96 -1.77,5.16 0,2.39 0.71,4.32 2.14,5.8 1.31,1.37 3.11,2.06 5.41,2.06 0.89,0 1.72,-0.09 2.5,-0.27 0.77,-0.18 1.63,-0.5 2.57,-0.96zm21.82 -14.87l0 1.02c-1.18,0.04 -1.86,0.16 -2.05,0.36 -0.19,0.2 -0.28,2.1 -0.28,5.71 0,3.94 0.02,6.41 0.07,7.41 0.05,1 0.14,1.56 0.28,1.7 0.14,0.14 0.8,0.25 1.98,0.33l0 1.02c-0.03,0 -0.27,-0.01 -0.73,-0.02 -1.4,-0.04 -2.44,-0.06 -3.11,-0.06 -0.45,0 -1.89,0.03 -4.33,0.08l0 -1.02c1.15,-0.03 1.82,-0.14 2,-0.32 0.18,-0.18 0.27,-1.51 0.27,-4.01l0.06 -7.01c0,-0.39 -0.02,-1.13 -0.06,-2.21l-1.62 2.75c-2.38,4.06 -4.02,6.75 -4.91,8.06 -0.89,1.31 -1.88,2.57 -2.98,3.79 -1.1,0.17 -1.81,0.29 -2.13,0.36l-0.21 -0.19c0.12,-1.31 0.18,-4.64 0.18,-10 0,-3.98 -0.06,-6.08 -0.18,-6.31 -0.12,-0.23 -0.82,-0.37 -2.1,-0.42l0 -1.02c1.76,0.05 2.94,0.08 3.54,0.08 1.76,0 3.29,-0.03 4.59,-0.08l0 1.02c-1.17,0.04 -1.84,0.16 -2.02,0.36 -0.18,0.2 -0.27,2.06 -0.27,5.57 0,0.65 0.04,2.82 0.11,6.51l1.58 -2.48c2.55,-3.99 4.73,-7.62 6.55,-10.91l1.1 0.01c1.79,0 3.35,-0.03 4.68,-0.09zm18.43 17.56l0 -1.02c-0.97,-0.09 -1.52,-0.16 -1.67,-0.24 -0.09,-0.05 -0.16,-0.13 -0.2,-0.24 -0.09,-0.2 -0.15,-0.88 -0.18,-2.03 -0.04,-1.79 -0.06,-3.2 -0.06,-4.23 0,-1.39 0.02,-3.16 0.05,-5.3 0.03,-1.6 0.11,-2.58 0.23,-2.94 0.03,-0.11 0.1,-0.19 0.2,-0.25 0.13,-0.09 0.67,-0.18 1.61,-0.28l0 -1.02c-1.73,0.05 -2.84,0.08 -3.34,0.08l-6.28 -0.08c-1.36,0 -2.35,0.13 -2.97,0.39 -0.62,0.26 -1.11,0.68 -1.47,1.26 -0.36,0.58 -0.55,1.26 -0.55,2.04 0,1 0.29,1.88 0.87,2.63 0.58,0.76 1.58,1.42 3.02,2l-2.66 4.03 -2.07 3.09c-0.4,0.5 -0.69,0.81 -0.88,0.91 -0.19,0.11 -0.51,0.16 -0.94,0.17l0 0.95 0.74 0.01c2.12,0.01 3.47,0.03 4.08,0.06 0.73,-1.16 1.81,-2.84 3.26,-5.05l2.58 -3.92c-0.08,-0.14 -0.14,-0.29 -0.19,-0.44 -0.33,0.03 -0.58,0.05 -0.74,0.05 -0.78,0 -1.55,-0.31 -2.3,-0.94 -0.76,-0.63 -1.13,-1.52 -1.13,-2.68 0,-1.01 0.3,-1.79 0.9,-2.35 0.6,-0.56 1.5,-0.84 2.69,-0.84 0.38,0 0.89,0.02 1.54,0.08l0.08 3.7 0.1 4.7c0,1.06 -0.04,2.42 -0.12,4.08 -0.06,1.25 -0.13,1.95 -0.2,2.1 -0.05,0.11 -0.14,0.2 -0.27,0.27 -0.18,0.1 -0.73,0.17 -1.69,0.23l0 1.02c1.5,-0.05 2.82,-0.08 3.98,-0.08 1.23,0 2.55,0.03 3.96,0.08z"/>
   </g>
  </g>
 </g>
</svg>
